<?xml version="1.0" encoding="UTF-8" standalone="no"?>
<!-- Created with Inkscape (http://www.inkscape.org/) -->

<svg
   width="79.375008mm"
   height="79.375008mm"
   viewBox="0 0 79.375008 79.375008"
   version="1.1"
   id="svg8930"
   inkscape:version="1.1.1 (3bf5ae0d25, 2021-09-20)"
   sodipodi:docname="chat-background.svg"
   xmlns:inkscape="http://www.inkscape.org/namespaces/inkscape"
   xmlns:sodipodi="http://sodipodi.sourceforge.net/DTD/sodipodi-0.dtd"
   xmlns="http://www.w3.org/2000/svg"
   xmlns:svg="http://www.w3.org/2000/svg">
  <sodipodi:namedview
     id="namedview8932"
     pagecolor="#ffffff"
     bordercolor="#cccccc"
     borderopacity="1"
     inkscape:pageshadow="0"
     inkscape:pageopacity="0"
     inkscape:pagecheckerboard="0"
     inkscape:document-units="mm"
     showgrid="false"
     fit-margin-top="0"
     fit-margin-left="0"
     fit-margin-right="0"
     fit-margin-bottom="0"
     inkscape:zoom="1.8116734"
     inkscape:cx="93.835898"
     inkscape:cy="112.0511"
     inkscape:window-width="1920"
     inkscape:window-height="974"
     inkscape:window-x="-11"
     inkscape:window-y="-11"
     inkscape:window-maximized="1"
     inkscape:current-layer="layer1" />
  <defs
     id="defs8927" />
  <g
     inkscape:label="Layer 1"
     inkscape:groupmode="layer"
     id="layer1"
     transform="translate(-110.01377,-148.63582)">
    <path
       id="rect8702"
       style="fill:#6d6d6d;;fill-opacity:0.5;stroke:none;stroke-width:12.113;stroke-linecap:round;stroke-linejoin:round"
       d="m 110.01377,148.63592 v 0.001 l 5.37035,-0.001 z m 8.05439,0 c -0.42616,0.73536 -0.57172,1.40523 -0.41704,2.00386 0.16113,0.6377 0.65383,1.21185 1.4789,1.72252 l 0.47436,0.29413 0.55584,-0.8982 -0.37861,-0.2338 c -0.98323,-0.60859 -1.17228,-1.40269 -0.56637,-2.3817 l 0.31374,-0.50681 z m 10.93453,0 c -0.0687,0.5843 0.13032,1.09521 0.66742,1.51362 -0.98142,-0.43004 -1.79483,-0.12303 -2.44043,0.92014 l -1.37335,2.21874 c -0.33485,0.54106 -0.73187,0.83302 -1.19079,0.87638 -0.0255,0.003 -0.0511,0.006 -0.0769,0.006 -0.33643,0.0117 -0.70591,-0.1077 -1.1071,-0.35597 l -0.38462,-0.23755 -0.55579,0.89745 0.47513,0.29339 c 0.44888,0.27783 0.86349,0.45796 1.24433,0.53997 0.23643,0.0538 0.46159,0.0743 0.67499,0.0611 0.10668,-0.007 0.21049,-0.0217 0.31145,-0.0452 0.0203,-0.004 0.0403,-0.0102 0.0604,-0.0159 0.0396,-0.0102 0.0788,-0.0209 0.11762,-0.034 0.27157,-0.0887 0.52344,-0.23686 0.7557,-0.44494 0.22994,-0.2043 0.4444,-0.45673 0.64328,-0.75723 0.0285,-0.0429 0.056,-0.087 0.0838,-0.13193 l 1.38914,-2.24444 c 0.13762,-0.2223 0.27827,-0.40169 0.42157,-0.53769 0.14331,-0.13602 0.30199,-0.22028 0.47663,-0.25416 0.17732,-0.0381 0.38023,-0.0222 0.60862,0.0483 0.23269,0.0731 0.50545,0.20576 0.81752,0.39894 l 0.276,0.17118 0.55131,-0.89142 -0.27604,-0.17119 c -0.29496,-0.18257 -0.52213,-0.36447 -0.68175,-0.54603 -0.15963,-0.1816 -0.2643,-0.36452 -0.31523,-0.54978 -0.0435,-0.1869 -0.0385,-0.37635 0.015,-0.56791 0.0147,-0.0515 0.0525,-0.10756 0.0724,-0.15989 z m 23.07793,0 c -0.0199,0.0384 -0.0209,0.0668 -0.0431,0.10639 l -0.43139,0.76999 2.56641,1.32813 0.54976,-0.97968 -1.58822,-0.96082 c 0.0435,-0.0906 0.0714,-0.17582 0.10785,-0.26397 z m 24.68426,0 c 0.0131,0.0682 0.006,0.13237 0.0226,0.20137 0.0795,0.33949 0.17067,0.67701 0.27226,1.01211 l -2.9518,1.73383 c -0.26124,-0.37644 -0.47926,-0.7354 -0.65534,-1.07621 -0.17302,-0.33683 -0.31357,-0.66407 -0.42084,-0.9819 l -0.98794,0.76922 c 0.11121,0.25747 0.25573,0.54971 0.43366,0.87639 0.18488,0.32759 0.39053,0.66093 0.61688,1.00078 l -1.56865,0.9065 0.67572,0.86881 1.56942,-0.90649 c 0.33798,0.3932 0.68947,0.72173 1.05429,0.98569 0.36878,0.26087 0.73642,0.44298 1.10336,0.54604 0.36693,0.10319 0.73213,0.12158 1.09502,0.0557 0.36287,-0.066 0.71051,-0.22853 1.04373,-0.48798 0.31344,-0.244 0.53271,-0.51962 0.65689,-0.82655 0.12725,-0.30306 0.19024,-0.62316 0.18928,-0.96007 0.006,-0.33601 -0.0328,-0.681 -0.11763,-1.0355 -0.0808,-0.35756 -0.17375,-0.70969 -0.2775,-1.05582 l 2.78132,-1.62602 z m 4.57469,0 c 0.14317,0.22469 0.28026,0.45961 0.41026,0.70667 0.13339,0.253 0.25755,0.51005 0.37181,0.7715 l 0.91631,-0.71342 c -0.0953,-0.21254 -0.2088,-0.43631 -0.34086,-0.67123 -0.0177,-0.0318 -0.0379,-0.0619 -0.0559,-0.0936 z m -3.26018,0.001 h 1.05884 l -0.93595,0.54376 c -0.0581,-0.19759 -0.0927,-0.37266 -0.12288,-0.54376 z m -21.89843,1.72859 v 7.3e-4 c -0.0813,0.001 -0.16052,0.0117 -0.23755,0.034 -0.12069,0.0302 -0.23272,0.0861 -0.33563,0.16671 -0.10726,0.0781 -0.19507,0.17816 -0.26395,0.30093 -0.0664,0.11836 -0.10595,0.24395 -0.11617,0.37632 -0.0152,0.12989 -0.006,0.25616 0.0295,0.37933 0.0347,0.12317 0.0946,0.2378 0.1795,0.34318 0.0806,0.10288 0.18028,0.187 0.29864,0.25338 0.11835,0.0664 0.2419,0.1077 0.3718,0.12288 0.12989,0.0152 0.25693,0.006 0.3801,-0.0295 0.11879,-0.0371 0.22968,-0.0959 0.33258,-0.17646 0.10726,-0.0782 0.19376,-0.17654 0.26016,-0.29491 0.0689,-0.12274 0.10975,-0.25013 0.11996,-0.38235 0.0152,-0.12989 0.006,-0.2531 -0.0264,-0.36957 -0.0347,-0.12317 -0.0921,-0.23573 -0.17272,-0.33859 -0.0807,-0.10289 -0.18029,-0.18775 -0.29863,-0.25417 -0.11836,-0.0664 -0.24268,-0.1077 -0.37254,-0.12288 -0.0503,-0.007 -0.0998,-0.0102 -0.14858,-0.009 z m -12.10948,0.48796 c -0.13455,0.001 -0.26457,0.0279 -0.39067,0.08 -0.14874,0.0614 -0.27637,0.14908 -0.38159,0.26319 -0.10259,0.10756 -0.18171,0.23013 -0.23909,0.36806 -0.0575,0.13777 -0.0883,0.28346 -0.0897,0.43665 -0.001,0.15314 0.0273,0.30169 0.0867,0.44572 0.0613,0.1487 0.14623,0.27673 0.25565,0.3839 0.10756,0.10245 0.23013,0.18244 0.36803,0.23978 0.13791,0.0575 0.28137,0.0877 0.42987,0.0921 0.15314,0.001 0.30376,-0.0276 0.4525,-0.089 0.14404,-0.0594 0.26994,-0.14389 0.37709,-0.25341 0.10712,-0.10945 0.18925,-0.23315 0.24659,-0.37104 0.0575,-0.13791 0.0877,-0.28064 0.0919,-0.42915 0.007,-0.15509 -0.02,-0.30675 -0.0814,-0.45549 -0.0594,-0.14405 -0.14682,-0.26887 -0.26095,-0.37409 -0.10946,-0.10727 -0.23316,-0.18925 -0.37104,-0.24663 -0.13791,-0.0575 -0.28353,-0.0883 -0.43667,-0.0897 -0.0194,-8.5e-4 -0.0381,-9.2e-4 -0.0574,-7.3e-4 z m 33.29596,0.0671 c 0.0813,0.26809 0.14142,0.50847 0.17951,0.72099 0.0416,0.21652 0.0562,0.41179 0.0445,0.58602 -0.0102,0.17414 -0.0533,0.33172 -0.12814,0.47285 -0.0709,0.13806 -0.17781,0.26285 -0.32052,0.37406 -0.34119,0.26531 -0.70665,0.35247 -1.09652,0.26095 -0.38679,-0.0876 -0.80886,-0.38375 -1.2655,-0.88842 z m -12.87493,3.8169 c -0.23175,0.003 -0.45803,0.0147 -0.6795,0.0369 -0.59067,0.0593 -1.1467,0.1658 -1.66742,0.31975 -2.52153,0.74567 -4.48326,2.53449 -5.8847,5.36597 l 0.99852,0.53016 c 1.28036,-2.40767 3.06782,-3.95049 5.36277,-4.62913 1.10888,-0.3279 2.23834,-0.41004 3.38769,-0.24658 1.07749,0.15321 2.18124,0.52661 3.31074,1.12069 0.0753,0.0395 0.15078,0.0798 0.22623,0.12142 l 0.52869,-0.95029 c -0.80137,-0.47607 -1.56686,-0.83966 -2.29642,-1.09054 -0.73098,-0.25577 -1.4255,-0.42528 -2.08447,-0.50829 -0.41485,-0.0509 -0.81585,-0.0746 -1.20213,-0.0701 z m -18.41045,1.00983 c -0.15369,8.7e-4 -0.30192,0.0309 -0.44421,0.0898 -0.16268,0.0671 -0.29288,0.15304 -0.39065,0.25869 -0.0931,0.10362 -0.16101,0.21615 -0.20364,0.33714 -0.0372,0.11894 -0.0533,0.23971 -0.046,0.36199 0.007,0.1223 0.0298,0.23192 0.0701,0.32958 0.0806,0.19523 0.17727,0.33756 0.29036,0.42687 0.11763,0.0874 0.23998,0.16531 0.36578,0.23304 0.1258,0.0677 0.24639,0.14809 0.36122,0.24207 0.11953,0.0921 0.2196,0.23615 0.30018,0.43139 0.0787,0.19056 0.0975,0.38077 0.0565,0.57167 -0.0409,0.19095 -0.12755,0.37069 -0.2594,0.53924 -0.12522,0.17133 -0.28824,0.32896 -0.49022,0.4721 -0.20202,0.14317 -0.42359,0.2591 -0.66441,0.34767 l 0.39369,0.95482 c 0.55769,-0.23012 1.01232,-0.51323 1.3635,-0.84847 0.35581,-0.33721 0.61634,-0.69979 0.78205,-1.08902 0.16986,-0.39119 0.25092,-0.79506 0.24362,-1.21047 -0.001,-0.41266 -0.0822,-0.81186 -0.24132,-1.1976 -0.11705,-0.28351 -0.25359,-0.51495 -0.40954,-0.69537 -0.15136,-0.18232 -0.31353,-0.31952 -0.48718,-0.41105 -0.16911,-0.0932 -0.34392,-0.14112 -0.52412,-0.14244 -0.0222,-0.001 -0.0445,-0.001 -0.0664,-0.001 z m 43.14224,0.30393 -0.9216,0.63048 1.08598,2.00008 v -2.32587 z m -79.21053,0.3062 v 2.32436 l 0.10858,0.19987 -0.10858,0.0747 v 1.18783 l 0.58148,-0.39746 1.27303,2.32741 -1.59356,1.08976 -0.26095,-0.47738 v 2.31532 l 1.14557,2.09885 0.92084,-0.63049 -1.3326,-2.44124 1.58675,-1.08601 1.33334,2.44125 0.92084,-0.63049 -1.33261,-2.44129 1.38767,-0.95024 -0.55356,-0.80846 -1.30696,0.89445 -1.27304,-2.32814 1.41934,-0.97063 -0.55429,-0.80923 -1.33788,0.91557 z m 26.29292,0.11909 -1.10862,0.0302 0.17947,6.48364 1.10862,-0.0309 z m -2.62371,0.0724 -1.10787,0.0309 0.1795,6.48292 1.10785,-0.0302 z m 53.02018,1.22704 -0.90801,0.62217 1.19381,2.19845 -1.39442,0.95404 0.55356,0.80921 1.31372,-0.89822 1.26623,2.33115 -1.40651,0.9631 0.55356,0.80847 1.3258,-0.90651 0.18778,0.34389 v -2.31531 l -1.01205,-1.85 1.01205,-0.69233 v -1.19008 l -1.48493,1.01663 z m -16.07334,3.35005 c -0.64232,1.19661 -1.4096,2.18401 -2.30168,2.96165 -0.89203,0.77751 -1.89734,1.33144 -3.01588,1.6622 -2.24672,0.66443 -4.57013,0.3344 -6.96992,-0.99025 l -0.52864,0.95102 c 0.75623,0.44746 1.4904,0.80124 2.20212,1.06265 0.71028,0.25655 1.39632,0.43148 2.0581,0.52415 0.66036,0.0878 1.29955,0.10624 1.91859,0.0543 0.61275,-0.0553 1.21148,-0.16991 1.79488,-0.34239 2.49261,-0.73715 4.43946,-2.52095 5.84095,-5.35238 z m 10.23166,3.04536 -0.56639,2.36889 c -0.48551,0.0716 -0.98072,0.2211 -1.48569,0.44795 -0.50502,0.22685 -1.01761,0.5424 -1.53772,0.94651 l 0.81449,1.04828 c 0.65372,-0.52708 1.28273,-0.88538 1.88689,-1.0747 l -0.72325,3.02651 c -0.0749,-0.0308 -0.14985,-0.0614 -0.22473,-0.0912 -0.2246,-0.0893 -0.44886,-0.17357 -0.6727,-0.25265 -0.30157,-0.10946 -0.60102,-0.17945 -0.89822,-0.20968 -0.30427,-0.0309 -0.60626,-0.009 -0.90574,0.0641 -0.30651,0.0725 -0.60869,0.22416 -0.90648,0.45554 -0.23421,0.18199 -0.42164,0.39497 -0.56335,0.63878 -0.14881,0.24288 -0.24002,0.50724 -0.27226,0.7934 -0.0324,0.28616 3.8e-4,0.58585 0.0973,0.89898 0.0969,0.31312 0.26975,0.63095 0.51961,0.95251 0.25918,0.33352 0.54036,0.59265 0.84316,0.77757 0.29979,0.18087 0.60861,0.29123 0.92608,0.33108 0.31041,0.039 0.62206,0.0102 0.93517,-0.0867 0.31316,-0.0969 0.61236,-0.25678 0.89821,-0.47889 0.26994,-0.20974 0.50424,-0.47773 0.70286,-0.80394 0.0489,-0.0826 0.0952,-0.168 0.13806,-0.2572 0.0431,-0.0892 0.0828,-0.18179 0.11996,-0.27751 0.0743,-0.19133 0.13646,-0.39561 0.18704,-0.61317 l 0.083,-0.2745 c 0.27021,0.10202 0.54633,0.18732 0.82805,0.25489 0.2747,0.0667 0.55769,0.0947 0.84917,0.0845 0.0359,0 0.0724,-8.5e-4 0.10858,-0.004 0.036,-0.003 0.0722,-0.006 0.10857,-0.0102 0.21793,-0.0238 0.43945,-0.0753 0.66442,-0.15461 0.29593,-0.1026 0.59421,-0.27084 0.89592,-0.50529 0.32158,-0.24988 0.57595,-0.52953 0.76173,-0.83944 0.0228,-0.0391 0.0442,-0.0792 0.0648,-0.11908 0.14404,-0.27901 0.23217,-0.57295 0.26473,-0.8824 0.0331,-0.35054 -0.0117,-0.71625 -0.13646,-1.09733 -0.12419,-0.381 -0.33577,-0.76427 -0.63503,-1.14937 -0.31461,-0.40495 -0.66812,-0.73212 -1.05957,-0.98191 -0.39853,-0.25064 -0.82634,-0.42441 -1.28357,-0.52113 l 0.24207,-1.02872 z m -36.72818,1.74213 -6.31755,1.91487 3.0121,5.87428 1.0807,-0.44194 -2.44874,-4.75131 5.10337,-1.50385 z m -21.40144,0.97594 -2.5905,2.66751 0.7579,0.73532 1.70742,-1.758 8.53705,8.29064 -1.70741,1.75875 0.7572,0.73533 2.59049,-2.66753 z m 30.06746,0.18626 -9.55817,9.28164 1.15233,0.4887 9.5582,-9.28087 z m 28.60662,0.63578 c 0.68346,0.093 1.22569,0.39796 1.62673,0.91403 0.17584,0.22634 0.30129,0.45652 0.37559,0.69161 0.0714,0.2311 0.0944,0.45832 0.0702,0.68099 -0.0315,0.22176 -0.1077,0.43402 -0.23002,0.63729 -0.12215,0.20311 -0.28909,0.38641 -0.49926,0.54982 -0.17867,0.13879 -0.35841,0.244 -0.53922,0.31447 -0.18389,0.0666 -0.36803,0.10756 -0.55279,0.12361 -0.18785,0.0117 -0.37678,0.003 -0.56637,-0.0279 -0.19273,-0.0349 -0.38755,-0.0845 -0.58371,-0.14858 z m -25.05381,3.38775 -1.07692,0.45173 2.45176,4.74379 -5.10639,1.51134 0.42609,1.08227 6.31756,-1.91485 z m 21.13145,0.45401 c 0.0753,0 0.15256,0.003 0.2308,0.0117 0.20151,0.0217 0.41022,0.0696 0.62667,0.14332 0.21249,0.0768 0.43274,0.16342 0.66068,0.26019 l -0.0838,0.32276 c -0.0867,0.34746 -0.19051,0.63165 -0.31147,0.85299 -0.12493,0.22439 -0.29394,0.41938 -0.50831,0.586 -0.14302,0.11106 -0.2918,0.19523 -0.44571,0.25115 -0.157,0.0515 -0.31376,0.072 -0.46984,0.0588 -0.15607,-0.0131 -0.30604,-0.0584 -0.45022,-0.13718 -0.14727,-0.0829 -0.28242,-0.20395 -0.40574,-0.36278 -0.22215,-0.28585 -0.31266,-0.57843 -0.27149,-0.87784 0.0372,-0.29632 0.20453,-0.55975 0.50228,-0.79116 0.17865,-0.13895 0.36566,-0.23026 0.56107,-0.27374 0.11763,-0.0279 0.23937,-0.0423 0.36501,-0.0438 z m -60.36864,1.11996 -2.5898,2.66752 10.05214,9.76204 2.59053,-2.66751 -0.75793,-0.73534 -1.71795,1.76933 -8.53706,-8.29143 1.718,-1.76928 z m 69.75939,2.68184 -4.64937,6.22722 0.91026,0.72176 4.98573,-5.96026 z m -22.46931,4.17963 c -0.17443,0 -0.34196,0.0209 -0.50379,0.0626 -0.3167,0.0819 -0.60788,0.24185 -0.8733,0.47967 -0.2628,0.23349 -0.50553,0.53005 -0.72778,0.88915 l -0.94041,1.5197 c -0.13762,0.22234 -0.27824,0.40096 -0.42158,0.53696 -0.14331,0.13602 -0.30384,0.22361 -0.48114,0.26169 -0.17469,0.0339 -0.37568,0.0155 -0.60407,-0.055 -0.22839,-0.0705 -0.49869,-0.20206 -0.81075,-0.39521 l -0.27601,-0.17117 -0.55204,0.89143 0.27604,0.17118 c 0.295,0.18256 0.52042,0.36332 0.67573,0.54225 0.15962,0.18156 0.26149,0.36517 0.30541,0.55206 0.0515,0.18519 0.0486,0.37584 -0.007,0.57168 -0.0536,0.19156 -0.14492,0.39236 -0.2745,0.60183 l -1.36577,2.20597 c -0.48641,0.78665 -0.64862,1.49703 -0.48494,2.13053 0.16106,0.63774 0.6546,1.21184 1.47968,1.72256 l 0.47436,0.29334 0.55506,-0.89746 -0.37784,-0.23454 c -0.98327,-0.60863 -1.17232,-1.40192 -0.56637,-2.38093 l 1.35748,-2.19315 c 0.66943,-1.0816 0.57671,-1.94926 -0.27828,-2.60264 0.0922,0.0398 0.18295,0.0733 0.27225,0.10026 0.0298,0.009 0.0595,0.0177 0.089,0.025 0.82404,0.2119 1.51811,-0.1385 2.08302,-1.05134 l 0.92457,-1.49401 c 0.24184,-0.39077 0.51703,-0.65208 0.82431,-0.78286 0.0236,-0.0102 0.0477,-0.0184 0.0717,-0.0271 0.43247,-0.15329 0.92701,-0.0579 1.48494,0.28737 l 0.37859,0.23454 0.5558,-0.89746 -0.47435,-0.29413 c -0.44892,-0.27785 -0.86425,-0.458 -1.24512,-0.54002 -0.187,-0.0419 -0.36782,-0.0626 -0.54223,-0.0626 z m 5.19916,2.71429 -0.55582,0.89746 0.38462,0.23833 c 0.36709,0.2272 0.62278,0.48051 0.76696,0.76023 0.0117,0.0233 0.0238,0.0473 0.034,0.0708 0.19897,0.44976 0.1185,0.9655 -0.24134,1.54683 l -0.90876,1.46836 c -0.60428,0.97635 -0.58613,1.78196 0.055,2.41715 0.022,0.0219 0.045,0.0434 0.0686,0.0648 0.0473,0.0429 0.0978,0.0852 0.15083,0.12667 -0.98142,-0.43007 -1.79554,-0.12375 -2.44118,0.91937 l -1.37335,2.21952 c -0.59533,0.96191 -1.38654,1.1369 -2.37406,0.52565 l -0.38462,-0.23828 -0.55579,0.89818 0.47435,0.29339 c 0.44891,0.27783 0.86428,0.45796 1.2451,0.53998 0.23644,0.0544 0.46085,0.0734 0.67422,0.0603 0.0854,-0.006 0.16941,-0.0155 0.25115,-0.0317 0.0409,-0.007 0.0807,-0.0184 0.12069,-0.0286 0.0395,-0.0102 0.0788,-0.0207 0.11762,-0.034 0.27152,-0.0887 0.5234,-0.23767 0.75566,-0.44572 0.26279,-0.23353 0.50551,-0.52925 0.72773,-0.88838 l 1.38917,-2.24444 c 0.13762,-0.2223 0.27828,-0.40174 0.42157,-0.53772 0.14331,-0.13602 0.30199,-0.22107 0.47664,-0.25493 0.17731,-0.0381 0.38022,-0.0222 0.60857,0.0483 0.23273,0.0731 0.50545,0.20658 0.81752,0.39974 l 0.27527,0.17043 0.55205,-0.89143 -0.27601,-0.17045 c -0.29496,-0.18256 -0.5222,-0.36447 -0.68178,-0.54604 -0.15963,-0.18159 -0.26504,-0.36532 -0.31597,-0.55055 -0.0438,-0.1869 -0.0385,-0.37555 0.015,-0.56712 0.056,-0.19585 0.1487,-0.39914 0.27828,-0.60863 l 0.91706,-1.48118 c 0.48639,-0.78661 0.64865,-1.4963 0.48493,-2.12979 -0.1611,-0.63779 -0.65453,-1.21259 -1.47965,-1.72329 z m 11.78443,0.28281 c -0.0317,0 -0.0632,0.001 -0.095,0.006 -0.12726,0.0146 -0.25113,0.0543 -0.37254,0.11836 -0.0285,0.0159 -0.0563,0.0336 -0.083,0.0521 -0.0131,0.009 -0.0261,0.0184 -0.0391,0.0286 -0.0644,0.0496 -0.12375,0.10771 -0.17649,0.1742 -0.0844,0.10639 -0.14404,0.22187 -0.17948,0.34767 -0.0315,0.12887 -0.0403,0.25751 -0.0257,0.38463 0.0178,0.12318 0.0588,0.24157 0.12215,0.35599 0.0603,0.11821 0.14535,0.2218 0.25565,0.30922 0.10639,0.0844 0.22407,0.14171 0.35292,0.17345 0.1258,0.0353 0.24871,0.0455 0.3688,0.0324 0.12712,-0.0147 0.24759,-0.0536 0.36199,-0.1169 0.11835,-0.0603 0.21959,-0.14332 0.30393,-0.24963 0.0844,-0.10639 0.14258,-0.22411 0.17422,-0.35296 0.0391,-0.12975 0.0509,-0.25827 0.0362,-0.38538 -0.0102,-0.12405 -0.0483,-0.24307 -0.11164,-0.35748 -0.0603,-0.11822 -0.14331,-0.2196 -0.24963,-0.30393 -0.11033,-0.0876 -0.23008,-0.14708 -0.35898,-0.17874 -0.0944,-0.026 -0.18932,-0.0391 -0.28431,-0.0377 z m -70.23908,2.1509 c -0.0724,0.001 -0.1455,0.004 -0.21943,0.0102 -0.29358,0.0197 -0.59677,0.0828 -0.91026,0.18933 -0.001,10e-4 -0.004,0.003 -0.006,0.003 v 1.36201 c 0,0 7.8e-4,-7.3e-4 7.8e-4,-7.3e-4 0.30388,-0.14083 0.61819,-0.20712 0.94193,-0.19836 0.32376,0.009 0.64529,0.10318 0.96532,0.28282 0.18851,0.10582 0.34572,0.22609 0.47211,0.3605 0.122,0.13193 0.20523,0.28156 0.24886,0.45023 0.0436,0.16866 0.0439,0.35914 0,0.57091 -0.0439,0.21176 -0.14097,0.45132 -0.2911,0.71876 l -0.43212,0.76926 2.56639,1.32886 0.55051,-0.97968 -1.58821,-0.96082 c 0.37256,-0.77679 0.48768,-1.46459 0.34539,-2.06344 -0.14677,-0.6013 -0.57561,-1.10135 -1.28585,-1.50004 -0.21921,-0.12318 -0.46267,-0.21372 -0.73001,-0.27153 -0.20199,-0.0485 -0.41119,-0.0722 -0.62823,-0.0709 z m 78.23915,0.20064 c -0.30925,0.10216 -0.61453,0.25744 -0.91551,0.46685 -0.30466,0.20372 -0.60217,0.46656 -0.89219,0.78809 -0.28759,0.31716 -0.55537,0.69676 -0.80392,1.13953 l -0.0995,0.17802 1.02564,0.57543 0.0928,-0.16442 c 0.21661,-0.38583 0.45945,-0.71579 0.72928,-0.99099 0.27198,-0.27933 0.55996,-0.48889 0.8635,-0.62972 z m -50.21997,0.45854 c -0.17068,0.004 -0.33659,0.0274 -0.49777,0.0701 -0.31832,0.0822 -0.6002,0.21874 -0.84616,0.41027 -0.30148,0.23473 -0.51331,0.49827 -0.63575,0.79113 -0.12244,0.29284 -0.18893,0.59982 -0.20059,0.92084 -0.004,0.3219 0.0337,0.65297 0.1131,0.9925 0.0795,0.33949 0.16993,0.67703 0.27149,1.01211 l -2.95103,1.73383 c -0.26124,-0.37644 -0.48003,-0.73538 -0.65611,-1.07621 -0.17302,-0.33679 -0.31353,-0.66407 -0.4208,-0.98189 l -0.98794,0.76926 c 0.11121,0.25743 0.25573,0.54889 0.43363,0.87556 0.18487,0.32757 0.39056,0.66173 0.61691,1.00158 l -1.56865,0.90648 0.67645,0.86882 1.56865,-0.9065 c 0.33798,0.3932 0.68951,0.72173 1.05433,0.98569 0.36875,0.26087 0.73639,0.44297 1.10332,0.54604 0.36693,0.10319 0.73217,0.12158 1.09506,0.0557 0.36287,-0.066 0.71124,-0.22853 1.04448,-0.48797 0.31341,-0.24399 0.53191,-0.51962 0.65614,-0.82656 0.12725,-0.30306 0.19028,-0.62315 0.18928,-0.96005 7.7e-4,-0.042 7e-4,-0.0844 0,-0.12668 -0.004,-0.29611 -0.0441,-0.59864 -0.1185,-0.90883 -0.0808,-0.35751 -0.17298,-0.70967 -0.27678,-1.05582 l 2.81074,-1.64409 c 0.14703,0.22967 0.28759,0.47089 0.42084,0.72401 0.13339,0.253 0.25678,0.51082 0.37104,0.77227 l 0.91631,-0.71346 c -0.0953,-0.21257 -0.20882,-0.4363 -0.34086,-0.67123 -0.12887,-0.23106 -0.26342,-0.4578 -0.40425,-0.67952 l 1.28056,-0.74887 -0.67121,-0.8628 -1.24661,0.73158 c -0.0477,-0.0553 -0.0954,-0.10872 -0.14331,-0.16066 -0.33481,-0.36379 -0.67175,-0.64865 -1.0098,-0.85373 -0.38246,-0.2375 -0.75565,-0.38941 -1.11993,-0.45625 -0.18012,-0.035 -0.35577,-0.0512 -0.5264,-0.0467 z m 0.3499,1.24588 c 0.0864,8.9e-4 0.17485,0.0117 0.26546,0.0317 0.36965,0.0819 0.76871,0.35405 1.19839,0.81598 l -2.46763,1.43369 c -0.14345,-0.48719 -0.20198,-0.8939 -0.17568,-1.22023 0.009,-0.0813 0.0241,-0.15952 0.0474,-0.23381 0.006,-0.0185 0.0117,-0.0369 0.0188,-0.055 0.0746,-0.19964 0.20624,-0.37234 0.39442,-0.51885 0.22018,-0.17137 0.45977,-0.25632 0.71871,-0.25341 z m -23.0251,3.46543 c -0.0813,0.001 -0.15975,0.0131 -0.23682,0.0347 -0.12069,0.0304 -0.23272,0.0854 -0.33558,0.16592 -0.10726,0.0782 -0.19585,0.17895 -0.26473,0.30167 h 7.7e-4 c -0.0666,0.11836 -0.10595,0.24334 -0.11617,0.3756 -0.0153,0.12988 -0.006,0.25693 0.0286,0.38007 0.0347,0.12317 0.0946,0.23704 0.17952,0.34243 0.0806,0.10289 0.18027,0.18774 0.29863,0.25416 0.11836,0.0664 0.24268,0.10697 0.37254,0.12215 0.12973,0.0153 0.25619,0.006 0.37936,-0.0286 0.1188,-0.0371 0.22968,-0.0959 0.33258,-0.17651 0.10726,-0.0782 0.19375,-0.1765 0.26016,-0.29486 0.069,-0.12274 0.10975,-0.25018 0.11997,-0.38238 0.0152,-0.12989 0.006,-0.25308 -0.0264,-0.36954 -0.0347,-0.12317 -0.0921,-0.23651 -0.17272,-0.33937 -0.0807,-0.10289 -0.18029,-0.18779 -0.29863,-0.25417 -0.11836,-0.0664 -0.24191,-0.10697 -0.37181,-0.12215 -0.0503,-0.006 -0.10055,-0.0102 -0.14931,-0.009 z m 67.26465,0.48874 c -0.13456,0.001 -0.26457,0.028 -0.39065,0.08 -0.14872,0.0614 -0.27562,0.14908 -0.38082,0.26319 -0.10245,0.10756 -0.1825,0.23014 -0.23984,0.36806 -0.0575,0.13792 -0.0876,0.28346 -0.089,0.43665 -0.001,0.15314 0.0266,0.30169 0.086,0.44572 0.0613,0.1487 0.14696,0.27675 0.25638,0.3839 0.10756,0.10245 0.23013,0.18244 0.36803,0.23978 0.13791,0.0574 0.28137,0.0877 0.42987,0.0919 0.15314,0.001 0.30377,-0.0276 0.4525,-0.089 0.14404,-0.0594 0.26994,-0.1439 0.37709,-0.25341 0.10712,-0.10946 0.18925,-0.23316 0.24659,-0.37104 0.0574,-0.13792 0.0877,-0.2806 0.0921,-0.42916 0.007,-0.15507 -0.0207,-0.30756 -0.0822,-0.45626 -0.0595,-0.14404 -0.14604,-0.26882 -0.26018,-0.37405 -0.10945,-0.10712 -0.23313,-0.18928 -0.37103,-0.24662 -0.13791,-0.0575 -0.28353,-0.0876 -0.43666,-0.089 -0.0194,-8.4e-4 -0.039,-9.2e-4 -0.0581,-7.3e-4 z m -46.07739,0.0664 c 0.0813,0.26809 0.14068,0.5085 0.17873,0.72099 0.0409,0.21646 0.0569,0.41181 0.0452,0.58601 -0.0117,0.17413 -0.054,0.33249 -0.12901,0.47363 -0.0709,0.13806 -0.17781,0.2621 -0.32052,0.37331 -0.34119,0.26606 -0.70667,0.35336 -1.09654,0.26169 -0.38678,-0.0876 -0.80885,-0.38375 -1.26549,-0.88842 z m -12.87571,3.81689 c -0.23175,0.003 -0.45803,0.0146 -0.67952,0.0369 -0.59065,0.0592 -1.14671,0.16657 -1.66741,0.32053 -2.52156,0.74567 -4.48243,2.53372 -5.88393,5.36519 l 0.99776,0.53094 c 1.28032,-2.40768 3.06863,-3.95124 5.36355,-4.62987 1.10892,-0.32787 2.23756,-0.41008 3.38691,-0.24662 1.07749,0.15322 2.18124,0.52738 3.31074,1.12146 0.0753,0.0396 0.15078,0.0798 0.22623,0.12142 l 0.52869,-0.95102 c -0.80137,-0.4761 -1.56686,-0.83893 -2.29642,-1.08981 -0.73098,-0.25577 -1.42551,-0.4254 -2.08446,-0.50829 -0.41486,-0.0511 -0.81586,-0.0753 -1.20214,-0.0709 z m 60.96445,1.0106 c -0.15369,9.9e-4 -0.30192,0.0303 -0.44421,0.089 -0.16268,0.0671 -0.29288,0.15378 -0.39065,0.25942 -0.0931,0.10362 -0.16101,0.21616 -0.20364,0.33714 -0.0379,0.11894 -0.054,0.23983 -0.0467,0.36199 0.007,0.1223 0.0306,0.23192 0.0709,0.32958 0.0806,0.19516 0.17727,0.33757 0.29035,0.42687 0.11763,0.0876 0.23921,0.16458 0.36501,0.23227 0.12594,0.0677 0.2464,0.14886 0.36127,0.24284 0.11952,0.0921 0.21959,0.23546 0.30014,0.43066 0.0785,0.19057 0.0973,0.3815 0.0566,0.5724 -0.0409,0.19095 -0.12697,0.37069 -0.25866,0.53926 -0.12507,0.17132 -0.28894,0.32817 -0.49097,0.47135 -0.20202,0.14317 -0.42285,0.2591 -0.66368,0.34768 l 0.3937,0.95554 c 0.55769,-0.2301 1.01231,-0.51323 1.3635,-0.84847 0.35581,-0.33721 0.61634,-0.70052 0.78207,-1.08979 0.16985,-0.3912 0.25089,-0.79428 0.2436,-1.2097 -0.001,-0.41266 -0.0822,-0.81181 -0.24133,-1.1976 -0.11704,-0.28351 -0.25354,-0.51568 -0.40953,-0.69612 -0.15137,-0.1823 -0.31423,-0.31877 -0.48794,-0.41028 -0.1691,-0.0933 -0.34316,-0.14113 -0.52337,-0.14259 -0.0222,-9.6e-4 -0.0445,-0.001 -0.0664,-0.001 z m -36.23266,0.30543 -0.92084,0.63048 1.19383,2.19845 -1.59354,1.09053 -1.19986,-2.19466 -0.90876,0.62219 1.19384,2.19843 -1.39443,0.95404 0.55429,0.80923 1.31299,-0.89897 1.26623,2.33188 -1.40651,0.96233 0.55432,0.80924 1.32505,-0.90727 1.33333,2.44202 0.92084,-0.6305 -1.33261,-2.442 1.58676,-1.08602 1.3326,2.44201 0.92157,-0.63048 -1.33333,-2.44202 1.3884,-0.94951 -0.55356,-0.80922 -1.30696,0.89445 -1.27302,-2.32738 1.41859,-0.97064 -0.55356,-0.80922 -1.33789,0.91557 z m 26.45729,0.4231 -1.10862,0.0309 0.17947,6.48365 1.10789,-0.0309 z m -2.62371,0.0731 -1.1086,0.0302 0.17947,6.48364 1.10861,-0.0309 z m -23.08774,3.19695 1.27226,2.32737 -1.59278,1.09054 -1.27302,-2.32737 z m -19.34032,1.38013 c -0.64233,1.19661 -1.4096,2.18327 -2.30168,2.96088 -0.89203,0.77765 -1.89735,1.33222 -3.01588,1.66298 -1.05316,0.31142 -2.12293,0.40393 -3.20969,0.27829 -0.0724,-0.009 -0.14448,-0.0177 -0.2172,-0.0279 -0.43562,-0.0619 -0.87423,-0.15855 -1.31522,-0.29034 -0.0736,-0.0219 -0.14727,-0.0447 -0.22098,-0.0686 -0.66284,-0.21523 -1.33115,-0.5091 -2.00605,-0.88164 l -0.52942,0.95029 c 0.75622,0.44748 1.49041,0.80197 2.20212,1.06338 0.71028,0.25655 1.39632,0.43131 2.0581,0.52415 0.66036,0.0879 1.30028,0.10551 1.91932,0.0536 0.61275,-0.0553 1.21075,-0.16918 1.79415,-0.34167 2.49261,-0.73714 4.43946,-2.52167 5.84091,-5.35313 z m 10.23164,3.04536 -0.56562,2.36889 c -0.48557,0.0717 -0.98066,0.2211 -1.48568,0.44795 -0.50501,0.22685 -1.01767,0.54241 -1.53775,0.94651 l 0.81449,1.04755 c 0.65376,-0.52708 1.28268,-0.88538 1.8869,-1.07469 l -0.72399,3.02651 c -0.075,-0.0309 -0.14986,-0.0607 -0.22473,-0.0905 -0.22461,-0.0893 -0.44887,-0.17357 -0.67271,-0.25266 -0.30156,-0.1096 -0.60101,-0.17944 -0.89821,-0.20968 -0.30427,-0.0309 -0.6063,-0.0102 -0.90574,0.0633 -0.30651,0.0727 -0.60869,0.22489 -0.90647,0.45626 -0.23422,0.18199 -0.42165,0.39498 -0.56336,0.63879 -0.14882,0.24287 -0.23909,0.50724 -0.27148,0.7934 -0.0324,0.28616 -4e-4,0.58581 0.0965,0.89898 0.0969,0.31311 0.27048,0.63094 0.52036,0.95251 0.25913,0.33351 0.53956,0.59264 0.84241,0.77757 0.29979,0.18086 0.60861,0.29126 0.92608,0.33108 0.31041,0.039 0.62206,0.0102 0.93517,-0.0867 0.31314,-0.0969 0.61309,-0.25678 0.89894,-0.47888 0.26994,-0.20976 0.50429,-0.47774 0.70286,-0.80395 0.0489,-0.0826 0.0944,-0.16801 0.13733,-0.25721 0.0214,-0.0445 0.0426,-0.0896 0.0626,-0.13572 0.1,-0.23098 0.18191,-0.48222 0.24512,-0.75418 l 0.0829,-0.27527 c 0.27026,0.10187 0.5456,0.18659 0.82732,0.25416 0.27469,0.0667 0.55842,0.0954 0.84994,0.0852 0.0359,0 0.0717,-8.7e-4 0.10785,-0.004 0.0361,-0.003 0.0722,-0.006 0.10858,-0.0102 0.21793,-0.0238 0.43945,-0.0754 0.66441,-0.15461 0.29592,-0.10259 0.59498,-0.27084 0.89671,-0.50529 0.3216,-0.24988 0.57517,-0.53026 0.76093,-0.84016 0.18276,-0.31386 0.2925,-0.64713 0.32957,-1.0008 0.0333,-0.35049 -0.0117,-0.71628 -0.13645,-1.09732 -0.12419,-0.38109 -0.33579,-0.76428 -0.63503,-1.14938 -0.31466,-0.40499 -0.66735,-0.73212 -1.0588,-0.98191 -0.39848,-0.25064 -0.82639,-0.42514 -1.28361,-0.5219 l 0.24211,-1.02794 z m 42.64674,1.74214 -6.31756,1.91487 3.01212,5.87427 1.08069,-0.4427 -2.44874,-4.75054 5.10337,-1.50459 z m -21.40144,0.97593 -2.59049,2.66675 0.75716,0.73609 1.70815,-1.75875 8.53705,8.2914 -1.70741,1.75801 0.7572,0.73605 2.59048,-2.66753 z m -49.30671,0.18551 -3.09883,3.00916 v 1.60792 l 4.25119,-4.12763 z m 28.60589,0.63653 c 0.68342,0.093 1.22569,0.39716 1.62673,0.91329 0.17584,0.22629 0.30129,0.45727 0.37559,0.69236 0.0714,0.23111 0.0944,0.45831 0.0701,0.68099 -0.0315,0.22175 -0.10785,0.43401 -0.23001,0.63729 -0.12215,0.20326 -0.28886,0.38633 -0.49926,0.54981 -0.17867,0.13879 -0.35845,0.24323 -0.53923,0.31373 -0.18392,0.0666 -0.36802,0.10829 -0.55278,0.12435 -0.18785,0.0117 -0.37678,0.003 -0.56637,-0.0279 -0.19273,-0.0349 -0.38675,-0.0845 -0.58298,-0.14858 z m 47.67019,2.37035 -6.46085,6.27324 1.15237,0.48947 5.30848,-5.15402 z m -72.724,1.01668 -1.07692,0.45246 2.45176,4.74379 -5.10639,1.51134 0.4261,1.08228 6.31755,-1.91487 z m 21.13145,0.45473 v 7.5e-4 c 0.0753,-0.001 0.15256,0.001 0.23079,0.0102 0.20148,0.0217 0.41023,0.0696 0.62669,0.14332 0.21248,0.0768 0.43273,0.16346 0.66063,0.26023 l -0.0829,0.32277 c -0.0865,0.34744 -0.19047,0.63242 -0.31146,0.85372 -0.12492,0.22438 -0.29469,0.41937 -0.50906,0.58599 -0.14302,0.11106 -0.2918,0.1945 -0.44571,0.25038 -0.157,0.0523 -0.31296,0.0727 -0.46907,0.0595 -0.15611,-0.0131 -0.30605,-0.0582 -0.45026,-0.13718 -0.14723,-0.0829 -0.28315,-0.204 -0.40649,-0.36278 -0.22205,-0.28585 -0.31264,-0.57843 -0.27147,-0.87784 0.0372,-0.29618 0.20484,-0.55986 0.50228,-0.79112 h 7.3e-4 c 0.0222,-0.0172 0.0446,-0.034 0.0671,-0.0498 0.15815,-0.11107 0.32221,-0.18589 0.49319,-0.22397 0.11763,-0.0277 0.23937,-0.0423 0.36501,-0.0438 z m 19.00626,1.11996 -2.5898,2.66676 10.05214,9.76207 2.5898,-2.66678 -0.7572,-0.73606 -1.71795,1.76928 -8.53779,-8.29065 1.71873,-1.76928 z m -9.61551,2.68185 -4.64937,6.22721 0.91026,0.72177 4.98573,-5.96027 z m -22.46855,4.1789 c -0.17437,0 -0.34272,0.0209 -0.50455,0.0626 -0.3167,0.0819 -0.60788,0.2418 -0.87331,0.47967 -0.26279,0.23345 -0.50552,0.52927 -0.72776,0.88837 l -0.94043,1.52043 c -0.13762,0.22234 -0.27827,0.40096 -0.42157,0.53701 -0.14331,0.13601 -0.30307,0.22283 -0.48038,0.26091 -0.17465,0.0339 -0.37647,0.0162 -0.60483,-0.0543 -0.22839,-0.0705 -0.49869,-0.20277 -0.81075,-0.39595 l -0.27601,-0.17045 -0.55126,0.89144 0.27526,0.17045 c 0.29496,0.18256 0.52039,0.36332 0.67573,0.54225 0.15962,0.18156 0.26147,0.3659 0.30542,0.55283 0.0515,0.18516 0.0486,0.3758 -0.007,0.57165 -0.0536,0.19156 -0.14492,0.39235 -0.2745,0.60183 l -1.36577,2.20596 c -0.0263,0.0423 -0.041,0.082 -0.0648,0.12361 h 1.46007 l 1.04223,-1.68406 c 0.66943,-1.08161 0.57676,-1.94927 -0.27829,-2.60264 0.98409,0.42578 1.79863,0.11777 2.44423,-0.9254 l 0.92536,-1.49476 c 0.24187,-0.39077 0.51622,-0.65135 0.82353,-0.78209 0.0236,-0.0102 0.0476,-0.0191 0.0717,-0.0279 0.43243,-0.15325 0.92783,-0.0572 1.48571,0.28811 l 0.37781,0.23453 0.55579,-0.89819 -0.47435,-0.29338 c -0.44891,-0.27783 -0.86423,-0.45798 -1.2451,-0.53999 -0.18701,-0.0419 -0.36705,-0.0626 -0.54148,-0.0626 z m 5.1984,2.71428 -0.55583,0.89746 0.38463,0.23832 c 0.97898,0.6059 1.16548,1.39814 0.55957,2.37715 l -0.90876,1.46914 c -0.24411,0.39443 -0.3589,0.75336 -0.39971,1.09204 h 1.26777 c 0.0552,-0.14642 0.10901,-0.29261 0.20434,-0.44645 l 0.91706,-1.48122 c 0.4864,-0.78665 0.64865,-1.49704 0.48494,-2.13052 -0.1611,-0.63779 -0.65453,-1.21186 -1.47965,-1.72257 z m 11.78517,0.28355 c -0.0317,0 -0.0639,0.001 -0.0957,0.006 -0.12726,0.0147 -0.25115,0.0543 -0.37254,0.11836 -0.11442,0.0633 -0.21357,0.14777 -0.2979,0.25416 -0.0844,0.10639 -0.14477,0.2226 -0.18024,0.3484 -0.0321,0.12887 -0.0397,0.25679 -0.025,0.3839 0.0178,0.12318 0.0581,0.2423 0.12142,0.35672 0.0601,0.11836 0.14535,0.22103 0.25565,0.30844 0.10639,0.0844 0.22408,0.14259 0.35292,0.17423 0.1258,0.0353 0.24871,0.0455 0.36879,0.0324 0.12711,-0.0147 0.2476,-0.0536 0.362,-0.1169 0.11821,-0.0603 0.21959,-0.14331 0.30393,-0.24965 0.0844,-0.10639 0.14258,-0.2241 0.17422,-0.35296 0.0391,-0.12975 0.0509,-0.25826 0.0362,-0.38538 -0.0102,-0.12405 -0.0476,-0.24306 -0.11091,-0.35748 -0.0601,-0.11821 -0.14404,-0.2196 -0.25036,-0.30392 -0.11033,-0.0876 -0.2301,-0.14708 -0.35898,-0.17875 -0.0944,-0.026 -0.18839,-0.0393 -0.28357,-0.0377 z m 9.13508,2.15017 c -0.0722,0.001 -0.1455,0.004 -0.21943,0.0102 -0.29357,0.0197 -0.59753,0.0828 -0.91103,0.18933 -0.31107,0.10216 -0.61738,0.25849 -0.92007,0.46908 -0.30465,0.20376 -0.60213,0.4666 -0.89215,0.78811 -0.28763,0.31714 -0.5561,0.69675 -0.80469,1.13957 l -0.0995,0.17796 1.02564,0.57547 0.0928,-0.16441 c 0.21661,-0.38584 0.45946,-0.71652 0.72928,-0.99177 0.27226,-0.27959 0.56039,-0.48964 0.86426,-0.63049 0.30389,-0.14083 0.61746,-0.20634 0.9412,-0.19757 0.32372,0.009 0.64602,0.10318 0.96605,0.2828 0.18851,0.10582 0.34574,0.22536 0.47211,0.35977 0.122,0.13193 0.20523,0.28231 0.24887,0.45097 0.0436,0.16867 0.0432,0.35918 -7.3e-4,0.5709 -0.0372,0.17988 -0.13339,0.39007 -0.24737,0.61014 h 1.16141 c 0.27585,-0.66744 0.36249,-1.26997 0.23681,-1.7987 -0.14681,-0.60135 -0.57488,-1.10136 -1.28511,-1.50008 -0.2192,-0.12304 -0.46266,-0.2137 -0.73002,-0.27149 -0.20199,-0.0485 -0.41119,-0.0715 -0.62823,-0.0701 z m 28.01918,0.6584 c -0.17068,0.004 -0.33659,0.0267 -0.49777,0.0693 -0.31832,0.0822 -0.60018,0.21951 -0.84615,0.41104 -0.30149,0.23473 -0.51332,0.49823 -0.63576,0.79113 -0.12244,0.29284 -0.18966,0.59981 -0.20132,0.92084 -0.003,0.25613 0.0407,0.52223 0.0905,0.78962 h 1.31299 c -0.0438,-0.24963 -0.0676,-0.48028 -0.052,-0.67347 0.0334,-0.32543 0.18626,-0.59456 0.46003,-0.80771 0.22013,-0.17138 0.45972,-0.25633 0.7187,-0.25342 0.0863,8.9e-4 0.17484,0.0117 0.26546,0.0317 0.36956,0.0819 0.76945,0.35405 1.19913,0.81598 l -1.52645,0.88692 h 2.16066 l 0.0257,-0.015 c 0.003,0.006 0.006,0.0102 0.009,0.015 h 1.30241 c -0.11238,-0.19782 -0.22717,-0.39351 -0.3484,-0.58449 l 1.28055,-0.74888 -0.67195,-0.8628 -1.24664,0.73156 c -0.0477,-0.0553 -0.0954,-0.10873 -0.14331,-0.16064 -0.33479,-0.36378 -0.67098,-0.64864 -1.00908,-0.85372 -0.38246,-0.2375 -0.75565,-0.38941 -1.11993,-0.45625 -0.18011,-0.035 -0.35576,-0.0512 -0.5264,-0.0467 z" />
  </g>
</svg>
