<?xml version="1.0" encoding="utf-8"?>
<svg id="master-artboard" version="1.1" x="0px" style="enable-background:new 0 0 1400 980;" height="800px" width="800px" viewBox="0 0 800 800" xmlns="http://www.w3.org/2000/svg"><rect id="ee-background" x="0" y="0" width="800" height="800" style="fill: rgb(78, 135, 140); fill-opacity: 0; pointer-events: none;"/>
  
  
  <g transform="matrix(7.999999999999999, 0, 0, 7.999999999999999, -4816.222626831122, -366.94395998334073)"><g id="g-1" transform="matrix(1, 0, 0, 1, 0, 0)">
	<g id="g-2">
		<path class="st0" d="M652,46c27.6,0,50,22.4,50,50s-22.4,50-50,50s-50-22.4-50-50S624.4,46,652,46z" style="fill: rgb(78, 135, 140);"/>
	</g>
</g></g><path id="path91209" style="color: rgb(0, 0, 0); fill: rgb(147, 229, 171); fill-opacity: 1; stroke-width: 1.70249;" d="m 106.5979,34.74346 v 0 c -0.1519,2e-4 -0.3054,0.012 -0.4584,0.034 -0.016,0 -0.032,-2e-4 -0.048,0.01 -0.1467,0.023 -0.2933,0.057 -0.4382,0.1029 -0.012,0 -0.025,0.01 -0.037,0.012 -0.1431,0.047 -0.284,0.1082 -0.4228,0.1804 -0.02,0.01 -0.039,0.02 -0.059,0.031 -0.1354,0.075 -0.2677,0.1618 -0.3963,0.263 -0.01,0.01 -0.018,0.011 -0.026,0.018 a 1.7026604,1.7026604 0 0 0 -5e-4,0.001 c -0.4897,0.3943 -0.9594,0.7903 -1.4098,1.1896 -0.016,0.014 -0.032,0.028 -0.048,0.041 -0.394,0.3508 -0.7681,0.7057 -1.1286,1.063 -0.088,0.087 -0.1771,0.1741 -0.263,0.2614 -0.3314,0.3383 -0.6483,0.6794 -0.9467,1.0258 -1.3907,1.6085 -2.412,3.3176 -2.9322,5.2338 -0.017,0.063 -0.033,0.1261 -0.049,0.1891 -0.045,0.1767 -0.086,0.3547 -0.1224,0.5349 -0.036,0.176 -0.068,0.3529 -0.096,0.5323 h -10e-4 c -0.01,0.066 -0.018,0.1318 -0.026,0.1979 -0.03,0.2245 -0.054,0.451 -0.071,0.6811 -4e-4,0 -10e-4,0.01 0,0.013 -10e-4,0.01 -3e-4,0.022 -10e-4,0.032 -0.019,0.27 -0.03,0.5436 -0.03,0.8217 0,0.1847 0.01,0.3659 0.01,0.5452 0,0.081 0,0.1775 0,0.2501 a 1.7026604,1.7026604 0 0 0 5e-4,0.01 c 0.01,0.1546 0.022,0.3037 0.034,0.4548 0.038,0.4799 0.1026,0.9437 0.1969,1.3921 0.014,0.066 0.027,0.1317 0.041,0.1969 0.022,0.096 0.045,0.1913 0.07,0.2858 0.045,0.1726 0.095,0.3428 0.1488,0.5111 0.01,0.032 0.021,0.063 0.032,0.094 0.2563,0.768 0.6122,1.4937 1.092,2.1926 0.069,0.1005 0.1406,0.2 0.2134,0.2998 0,0 0,0.01 0.01,0.01 v 0 c 0,0 0,0.01 0.01,0.01 0.2736,0.3732 0.5809,0.745 0.9141,1.1235 0.042,0.047 0.087,0.096 0.1302,0.1441 0.3429,0.3824 0.7164,0.7767 1.1292,1.1907 0.026,0.026 0.055,0.054 0.081,0.08 0.4272,0.4265 0.8937,0.879 1.404,1.3652 0,0 0,-10e-5 0.01,0.01 0.5373,0.5123 1.123,1.0653 1.7637,1.6727 0.01,0 0.01,0.01 0.014,0.011 0.1138,0.1061 0.2342,0.2003 0.3607,0.2816 0,0 0.01,-2e-4 0.011,0.01 0.01,0.01 0.018,0.01 0.026,0.015 0.1196,0.074 0.2444,0.1371 0.3721,0.1892 0.024,0.01 0.047,0.018 0.071,0.027 0.1295,0.048 0.2616,0.087 0.3958,0.1137 0,9e-4 0.01,0 0.01,0 h 0.027 c 0.1442,0.026 0.2897,0.04 0.4357,0.041 h 0.01 v 0 c 0.6176,-9e-4 1.2353,-0.2299 1.7203,-0.6898 0.684,-0.6485 1.3011,-1.2312 1.8676,-1.7725 0.5351,-0.5114 1.0215,-0.9841 1.4639,-1.4309 0.05,-0.051 0.099,-0.1018 0.1489,-0.152 0.3941,-0.402 0.7552,-0.7885 1.0831,-1.1637 0.091,-0.1043 0.1819,-0.2099 0.2682,-0.3132 0.078,-0.094 0.1559,-0.1879 0.2305,-0.2811 0.081,-0.1018 0.1607,-0.2041 0.2377,-0.3059 0.045,-0.059 0.094,-0.1177 0.137,-0.1768 0.064,-0.087 0.125,-0.175 0.1855,-0.263 0.011,-0.015 0.023,-0.03 0.034,-0.046 0.014,-0.02 0.024,-0.041 0.038,-0.061 0.1008,-0.151 0.1963,-0.304 0.2868,-0.4578 0.058,-0.098 0.1138,-0.1966 0.1674,-0.2956 0.073,-0.1354 0.1427,-0.271 0.2083,-0.4088 0,-0.01 0.01,-0.019 0.014,-0.028 0.033,-0.07 0.064,-0.1415 0.095,-0.2124 0.073,-0.166 0.1413,-0.334 0.2041,-0.5038 0.015,-0.041 0.029,-0.083 0.044,-0.124 0.3326,-0.9422 0.5128,-1.9453 0.5586,-3.0371 a 1.7026592,1.7026592 0 0 0 0,-5e-4 1.7026592,1.7026592 0 0 0 0,-5e-4 1.7026592,1.7026592 0 0 0 0,-5e-4 1.7026592,1.7026592 0 0 0 0,-5e-4 1.7026592,1.7026592 0 0 0 0,-5e-4 1.7026592,1.7026592 0 0 0 0,-6e-4 1.7026592,1.7026592 0 0 0 0,-5e-4 1.7026592,1.7026592 0 0 0 0,-5e-4 1.7026592,1.7026592 0 0 0 0,-5e-4 1.7026592,1.7026592 0 0 0 0,-5e-4 1.7026592,1.7026592 0 0 0 0,-6e-4 1.7026592,1.7026592 0 0 0 0,-5e-4 1.7026592,1.7026592 0 0 0 0,-5e-4 1.7026592,1.7026592 0 0 0 0,-5e-4 1.7026592,1.7026592 0 0 0 0,-5e-4 1.7026592,1.7026592 0 0 0 0,-5e-4 1.7026592,1.7026592 0 0 0 0,-6e-4 1.7026592,1.7026592 0 0 0 0,-5e-4 1.7026592,1.7026592 0 0 0 0,-5e-4 1.7026592,1.7026592 0 0 0 0,-5e-4 1.7026592,1.7026592 0 0 0 0,-5e-4 c 0.01,-0.1788 0.01,-0.3961 0.011,-0.6124 4e-4,-0.061 0,-0.1196 0,-0.1814 0,-0.035 0,-0.068 0,-0.1028 0,-0.2378 -0.01,-0.4797 -0.026,-0.7085 0,-0.06 -0.01,-0.1187 -0.014,-0.1778 -0.02,-0.2491 -0.048,-0.4946 -0.083,-0.7369 0,-0.02 -0.01,-0.039 -0.01,-0.059 -0.5179,-3.3877 -2.5322,-6.1209 -5.4307,-8.7152 -0.015,-0.013 -0.03,-0.027 -0.045,-0.04 -0.4613,-0.4114 -0.9448,-0.8187 -1.4479,-1.2252 -0.023,-0.019 -0.043,-0.038 -0.066,-0.056 a 1.7026604,1.7026604 0 0 0 0,-5e-4 1.7026604,1.7026604 0 0 0 0,-5e-4 c -0.012,-0.01 -0.024,-0.015 -0.036,-0.024 -0.127,-0.099 -0.2574,-0.1861 -0.3907,-0.2594 -0.016,-0.01 -0.032,-0.017 -0.048,-0.025 -0.1407,-0.074 -0.2833,-0.1348 -0.4284,-0.183 -0.012,0 -0.024,-0.01 -0.037,-0.011 -0.1529,-0.049 -0.3081,-0.085 -0.463,-0.108 h -6e-4 c -0.1608,-0.024 -0.3221,-0.035 -0.4821,-0.035 v 0 z m 0,3.5476 h -6e-4 c 3.1984,2.6204 5.0142,4.7899 5.4839,7.4605 0.049,0.2763 0.082,0.5573 0.1019,0.8455 a 1.7026592,1.7026592 0 0 0 0,0.014 c 0.014,0.1854 0.015,0.5614 0.011,0.8997 0,0.2501 -0.011,0.4836 -0.024,0.6987 -0.029,0.459 -0.075,0.8548 -0.154,1.2045 -0.012,0.052 -0.025,0.1016 -0.038,0.152 -0.035,0.1282 -0.072,0.2539 -0.1173,0.3757 -0.1553,0.4204 -0.3747,0.8154 -0.678,1.2593 -0.01,0.01 -0.013,0.018 -0.02,0.027 -0.1763,0.2559 -0.401,0.537 -0.6625,0.8403 -0.036,0.041 -0.07,0.081 -0.1075,0.1229 -0.184,0.2092 -0.4088,0.4445 -0.6315,0.6786 -0.8294,0.8587 -1.9118,1.89 -3.161,3.0783 -1.6872,-1.6059 -3.0591,-2.9123 -3.9352,-3.915 -0.1493,-0.1752 -0.3006,-0.3515 -0.4196,-0.5095 -0.041,-0.053 -0.079,-0.1043 -0.1163,-0.155 -0.176,-0.2436 -0.3269,-0.471 -0.4532,-0.6915 -0.038,-0.066 -0.074,-0.1323 -0.108,-0.1979 -0.028,-0.055 -0.057,-0.1103 -0.083,-0.1654 -0.022,-0.046 -0.043,-0.093 -0.064,-0.14 -0.045,-0.1044 -0.086,-0.2097 -0.1224,-0.3173 0,-0.014 -0.01,-0.028 -0.015,-0.042 -0.1734,-0.5336 -0.2505,-1.1248 -0.2848,-1.9337 -0.012,-0.3478 -0.011,-1.015 0.01,-1.2712 a 1.7026604,1.7026604 0 0 0 0,-0.011 c 0.04,-0.5786 0.136,-1.1316 0.2894,-1.6666 0.051,-0.1772 0.1082,-0.3523 0.1716,-0.526 8e-4,0 0,-0.01 0,-0.01 0.059,-0.1623 0.1258,-0.3224 0.1963,-0.4821 0.013,-0.029 0.026,-0.058 0.039,-0.087 0.056,-0.1239 0.1173,-0.2468 0.1804,-0.3695 0.01,-0.012 0.011,-0.024 0.018,-0.036 0.02,-0.038 0.042,-0.076 0.062,-0.1142 0.1415,-0.2628 0.3056,-0.5229 0.4785,-0.7823 0.083,-0.1238 0.1694,-0.2479 0.2599,-0.3711 0.09,-0.1241 0.1899,-0.2485 0.2873,-0.3726 0.8977,-1.1299 2.0937,-2.2577 3.6019,-3.4923 z m -22.1176,10.064 v 0 l 0.001,5e-4 c -1.2718,0.01 -2.6022,0.1152 -4.0101,0.2889 a 1.7026592,1.7026592 0 0 0 -0.01,0 c 0,2e-4 0,0 0,0 -1.4244,0.1783 -2.4935,1.1973 -2.5636,2.7104 -0.2343,5.0966 0.5899,9.3849 4.1604,12.4597 1.7221,1.4828 3.3842,2.3768 5.4266,2.6862 2.0423,0.3093 4.3638,0.158 8.0667,-0.014 1.2797,-0.058 2.4079,-1.1405 2.3544,-2.5104 a 1.7026592,1.7026592 0 0 0 0,-5e-4 1.7026592,1.7026592 0 0 0 0,-5e-4 1.7026592,1.7026592 0 0 0 0,-6e-4 1.7026592,1.7026592 0 0 0 0,-5e-4 1.7026592,1.7026592 0 0 0 0,-5e-4 1.7026592,1.7026592 0 0 0 0,-5e-4 c -0.1334,-3.2784 -0.1817,-5.4161 -0.615,-7.2755 -0.4333,-1.8594 -1.3846,-3.3737 -2.8639,-4.7553 a 1.7026592,1.7026592 0 0 0 -0.01,-0.01 c -0.3298,-0.3046 -0.8023,-0.7169 -1.2309,-1.0372 -2.4977,-1.8834 -5.4453,-2.5629 -8.7055,-2.5435 z m 44.2284,10e-4 h 5e-4 c -3.259,-0.019 -6.2058,0.6596 -8.7029,2.5415 -9e-4,4e-4 0,9e-4 0,0 -0.4287,0.3203 -0.8984,0.7345 -1.2283,1.0392 a 1.7026604,1.7026604 0 0 0 -0.01,0.01 c -1.4793,1.3816 -2.4286,2.8953 -2.8619,4.7548 -0.4332,1.8593 -0.4826,3.9972 -0.6159,7.2755 -0.053,1.3694 1.0732,2.4534 2.3523,2.5119 3.7029,0.1715 6.0253,0.3207 8.0677,0.011 2.0423,-0.3093 3.7045,-1.2039 5.4265,-2.6866 3.5706,-3.0748 4.3932,-7.362 4.159,-12.4587 a 1.7026604,1.7026604 0 0 0 0,-5e-4 1.7026604,1.7026604 0 0 0 0,-5e-4 c -0.07,-1.5148 -1.1369,-2.534 -2.5637,-2.7105 a 1.7026604,1.7026604 0 0 0 0,5e-4 c -1.4123,-0.1744 -2.7459,-0.2818 -4.0215,-0.2894 z m -0.019,3.4014 v 0.01 c 0.9698,0.01 2.0597,0.104 3.2049,0.2341 0.1501,4.3852 -0.4385,7.0519 -2.9796,9.2402 -1.4746,1.2698 -2.2566,1.679 -3.7135,1.8996 -1.3059,0.1978 -3.3989,0.1271 -6.4585,-0.011 0.1117,-2.629 0.2124,-4.5055 0.4795,-5.6519 0.3038,-1.3036 0.6901,-1.9347 1.8666,-3.0344 0.2517,-0.2322 0.7485,-0.6586 0.9576,-0.8144 a 1.7026604,1.7026604 0 0 0 0.01,-0.01 c 1.8115,-1.366 3.8315,-1.8739 6.6362,-1.8572 z m -44.188,0.01 c 2.8046,-0.017 4.8257,0.4897 6.6373,1.8557 a 1.7026592,1.7026592 0 0 0 0.01,0.01 c 0.2098,0.1563 0.7109,0.5864 0.9617,0.818 1.1735,1.0975 1.5585,1.7307 1.8619,3.0329 0.2576,1.1055 0.3413,3.1496 0.4486,5.6224 -2.8962,0.128 -5.162,0.2287 -6.427,0.037 -1.4569,-0.2205 -2.24,-0.6289 -3.7145,-1.8986 -2.5317,-2.1802 -3.0899,-4.8882 -2.9461,-9.2438 1.132,-0.1277 2.2121,-0.2238 3.1724,-0.2295 z m 22.212,13.8467 v 0.001 c -0.029,0 -0.059,0.01 -0.088,0.01 -0.049,0 -0.099,-0.01 -0.1483,-0.01 h -5e-4 c -0.684,1e-4 -1.3906,0.1913 -2.0045,0.6853 -4.8635,3.9147 -8.0624,7.9183 -8.0605,13.334 9e-4,2.6269 0.4903,4.7068 1.8221,6.6472 1.3318,1.9404 3.3175,3.7551 6.4337,6.7096 0.5495,0.5222 1.2645,0.7607 1.9663,0.7189 0.6766,0.02 1.3592,-0.2156 1.8883,-0.7178 v 0 c 3.1152,-2.9536 5.1016,-4.7695 6.4332,-6.7096 1.3318,-1.9404 1.8215,-4.0203 1.8226,-6.6472 0,-5.4157 -3.198,-9.4193 -8.0615,-13.334 a 1.7026604,1.7026604 0 0 0 0,-6e-4 c -0.6142,-0.4942 -1.3208,-0.6857 -2.0051,-0.6857 z m 25.9783,3.0138 v 0 c -1.4447,-0.01 -2.8808,0.2357 -4.2814,0.7602 -5e-4,2e-4 -10e-4,5e-4 0,0 -0.5036,0.1861 -1.0709,0.4508 -1.4718,0.6485 a 1.7026604,1.7026604 0 0 0 -0.01,0 c -1.8103,0.9052 -3.1508,2.0866 -4.0938,3.7466 -0.9429,1.66 -1.5962,3.6969 -2.6541,6.8027 -0.4432,1.3009 0.3312,2.6587 1.5421,3.0783 h 0.001 10e-4 c 3.5009,1.2144 5.6864,2.0162 7.7323,2.2985 2.0463,0.2825 3.8932,-0.1048 5.9651,-1.0382 4.296,-1.9355 6.3008,-5.8131 7.522,-10.7667 0.3624,-1.4723 -0.3717,-2.7532 -1.6893,-3.327 -3.0454,-1.3254 -5.8015,-2.1977 -8.5592,-2.2091 z m -52.1942,0.01 c -2.7567,0.012 -5.5121,0.8826 -8.5561,2.2071 a 1.7026592,1.7026592 0 0 0 -0.01,0 c -1.3176,0.5738 -2.0518,1.8562 -1.6893,3.3285 1.2212,4.9536 3.2254,8.8323 7.5215,10.7678 2.0719,0.9334 3.9182,1.3196 5.9645,1.0372 2.0463,-0.2824 4.2332,-1.0868 7.7355,-2.3017 1.2094,-0.4206 1.9848,-1.7761 1.542,-3.0758 -1.0579,-3.1059 -1.7106,-5.1432 -2.6536,-6.8032 -0.9429,-1.66 -2.2855,-2.8418 -4.0959,-3.747 a 1.7026592,1.7026592 0 0 0 -0.01,0 c -0.4014,-0.1979 -0.9687,-0.4624 -1.4727,-0.6486 -1.4014,-0.525 -2.8378,-0.7676 -4.283,-0.7617 z m 26.0888,0.5426 h 5e-4 c 4.1205,3.3605 6.2768,6.108 6.5268,9.7385 a 1.7026592,1.7026592 0 0 0 0,0.01 c 0.024,0.3136 0.025,1.0722 0.011,1.4774 -0.08,1.9085 -0.3832,2.8361 -1.3937,4.2121 -0.9035,1.2303 -2.7225,2.9599 -5.1522,5.2674 -2.4925,-2.3669 -4.2017,-4.0181 -5.1196,-5.2679 -1.0092,-1.3743 -1.3111,-2.3021 -1.3916,-4.2054 -0.014,-0.406 -0.013,-1.1678 0.01,-1.4826 a 1.7026604,1.7026604 0 0 0 0.001,-0.01 c 0.25,-3.6306 2.3875,-6.379 6.5076,-9.7395 z m -26.0723,2.8593 v 0 c 1.0653,-0.01 2.0564,0.1652 3.0722,0.5457 a 1.7026592,1.7026592 0 0 0 0.011,0 c 0.2438,0.09 0.8428,0.3576 1.1508,0.5095 1.4384,0.7201 1.9856,1.2176 2.6463,2.3807 0.5605,0.9866 1.2212,2.924 2.0252,5.2638 -2.7415,0.9446 -4.8838,1.6864 -6.1515,1.8614 -1.4597,0.2014 -2.3257,0.029 -4.1,-0.7705 -3.0335,-1.3667 -4.3346,-3.7997 -5.4297,-7.984 2.6164,-1.0993 4.8668,-1.8013 6.7758,-1.8092 z m 52.1643,0 c 1.9309,0.01 4.1663,0.6598 6.8228,1.7833 -1.0999,4.2449 -2.4201,6.6343 -5.4766,8.0114 -1.7744,0.7993 -2.641,0.9698 -4.1006,0.7684 -1.3085,-0.1806 -3.296,-0.8423 -6.1913,-1.8422 0.8531,-2.4899 1.4825,-4.2593 2.0639,-5.2829 0.6605,-1.1627 1.2101,-1.659 2.6474,-2.3787 v 0 c 0.3089,-0.1521 0.9052,-0.42 1.1483,-0.5095 a 1.7026604,1.7026604 0 0 0 0.01,0 c 1.0158,-0.3806 2.0091,-0.5491 3.0742,-0.5447 z m -57.8874,18.4288 -0.083,0.073 c -5.7412,0.1827 -11.291,2.5386 -15.4456,6.4409 h -0.01 c -8.1882,7.5854 -9.2754,20.9351 -2.9099,29.9594 10e-4,0 0,0.01 0,0.01 v 0 c 0.3425,0.4911 0.7586,0.9162 1.14,1.3736 l -0.1256,0.1266 15.7892,15.7892 -0.1881,0.1876 31.7603,31.3847 1.1095,1.1095 0.01,-0.01 32.643,-32.6424 v 0 l 15.8208,-15.8223 -0.123,-0.123 c 0.3819,-0.458 0.798,-0.8843 1.141,-1.3762 v 0 c 6.3703,-9.0244 5.2843,-22.379 -2.9058,-29.9661 h -0.01 c -4.1546,-3.9023 -9.707,-6.2582 -15.4481,-6.4409 l -0.084,-0.073 h -0.6413 c -0.395,4e-4 -0.7842,0.016 -1.1736,0.037 -6.51,0.2126 -12.5202,3.631 -16.5442,8.4408 l -12.6876,12.684 -0.1303,-0.1302 c -3.5567,-3.5572 -5.5374,-5.5388 -12.5542,-12.5548 -4.0241,-4.8093 -10.0342,-8.2272 -16.5437,-8.4398 -0.3897,-0.021 -0.7828,-0.036 -1.1772,-0.037 z m 0.6376,3.4024 h 0.001 c 0.3354,5e-4 0.6735,0.01 1.0144,0.03 h 0.02 0.02 c 5.4041,0.1718 10.6566,3.1216 14.1149,7.2895 l 0.051,0.06 0.056,0.056 c 12.7923,12.7907 16.3949,16.3971 22.8317,22.8347 -3.2921,2.5336 -8.072,4.3527 -11.5688,3.4174 v 0 c -2.2801,-0.6136 -4.3371,-1.8664 -5.9288,-3.6106 l -1.201,-1.3173 -19.2665,19.2056 -13.6224,-13.6224 -0.938,-0.9643 c -0.6856,-0.705 -1.313,-1.4565 -1.8686,-2.2542 v 0 -0.01 c -5.3374,-7.5579 -4.3745,-19.2056 2.4443,-25.5137 v 0 l 0.01,-0.01 c 3.7103,-3.4872 8.7806,-5.5997 13.8425,-5.5924 z m 60.8227,0 c 5.0619,-0.01 10.1323,2.1059 13.8426,5.593 v 0.01 0 c 6.8188,6.308 7.7812,17.9559 2.4438,25.5137 v 0.01 0 c -0.5556,0.7977 -1.1804,1.5486 -1.8661,2.2536 l -0.8175,0.8424 -13.7738,13.7728 -2.4097,2.4096 -27.8319,27.8319 -5.6229,-5.6224 10.0123,-10.0128 -2.4071,-2.4071 -10.0129,10.0118 -4.8891,-4.8886 10.1033,-10.1012 -2.4076,-2.4071 -10.1038,10.1002 -5.1511,-5.1511 10.1942,-10.1958 -2.4081,-2.4081 -10.1947,10.1948 -4.9754,-4.975 16.9224,-16.8671 c 1.8049,1.5742 3.8574,2.8457 6.1852,3.4716 5.7436,1.5391 12.3799,-1.2175 16.3664,-5.2043 l 1.2036,-1.2036 c -3.2831,-3.2831 -7.6569,-7.6565 -10.4077,-10.4076 l 12.7822,-12.7822 0.053,-0.06 c 3.4583,-4.1679 8.7083,-7.1172 14.1124,-7.289 h 0.023 0.021 c 0.3412,-0.019 0.6795,-0.03 1.0144,-0.031 z" transform="matrix(5.124518394470216, 0, 0, 5.124518394470216, -151.10110660638588, -142.17783744640786)"/>
</svg>