<?xml version="1.0" encoding="UTF-8" standalone="no"?>
<!DOCTYPE svg PUBLIC "-//W3C//DTD SVG 1.1//EN" "http://www.w3.org/Graphics/SVG/1.1/DTD/svg11.dtd">
<svg width="100%" height="100%" viewBox="0 0 3508 2481" version="1.1" xmlns="http://www.w3.org/2000/svg" xmlns:xlink="http://www.w3.org/1999/xlink" xml:space="preserve" xmlns:serif="http://www.serif.com/" style="fill-rule:evenodd;clip-rule:evenodd;stroke-linejoin:round;stroke-miterlimit:2;">
    <g transform="matrix(1.02522,0,0,1.03352,-47.3568,-24.7065)">
        <g id="Layer3">
            <rect x="3.344" y="3.462" width="3500.83" height="2471.18" style="fill:rgba(0,0,0,0);"/>
        </g>
    </g>
    <g id="Layer1" transform="matrix(1,0,0,1,1456.22,819.197)">
        <g transform="matrix(2.85316e-16,4.65957,-4.65957,2.85316e-16,4145.92,-904.61)">
            <path d="M264.934,636.008C264.934,636.008 252.319,642.287 238.77,636.114C242.059,634.459 243.979,633.705 243.979,633.705C243.979,633.705 236.72,634.941 232.634,630.497C234.111,628.949 234.654,628.45 237.023,627.873C233.217,627.323 231.127,627.877 227.983,623.155C231.159,621.574 231.446,621.964 231.446,621.964C231.446,621.964 226.279,620.027 225.017,613.399C229.349,612.248 231.007,612.048 233.701,613.638C232.109,610.438 232.759,609.41 232.759,609.41C232.759,609.41 239.251,610.041 241.636,612.452C239.175,608.043 240.716,608.327 240.716,608.327C240.716,608.327 251.357,609.059 254.164,614.761C252.355,610.361 255.119,611.09 255.119,611.09C255.119,611.09 269.081,621.429 265.661,634.194C257.619,631.873 250.181,627.087 242.945,621.476C248.417,626.613 254.258,631.247 264.934,636.008Z" style="fill:rgb(145,158,94);"/>
        </g>
        <g transform="matrix(2.85316e-16,4.65957,-4.65957,2.85316e-16,3205.15,-904.61)">
            <path d="M389.469,506.642C389.469,506.642 403.502,505.352 413.899,516.009C410.235,516.361 408.172,516.37 408.172,516.37C408.172,516.37 415.386,517.844 417.587,523.465C415.651,524.374 414.963,524.643 412.547,524.323C415.896,526.213 418.045,526.453 419.267,531.992C415.734,532.317 415.608,531.85 415.608,531.85C415.608,531.85 419.724,535.525 418.503,542.161C414.047,541.666 412.43,541.253 410.493,538.796C410.819,542.355 409.841,543.078 409.841,543.078C409.841,543.078 404.018,540.141 402.667,537.031C403.365,542.032 402.032,541.209 402.032,541.209C402.032,541.209 392.377,536.677 391.822,530.346C391.918,535.103 389.604,533.423 389.604,533.423C389.604,533.423 380.328,518.733 388.136,508.069C394.792,513.143 399.995,520.295 404.711,528.145C401.468,521.376 397.7,514.943 389.469,506.642Z" style="fill:rgb(145,158,94);"/>
        </g>
        <g transform="matrix(2.85316e-16,4.65957,-4.65957,2.85316e-16,4021.01,-904.61)">
            <path d="M335.863,622.883C335.863,622.883 334.184,608.892 344.549,598.203C345.003,601.856 345.069,603.918 345.069,603.918C345.069,603.918 346.342,596.666 351.9,594.309C352.862,596.22 353.15,596.9 352.898,599.324C354.694,595.924 354.874,593.769 360.378,592.394C360.801,595.917 360.337,596.056 360.337,596.056C360.337,596.056 363.897,591.839 370.563,592.876C370.192,597.343 369.824,598.972 367.422,600.976C370.97,600.551 371.721,601.509 371.721,601.509C371.721,601.509 368.946,607.411 365.875,608.848C370.854,608.011 370.069,609.367 370.069,609.367C370.069,609.367 365.806,619.144 359.493,619.874C364.245,619.647 362.63,622.006 362.63,622.006C362.63,622.006 348.203,631.685 337.327,624.176C342.214,617.382 349.219,611.982 356.935,607.051C350.258,610.48 343.933,614.425 335.863,622.883Z" style="fill:rgb(145,158,94);"/>
        </g>
        <g transform="matrix(2.85316e-16,4.65957,-4.65957,2.85316e-16,4667.7,-904.61)">
            <path d="M384.355,695.469C384.355,695.469 380.406,681.942 388.879,669.699C389.926,673.228 390.329,675.251 390.329,675.251C390.329,675.251 390.396,667.889 395.493,664.653C396.755,666.38 397.15,667.004 397.299,669.436C398.513,665.788 398.338,663.633 403.542,661.374C404.536,664.78 404.101,664.993 404.101,664.993C404.101,664.993 406.922,660.25 413.669,660.181C414.035,664.648 413.938,666.315 411.897,668.686C415.328,667.685 416.225,668.507 416.225,668.507C416.225,668.507 414.456,674.784 411.661,676.705C416.436,675.063 415.883,676.53 415.883,676.53C415.883,676.53 413.28,686.873 407.172,688.627C411.823,687.625 410.616,690.217 410.616,690.217C410.616,690.217 397.971,702.129 386.011,696.505C389.719,689.001 395.745,682.527 402.548,676.398C396.523,680.874 390.93,685.803 384.355,695.469Z" style="fill:rgb(145,158,94);"/>
        </g>
        <g transform="matrix(2.85316e-16,4.65957,-4.65957,2.85316e-16,3543.35,-904.61)">
            <path d="M308.821,562.696C308.821,562.696 300.799,574.282 285.954,575.409C288.036,572.374 289.354,570.786 289.354,570.786C289.354,570.786 283.592,575.371 277.869,573.449C278.416,571.381 278.651,570.681 280.448,569.034C276.848,570.388 275.285,571.881 270.253,569.261C272.273,566.344 272.712,566.547 272.712,566.547C272.712,566.547 267.252,567.343 262.949,562.146C266.189,559.048 267.544,558.073 270.671,558.166C267.734,556.131 267.807,554.917 267.807,554.917C267.807,554.917 273.798,552.339 277.05,553.3C272.768,550.624 274.255,550.13 274.255,550.13C274.255,550.13 283.928,545.639 289.138,549.279C285.43,546.298 288.204,545.603 288.204,545.603C288.204,545.603 305.421,547.924 308.583,560.757C300.419,562.602 291.595,561.998 282.55,560.573C289.821,562.434 297.172,563.675 308.821,562.696Z" style="fill:rgb(145,158,94);"/>
        </g>
        <g transform="matrix(2.85316e-16,4.65957,-4.65957,2.85316e-16,351.794,-904.61)">
            <path d="M251.891,200.151C251.891,200.151 258.168,212.767 251.993,226.314C250.339,223.026 249.584,221.106 249.584,221.106C249.584,221.106 250.82,228.364 246.375,232.45C244.827,230.973 244.328,230.429 243.752,228.061C243.201,231.866 243.755,233.957 239.032,237.1C237.452,233.923 237.842,233.636 237.842,233.636C237.842,233.636 235.904,238.803 229.276,240.064C228.126,235.732 227.926,234.074 229.516,231.38C226.316,232.971 225.288,232.321 225.288,232.321C225.288,232.321 225.92,225.83 228.331,223.445C223.922,225.905 224.206,224.364 224.206,224.364C224.206,224.364 224.94,213.724 230.642,210.917C226.242,212.726 226.971,209.962 226.971,209.962C226.971,209.962 237.312,196.001 250.077,199.424C247.755,207.465 242.968,214.902 237.355,222.137C242.494,216.666 247.128,210.826 251.891,200.151Z" style="fill:rgb(145,158,94);"/>
        </g>
        <g transform="matrix(2.85316e-16,4.65957,-4.65957,2.85316e-16,2212.74,-904.61)">
            <path d="M203.879,420.458C203.879,420.458 195.586,431.851 180.718,432.628C182.871,429.643 184.226,428.087 184.226,428.087C184.226,428.087 178.358,432.534 172.682,430.478C173.277,428.423 173.529,427.729 175.364,426.125C171.734,427.394 170.135,428.85 165.167,426.112C167.255,423.243 167.689,423.457 167.689,423.457C167.689,423.457 162.211,424.123 158.033,418.826C161.345,415.806 162.723,414.863 165.847,415.03C162.958,412.926 163.06,411.714 163.06,411.714C163.06,411.714 169.109,409.278 172.338,410.315C168.12,407.539 169.619,407.08 169.619,407.08C169.619,407.08 179.395,402.819 184.518,406.58C180.882,403.513 183.67,402.883 183.67,402.883C183.67,402.883 200.828,405.611 203.686,418.514C195.481,420.166 186.674,419.354 177.665,417.716C184.89,419.748 192.21,421.162 203.879,420.458Z" style="fill:rgb(145,158,94);"/>
        </g>
        <g transform="matrix(2.85316e-16,4.65957,-4.65957,2.85316e-16,3805.49,-904.61)">
            <path d="M268.784,582.913C268.784,582.913 266.651,596.842 253.801,604.362C254.343,600.721 254.832,598.717 254.832,598.717C254.832,598.717 251.662,605.363 245.676,606.144C245.261,604.045 245.166,603.313 246.059,601.045C243.417,603.839 242.665,605.867 236.995,605.717C237.532,602.21 238.016,602.2 238.016,602.2C238.016,602.2 233.456,605.308 227.311,602.523C228.866,598.319 229.657,596.849 232.508,595.561C228.976,595.02 228.509,593.896 228.509,593.896C228.509,593.896 232.764,588.953 236.109,588.392C231.087,587.864 232.207,586.768 232.207,586.768C232.207,586.768 238.934,578.491 245.212,579.48C240.573,578.425 242.761,576.585 242.761,576.585C242.761,576.585 259.254,571.126 267.72,581.275C261.191,586.511 252.995,589.835 244.24,592.519C251.591,591.004 258.743,588.899 268.784,582.913Z" style="fill:rgb(145,158,94);"/>
        </g>
        <g transform="matrix(2.85316e-16,4.65957,-4.65957,2.85316e-16,4600.76,-904.61)">
            <path d="M238.945,695.733C238.945,695.733 248.313,684.31 245.56,669.427C243.1,672.401 241.874,674.18 241.874,674.18C241.874,674.18 244.906,667.127 241.515,662.116C239.612,663.288 238.981,663.734 237.821,666C238.222,662.059 239.291,660.068 235.389,655.949C233.03,658.825 233.346,659.193 233.346,659.193C233.346,659.193 232.71,653.601 226.45,650.99C224.23,655.116 223.619,656.743 224.526,659.776C221.748,657.527 220.566,657.973 220.566,657.973C220.566,657.973 219.577,664.633 221.375,667.521C217.614,664.152 217.512,665.761 217.512,665.761C217.512,665.761 215.591,676.615 220.548,680.595C216.634,677.883 216.67,680.813 216.67,680.813C216.67,680.813 223.451,696.955 236.965,696.097C236.663,687.536 233.767,679.082 230.001,670.665C233.735,677.211 236.878,684.026 238.945,695.733Z" style="fill:rgb(145,158,94);"/>
        </g>
        <g transform="matrix(2.85316e-16,4.65957,-4.65957,2.85316e-16,4562.5,-904.61)">
            <path d="M165.698,691.628C165.698,691.628 175.065,680.205 172.312,665.322C169.853,668.296 168.627,670.075 168.627,670.075C168.627,670.075 171.659,663.022 168.268,658.01C166.365,659.183 165.734,659.629 164.573,661.895C164.974,657.954 166.043,655.963 162.142,651.844C159.783,654.72 160.099,655.087 160.099,655.087C160.099,655.087 159.462,649.496 153.202,646.884C150.983,651.011 150.372,652.638 151.279,655.671C148.501,653.422 147.319,653.867 147.319,653.867C147.319,653.867 146.33,660.527 148.128,663.416C144.366,660.047 144.265,661.655 144.265,661.655C144.265,661.655 142.344,672.51 147.301,676.49C143.387,673.778 143.422,676.707 143.422,676.707C143.422,676.707 150.204,692.85 163.718,691.992C163.416,683.43 160.52,674.977 156.753,666.56C160.488,673.106 163.631,679.921 165.698,691.628Z" style="fill:rgb(145,158,94);"/>
        </g>
        <g transform="matrix(2.85316e-16,4.65957,-4.65957,2.85316e-16,3943.55,-904.61)">
            <path d="M150.557,615.306C150.557,615.306 152.643,600.681 142.571,589.384C142.011,593.202 141.885,595.359 141.885,595.359C141.885,595.359 140.82,587.755 135.321,585.229C134.302,587.219 133.994,587.927 134.177,590.467C132.476,586.889 132.358,584.632 126.886,583.133C126.36,586.816 126.821,586.966 126.821,586.966C126.821,586.966 123.377,582.515 116.67,583.529C116.913,588.208 117.234,589.916 119.582,592.039C116.04,591.556 115.261,592.55 115.261,592.55C115.261,592.55 117.869,598.758 120.904,600.295C115.941,599.365 116.689,600.793 116.689,600.793C116.689,600.793 120.675,611.07 126.977,611.902C122.224,611.614 123.773,614.1 123.773,614.1C123.773,614.1 137.943,624.385 149.053,616.644C144.355,609.48 137.495,603.754 129.91,598.51C136.498,602.171 142.719,606.368 150.557,615.306Z" style="fill:rgb(145,158,94);"/>
        </g>
        <g transform="matrix(2.85316e-16,4.65957,-4.65957,2.85316e-16,2054,-904.61)">
            <path d="M153.181,412.545C153.181,412.545 155.266,397.921 145.195,386.623C144.634,390.441 144.508,392.598 144.508,392.598C144.508,392.598 143.443,384.995 137.945,382.469C136.926,384.458 136.618,385.167 136.8,387.706C135.1,384.128 134.981,381.871 129.509,380.373C128.984,384.055 129.444,384.206 129.444,384.206C129.444,384.206 126.001,379.755 119.294,380.768C119.536,385.447 119.858,387.155 122.205,389.279C118.664,388.796 117.885,389.79 117.885,389.79C117.885,389.79 120.493,395.997 123.528,397.535C118.564,396.605 119.312,398.032 119.312,398.032C119.312,398.032 123.299,408.31 129.6,409.142C124.847,408.853 126.397,411.34 126.397,411.34C126.397,411.34 140.567,421.625 151.677,413.883C146.979,406.72 140.118,400.994 132.533,395.75C139.121,399.41 145.343,403.607 153.181,412.545Z" style="fill:rgb(145,158,94);"/>
        </g>
        <g transform="matrix(2.85316e-16,4.65957,-4.65957,2.85316e-16,953.578,-904.61)">
            <path d="M151.041,283.964C151.041,283.964 144.545,270.696 129.865,267.014C131.547,270.486 132.656,272.341 132.656,272.341C132.656,272.341 127.501,266.651 121.533,267.653C121.809,269.871 121.952,270.63 123.531,272.628C120.113,270.625 118.747,268.825 113.378,270.661C115.014,274.002 115.479,273.868 115.479,273.868C115.479,273.868 110.129,272.122 105.152,276.73C107.982,280.464 109.208,281.696 112.344,282.132C109.143,283.724 109.058,284.984 109.058,284.984C109.058,284.984 114.704,288.652 118.078,288.217C113.45,290.238 114.871,290.999 114.871,290.999C114.871,290.999 123.945,297.258 129.625,294.404C125.532,296.837 128.211,298.022 128.211,298.022C128.211,298.022 145.712,298.564 150.549,285.916C142.637,282.632 133.744,281.752 124.523,281.679C132.029,281.003 139.534,280.977 151.041,283.964Z" style="fill:rgb(145,158,94);"/>
        </g>
        <g transform="matrix(2.85316e-16,4.65957,-4.65957,2.85316e-16,297.203,-904.61)">
            <path d="M277.965,189.08C277.965,189.08 265.032,196.22 262.076,211.064C265.462,209.212 267.26,208.014 267.26,208.014C267.26,208.014 261.831,213.442 263.125,219.354C265.326,218.969 266.077,218.789 267.995,217.114C266.163,220.626 264.432,222.079 266.53,227.351C269.786,225.553 269.629,225.095 269.629,225.095C269.629,225.095 268.149,230.524 272.996,235.269C276.586,232.258 277.757,230.973 278.038,227.82C279.785,230.938 281.048,230.962 281.048,230.962C281.048,230.962 284.434,225.142 283.834,221.793C286.08,226.316 286.77,224.859 286.77,224.859C286.77,224.859 292.575,215.488 289.445,209.956C292.076,213.925 293.129,211.191 293.129,211.191C293.129,211.191 292.809,193.684 279.939,189.475C277.048,197.539 276.607,206.464 276.987,215.677C275.943,208.214 275.548,200.719 277.965,189.08Z" style="fill:rgb(145,158,94);"/>
        </g>
        <g transform="matrix(2.85316e-16,4.65957,-4.65957,2.85316e-16,-49.8841,-904.61)">
            <path d="M255.75,156.605C255.75,156.605 240.992,155.935 230.715,167.046C234.57,167.237 236.729,167.155 236.729,167.155C236.729,167.155 229.263,168.946 227.277,174.662C229.356,175.485 230.09,175.723 232.601,175.297C229.203,177.334 226.968,177.669 226.002,183.26C229.718,183.429 229.823,182.956 229.823,182.956C229.823,182.956 225.724,186.812 227.378,193.39C232.012,192.699 233.681,192.215 235.569,189.673C235.429,193.245 236.493,193.925 236.493,193.925C236.493,193.925 242.421,190.733 243.659,187.564C243.211,192.593 244.56,191.712 244.56,191.712C244.56,191.712 254.407,186.756 254.629,180.403C254.799,185.162 257.125,183.38 257.125,183.38C257.125,183.38 266,168.287 257.226,157.973C250.547,163.338 245.508,170.717 241.017,178.771C244.027,171.862 247.607,165.266 255.75,156.605Z" style="fill:rgb(145,158,94);"/>
        </g>
        <g transform="matrix(2.85316e-16,4.65957,-4.65957,2.85316e-16,161.148,-904.61)">
            <path d="M156.871,177.43C156.871,177.43 142.159,178.766 133.483,191.167C137.327,190.834 139.455,190.46 139.455,190.46C139.455,190.46 132.301,193.246 131.108,199.179C133.279,199.713 134.039,199.849 136.468,199.087C133.378,201.565 131.209,202.2 131.01,207.87C134.714,207.534 134.754,207.051 134.754,207.051C134.754,207.051 131.215,211.427 133.745,217.72C138.243,216.408 139.831,215.702 141.357,212.928C141.702,216.486 142.849,217.016 142.849,217.016C142.849,217.016 148.289,213.049 149.087,209.742C149.324,214.786 150.542,213.73 150.542,213.73C150.542,213.73 159.626,207.485 158.986,201.161C159.798,205.853 161.861,203.773 161.861,203.773C161.861,203.773 168.61,187.617 158.52,178.586C152.629,184.806 148.636,192.8 145.278,201.389C147.324,194.135 149.977,187.115 156.871,177.43Z" style="fill:rgb(145,158,94);"/>
        </g>
        <g transform="matrix(2.85316e-16,4.65957,-4.65957,2.85316e-16,129.663,-904.61)">
            <path d="M120.29,188.917C120.29,188.917 109.961,178.355 94.866,179.463C97.553,182.233 99.188,183.646 99.188,183.646C99.188,183.646 92.508,179.86 87.156,182.683C88.113,184.702 88.487,185.378 90.613,186.78C86.74,185.95 84.877,184.669 80.356,188.097C82.956,190.756 83.356,190.482 83.356,190.482C83.356,190.482 77.729,190.503 74.448,196.439C78.306,199.097 79.857,199.882 82.971,199.313C80.431,201.828 80.745,203.052 80.745,203.052C80.745,203.052 87.256,204.764 90.324,203.293C86.564,206.663 88.152,206.94 88.152,206.94C88.152,206.94 98.731,210.038 103.229,205.546C100.105,209.14 103.021,209.425 103.021,209.425C103.021,209.425 119.808,204.451 120.435,190.924C111.892,190.287 103.173,192.241 94.394,195.063C101.309,192.068 108.427,189.69 120.29,188.917Z" style="fill:rgb(145,158,94);"/>
        </g>
        <g transform="matrix(2.85316e-16,4.65957,-4.65957,2.85316e-16,4792.3,-904.61)">
            <path d="M330.593,714.577C330.593,714.577 345.315,713.36 354.091,701.028C350.244,701.331 348.113,701.687 348.113,701.687C348.113,701.687 355.289,698.959 356.53,693.036C354.364,692.485 353.605,692.342 351.169,693.085C354.279,690.631 356.454,690.014 356.698,684.346C352.991,684.652 352.947,685.135 352.947,685.135C352.947,685.135 356.521,680.788 354.042,674.474C349.534,675.75 347.94,676.444 346.392,679.205C346.075,675.644 344.933,675.106 344.933,675.106C344.933,675.106 339.46,679.028 338.636,682.329C338.439,677.283 337.214,678.33 337.214,678.33C337.214,678.33 328.08,684.501 328.669,690.83C327.894,686.132 325.814,688.195 325.814,688.195C325.814,688.195 318.937,704.297 328.954,713.408C334.894,707.235 338.952,699.274 342.378,690.713C340.274,697.949 337.565,704.948 330.593,714.577Z" style="fill:rgb(145,158,94);"/>
        </g>
        <g transform="matrix(2.85316e-16,4.65957,-4.65957,2.85316e-16,767.712,-904.61)">
            <path d="M385.17,275.549C385.17,275.549 399.084,280.513 412.165,272.9C408.536,271.589 406.447,271.035 406.447,271.035C406.447,271.035 414.11,271.509 417.683,266.626C415.937,265.23 415.305,264.787 412.78,264.459C416.625,263.507 418.86,263.841 421.421,258.779C417.918,257.529 417.679,257.95 417.679,257.95C417.679,257.95 422.728,255.464 423.074,248.69C418.44,247.993 416.703,247.967 414.153,249.844C415.333,246.47 414.515,245.508 414.515,245.508C414.515,245.508 407.912,246.824 405.8,249.491C407.702,244.813 406.153,245.261 406.153,245.261C406.153,245.261 395.287,247.115 393.213,253.124C394.445,248.524 391.7,249.546 391.7,249.546C391.7,249.546 378.792,261.376 384.159,273.809C392.117,270.636 399.097,265.057 405.75,258.672C400.848,264.396 395.493,269.654 385.17,275.549Z" style="fill:rgb(145,158,94);"/>
        </g>
        <g transform="matrix(2.85316e-16,4.65957,-4.65957,2.85316e-16,1417.91,-904.61)">
            <path d="M393.326,321.402C393.326,321.402 389.111,332.829 398.201,343.242C399.014,339.767 399.733,338.577 399.733,338.577C399.733,338.577 400.246,345.01 405.46,347.375C406.596,345.572 407.221,345.011 407.217,342.693C408.637,345.974 409.044,349.571 414.303,350.999C415.072,347.647 414.631,347.505 414.631,347.505C414.631,347.505 417.699,351.601 424.341,350.752C424.426,346.483 424.229,344.922 422.075,342.96C425.512,343.44 426.978,341.577 426.978,341.577C426.978,341.577 423.336,336.474 420.468,335.039C425.267,335.942 425.643,333.08 425.643,333.08C425.643,333.08 420.391,326.062 414.273,325.233C418.911,325.55 419.489,322.8 419.489,322.8C419.489,322.8 406.314,313.265 394.892,320.199C403.74,324.322 415.45,329.039 417.831,342.932C412.907,332.493 403.472,326.712 393.326,321.402Z" style="fill:rgb(145,158,94);"/>
        </g>
        <g transform="matrix(2.85316e-16,4.65957,-4.65957,2.85316e-16,1115.05,-904.61)">
            <path d="M322.136,278.595C322.136,278.595 310.794,283.035 309.049,296.747C312.186,295.046 313.554,294.792 313.554,294.792C313.554,294.792 309.085,299.45 310.782,304.918C312.883,304.569 313.718,304.664 315.448,303.121C313.939,306.362 311.521,309.056 313.947,313.935C316.963,312.284 316.776,311.86 316.776,311.86C316.776,311.86 315.752,316.874 320.799,321.275C324.047,318.503 325.082,317.319 325.118,314.405C327.043,317.293 329.409,317.151 329.409,317.151C329.409,317.151 330.804,311.039 329.972,307.942C332.485,312.129 334.874,310.509 334.874,310.509C334.874,310.509 336.631,301.922 333.187,296.798C336.031,300.475 338.47,299.08 338.47,299.08C338.47,299.08 336.846,282.898 324.075,278.966C326.871,288.319 331.124,300.205 322.32,311.213C326.852,300.599 324.907,289.706 322.136,278.595Z" style="fill:rgb(145,158,94);"/>
        </g>
        <g transform="matrix(2.85316e-16,4.65957,-4.65957,2.85316e-16,1534.86,-904.61)">
            <path d="M228.97,323.643C228.97,323.643 217.628,328.083 215.883,341.795C219.02,340.094 220.387,339.841 220.387,339.841C220.387,339.841 215.919,344.498 217.615,349.966C219.717,349.618 220.552,349.712 222.282,348.169C220.773,351.41 218.354,354.105 220.781,358.984C223.797,357.332 223.61,356.908 223.61,356.908C223.61,356.908 222.586,361.922 227.633,366.323C230.88,363.551 231.916,362.367 231.952,359.453C233.877,362.341 236.243,362.199 236.243,362.199C236.243,362.199 237.637,356.087 236.805,352.99C239.318,357.177 241.708,355.557 241.708,355.557C241.708,355.557 243.465,346.97 240.02,341.846C242.865,345.523 245.304,344.129 245.304,344.129C245.304,344.129 243.679,327.946 230.909,324.015C233.704,333.367 237.957,345.254 229.154,356.262C233.686,345.647 231.74,334.754 228.97,323.643Z" style="fill:rgb(145,158,94);"/>
        </g>
        <g transform="matrix(2.85316e-16,4.65957,-4.65957,2.85316e-16,551.023,-904.61)">
            <path d="M214.3,234.598C214.3,234.598 207.791,224.303 193.997,225.189C196.262,227.947 196.77,229.241 196.77,229.241C196.77,229.241 191.35,225.737 186.302,228.439C187.043,230.436 187.108,231.274 188.951,232.68C185.483,231.812 182.379,229.949 178.048,233.256C180.241,235.904 180.622,235.641 180.622,235.641C180.622,235.641 175.505,235.585 172.14,241.375C175.477,244.038 176.836,244.831 179.704,244.313C177.233,246.75 177.821,249.047 177.821,249.047C177.821,249.047 184.087,249.258 186.97,247.854C183.335,251.115 185.378,253.154 185.378,253.154C185.378,253.154 194.143,253.252 198.521,248.899C195.45,252.388 197.282,254.519 197.282,254.519C197.282,254.519 212.863,249.857 214.303,236.573C205.65,241.09 194.784,247.519 182.308,240.961C193.588,243.4 203.915,239.425 214.3,234.598Z" style="fill:rgb(145,158,94);"/>
        </g>
        <g transform="matrix(2.85316e-16,4.65957,-4.65957,2.85316e-16,1780.31,-904.61)">
            <path d="M182.093,363.767C182.093,363.767 172.519,354.354 157.359,357.831C160.504,360.256 161.362,361.497 161.362,361.497C161.362,361.497 154.535,358.888 149.525,362.614C150.801,364.538 151.063,365.39 153.433,366.498C149.375,366.247 145.497,364.901 141.422,369.118C144.463,371.443 144.828,371.101 144.828,371.101C144.828,371.101 139.117,371.994 136.679,378.593C140.997,380.721 142.689,381.286 145.765,380.22C143.565,383.194 144.739,385.454 144.739,385.454C144.739,385.454 151.763,384.507 154.657,382.523C151.346,386.563 154.082,388.287 154.082,388.287C154.082,388.287 163.864,386.759 167.755,381.454C165.124,385.625 167.645,387.484 167.645,387.484C167.645,387.484 183.942,379.777 182.543,365.804C178.65,368.636 173.85,371.301 168.879,373.679C162.849,376.563 156.335,378.715 147.907,376.277C161.019,376.697 171.62,370.676 182.093,363.767Z" style="fill:rgb(145,158,94);"/>
        </g>
        <g transform="matrix(2.85316e-16,4.65957,-4.65957,2.85316e-16,3039.6,-904.61)">
            <path d="M106.328,519.689C106.328,519.689 111.913,508.866 104.168,497.417C102.935,500.766 102.076,501.859 102.076,501.859C102.076,501.859 102.356,495.411 97.471,492.425C96.123,494.074 95.433,494.555 95.153,496.855C94.146,493.425 94.183,489.805 89.139,487.743C87.965,490.975 88.385,491.171 88.385,491.171C88.385,491.171 85.843,486.729 79.147,486.757C78.538,490.983 78.543,492.556 80.44,494.768C77.088,493.87 75.405,495.54 75.405,495.54C75.405,495.54 78.393,501.05 81.064,502.827C76.411,501.342 75.687,504.136 75.687,504.136C75.687,504.136 80.038,511.745 86.008,513.318C81.445,512.435 80.533,515.093 80.533,515.093C80.533,515.093 92.44,526.172 104.626,520.691C96.351,515.514 85.307,509.397 84.649,495.317C88.255,506.281 96.91,513.176 106.328,519.689Z" style="fill:rgb(145,158,94);"/>
        </g>
        <g transform="matrix(2.85316e-16,4.65957,-4.65957,2.85316e-16,4214.97,-904.61)">
            <path d="M106.056,645.814C106.056,645.814 111.641,634.99 103.897,623.541C102.664,626.89 101.805,627.983 101.805,627.983C101.805,627.983 102.084,621.535 97.2,618.549C95.851,620.198 95.162,620.679 94.882,622.98C93.875,619.549 93.912,615.929 88.867,613.868C87.693,617.099 88.113,617.295 88.113,617.295C88.113,617.295 85.571,612.853 78.875,612.881C78.267,617.107 78.271,618.681 80.169,620.892C76.816,619.994 75.133,621.664 75.133,621.664C75.133,621.664 78.122,627.174 80.792,628.951C76.14,627.466 75.415,630.26 75.415,630.26C75.415,630.26 79.767,637.869 85.737,639.442C81.173,638.559 80.262,641.217 80.262,641.217C80.262,641.217 92.169,652.297 104.354,646.816C96.08,641.639 85.036,635.521 84.377,621.441C87.983,632.405 96.638,639.3 106.056,645.814Z" style="fill:rgb(145,158,94);"/>
        </g>
        <g transform="matrix(2.85316e-16,4.65957,-4.65957,2.85316e-16,4158.32,-904.61)">
            <path d="M380.55,614.455C380.55,614.455 375.713,625.633 384.218,636.53C385.22,633.105 386.003,631.956 386.003,631.956C386.003,631.956 386.162,638.408 391.239,641.055C392.472,639.318 393.127,638.791 393.25,636.477C394.488,639.831 394.697,643.445 399.87,645.16C400.822,641.855 400.389,641.689 400.389,641.689C400.389,641.689 403.227,645.948 409.906,645.465C410.225,641.207 410.114,639.638 408.071,637.56C411.477,638.228 413.042,636.448 413.042,636.448C413.042,636.448 409.686,631.153 406.901,629.562C411.644,630.728 412.177,627.891 412.177,627.891C412.177,627.891 407.318,620.595 401.255,619.431C405.868,620.002 406.597,617.288 406.597,617.288C406.597,617.288 393.965,607.044 382.18,613.34C390.787,617.943 402.221,623.296 403.835,637.298C399.492,626.605 390.389,620.314 380.55,614.455Z" style="fill:rgb(145,158,94);"/>
        </g>
        <g transform="matrix(2.85316e-16,4.65957,-4.65957,2.85316e-16,2985.97,-904.61)">
            <path d="M363.102,486.871C363.102,486.871 357.2,497.526 364.604,509.198C365.935,505.887 366.826,504.82 366.826,504.82C366.826,504.82 366.356,511.257 371.151,514.386C372.547,512.777 373.25,512.316 373.598,510.025C374.503,513.484 374.36,517.101 379.341,519.311C380.61,516.115 380.196,515.907 380.196,515.907C380.196,515.907 382.606,520.422 389.3,520.591C390.033,516.385 390.075,514.812 388.243,512.546C391.568,513.542 393.299,511.923 393.299,511.923C393.299,511.923 390.474,506.327 387.858,504.472C392.464,506.094 393.271,503.322 393.271,503.322C393.271,503.322 389.146,495.588 383.225,493.839C387.76,494.856 388.75,492.227 388.75,492.227C388.75,492.227 377.175,480.801 364.833,485.92C372.951,491.339 383.81,497.78 384.053,511.873C380.772,500.808 372.324,493.66 363.102,486.871Z" style="fill:rgb(145,158,94);"/>
        </g>
        <g transform="matrix(2.85316e-16,4.65957,-4.65957,2.85316e-16,1267.65,-904.61)">
            <path d="M305.98,308.258C305.98,308.258 296.771,299.79 284.136,303.804C287.091,305.954 287.958,307.09 287.958,307.09C287.958,307.09 281.826,304.94 277.924,308.709C279.222,310.472 279.537,311.267 281.687,312.206C278.179,312.16 274.711,311.068 271.662,315.259C274.516,317.318 274.793,316.976 274.793,316.976C274.793,316.976 269.989,318.094 268.597,324.464C272.526,326.277 274.037,326.732 276.563,325.575C274.991,328.498 276.237,330.585 276.237,330.585C276.237,330.585 282.161,329.355 284.433,327.337C282.021,331.323 284.551,332.828 284.551,332.828C284.551,332.828 292.779,330.916 295.555,325.703C293.74,329.781 296.099,331.424 296.099,331.424C296.099,331.424 309.261,323.347 306.582,310.168C299.857,316.518 291.641,325.224 277.983,321.737C289.274,321.513 297.729,315.304 305.98,308.258Z" style="fill:rgb(145,158,94);"/>
        </g>
        <g transform="matrix(2.85316e-16,4.65957,-4.65957,2.85316e-16,535.6,-904.61)">
            <path d="M159.702,229.705C159.702,229.705 150.493,221.237 137.858,225.251C140.813,227.401 141.68,228.537 141.68,228.537C141.68,228.537 135.548,226.387 131.645,230.156C132.943,231.919 133.259,232.714 135.408,233.653C131.901,233.607 128.433,232.515 125.384,236.706C128.238,238.765 128.515,238.423 128.515,238.423C128.515,238.423 123.711,239.541 122.319,245.911C126.248,247.724 127.759,248.179 130.285,247.022C128.712,249.945 129.958,252.032 129.958,252.032C129.958,252.032 135.883,250.802 138.155,248.784C135.743,252.77 138.273,254.275 138.273,254.275C138.273,254.275 146.501,252.363 149.277,247.15C147.462,251.228 149.821,252.871 149.821,252.871C149.821,252.871 162.983,244.794 160.304,231.615C153.579,237.965 145.363,246.671 131.704,243.184C142.996,242.96 151.451,236.751 159.702,229.705Z" style="fill:rgb(145,158,94);"/>
        </g>
        <g transform="matrix(2.85316e-16,4.65957,-4.65957,2.85316e-16,2615.9,-904.61)">
            <path d="M113.472,452.562C113.472,452.562 104.525,443.206 91.77,447.308C94.657,449.695 95.49,450.943 95.49,450.943C95.49,450.943 89.425,448.494 85.408,452.502C86.651,454.437 86.942,455.305 89.062,456.364C85.558,456.246 82.124,454.995 78.947,459.475C81.737,461.763 82.024,461.398 82.024,461.398C82.024,461.398 77.187,462.515 75.6,469.39C79.472,471.43 80.969,471.954 83.53,470.75C81.868,473.886 83.049,476.171 83.049,476.171C83.049,476.171 89.011,474.954 91.344,472.812C88.81,477.084 91.293,478.764 91.293,478.764C91.293,478.764 99.578,476.853 102.513,471.259C100.573,475.643 102.881,477.468 102.881,477.468C102.881,477.468 116.288,468.974 114.014,454.642C107.096,461.391 96.516,468.904 85.067,466.618C96.362,466.597 105.006,460.034 113.472,452.562Z" style="fill:rgb(145,158,94);"/>
        </g>
        <g transform="matrix(2.85316e-16,4.65957,-4.65957,2.85316e-16,868.279,-904.61)">
            <path d="M193.99,257.29C193.99,257.29 179.418,254.864 167.888,264.669C171.692,265.318 173.846,265.495 173.846,265.495C173.846,265.495 166.219,266.382 163.566,271.82C165.531,272.885 166.232,273.21 168.775,273.086C165.158,274.703 162.899,274.769 161.273,280.204C164.942,280.815 165.104,280.359 165.104,280.359C165.104,280.359 160.573,283.697 161.43,290.426C166.114,290.293 167.829,290.012 170.006,287.714C169.441,291.243 170.417,292.045 170.417,292.045C170.417,292.045 176.683,289.583 178.291,286.585C177.245,291.525 178.69,290.811 178.69,290.811C178.69,290.811 189.058,287.065 190.037,280.785C189.637,285.529 192.159,284.039 192.159,284.039C192.159,284.039 202.772,270.113 195.292,258.825C188.021,263.354 182.136,270.079 176.717,277.54C180.53,271.039 184.871,264.918 193.99,257.29Z" style="fill:rgb(145,158,94);"/>
        </g>
        <g transform="matrix(2.85316e-16,4.65957,-4.65957,2.85316e-16,2081.77,-904.61)">
            <path d="M111.602,418.217C111.602,418.217 115.733,404.034 107.358,391.426C106.264,395.127 105.835,397.245 105.835,397.245C105.835,397.245 105.855,389.567 100.768,386.29C99.478,388.115 99.073,388.773 98.895,391.313C97.717,387.531 97.919,385.28 92.713,383.023C91.673,386.594 92.107,386.808 92.107,386.808C92.107,386.808 89.327,381.915 82.544,381.971C82.123,386.638 82.2,388.374 84.225,390.808C80.787,389.83 79.875,390.704 79.875,390.704C79.875,390.704 81.58,397.217 84.367,399.168C79.585,397.546 80.123,399.065 80.123,399.065C80.123,399.065 82.618,409.803 88.739,411.517C84.075,410.559 85.258,413.24 85.258,413.24C85.258,413.24 97.832,425.423 109.924,419.329C106.286,411.574 100.303,404.936 93.535,398.673C99.539,403.228 105.105,408.261 111.602,418.217Z" style="fill:rgb(145,158,94);"/>
        </g>
        <g transform="matrix(2.85316e-16,4.65957,-4.65957,2.85316e-16,4194.85,-904.61)">
            <path d="M284.077,653.351C284.077,653.351 272.281,645.643 270.756,630.833C273.846,632.833 275.468,634.108 275.468,634.108C275.468,634.108 270.731,628.471 272.498,622.699C274.58,623.19 275.286,623.406 276.981,625.158C275.531,621.596 273.996,620.073 276.48,614.973C279.451,616.914 279.259,617.358 279.259,617.358C279.259,617.358 278.318,611.921 283.397,607.481C286.581,610.637 287.592,611.965 287.583,615.094C289.538,612.103 290.754,612.143 290.754,612.143C290.754,612.143 293.492,618.063 292.618,621.34C295.178,616.987 295.712,618.461 295.712,618.461C295.712,618.461 300.461,628.01 296.962,633.316C299.843,629.53 300.611,632.283 300.611,632.283C300.611,632.283 298.752,649.557 286.009,653.061C283.945,644.95 284.313,636.113 285.495,627.033C283.83,634.351 282.786,641.733 284.077,653.351Z" style="fill:rgb(145,158,94);"/>
        </g>
        <g transform="matrix(2.85316e-16,4.65957,-4.65957,2.85316e-16,3582.5,-904.61)">
            <path d="M369.843,559.595C369.843,559.595 379.472,549.306 394.323,550.361C391.82,553.059 390.284,554.437 390.284,554.437C390.284,554.437 396.654,550.744 402.034,553.481C401.191,555.447 400.856,556.105 398.838,557.472C402.597,556.659 404.362,555.41 408.956,558.737C406.532,561.328 406.127,561.062 406.127,561.062C406.127,561.062 411.645,561.074 415.142,566.843C411.484,569.434 410.001,570.201 406.921,569.652C409.53,572.094 409.28,573.285 409.28,573.285C409.28,573.285 402.977,574.96 399.9,573.534C403.745,576.806 402.202,577.078 402.202,577.078C402.202,577.078 391.976,580.107 387.354,575.745C390.586,579.236 387.741,579.518 387.741,579.518C387.741,579.518 371.048,574.705 369.796,561.548C378.141,560.916 386.782,562.803 395.522,565.535C388.601,562.632 381.51,560.329 369.843,559.595Z" style="fill:rgb(145,158,94);"/>
        </g>
        <g transform="matrix(2.85316e-16,4.65957,-4.65957,2.85316e-16,257.498,-904.61)">
            <path d="M349.023,189.091C349.023,189.091 363.113,188.865 372.675,200.277C368.995,200.352 366.937,200.205 366.937,200.205C366.937,200.205 374.019,202.219 375.79,207.99C373.79,208.75 373.084,208.967 370.699,208.465C373.895,210.603 376.02,211.005 376.82,216.62C373.273,216.678 373.182,216.202 373.182,216.202C373.182,216.202 377.009,220.178 375.289,226.702C370.884,225.872 369.303,225.338 367.557,222.742C367.614,226.315 366.584,226.963 366.584,226.963C366.584,226.963 360.999,223.594 359.886,220.39C360.205,225.43 358.937,224.508 358.937,224.508C358.937,224.508 349.653,219.26 349.578,212.905C349.314,217.655 347.134,215.805 347.134,215.805C347.134,215.805 338.995,200.457 347.586,190.413C353.84,195.975 358.487,203.5 362.596,211.684C359.874,204.689 356.603,197.99 349.023,189.091Z" style="fill:rgb(145,158,94);"/>
        </g>
        <g transform="matrix(2.85316e-16,4.65957,-4.65957,2.85316e-16,1447.45,-904.61)">
            <path d="M210.436,347.294C210.436,347.294 197.552,353.002 184.294,346.228C187.653,344.723 189.604,344.055 189.604,344.055C189.604,344.055 182.298,344.965 178.415,340.343C179.959,338.863 180.525,338.388 182.916,337.918C179.139,337.198 177.026,337.658 174.097,332.8C177.341,331.363 177.61,331.765 177.61,331.765C177.61,331.765 172.535,329.598 171.571,322.921C175.95,321.966 177.615,321.84 180.235,323.548C178.788,320.281 179.484,319.282 179.484,319.282C179.484,319.282 185.94,320.204 188.215,322.719C185.954,318.204 187.481,318.557 187.481,318.557C187.481,318.557 198.078,319.765 200.628,325.586C199.017,321.109 201.746,321.961 201.746,321.961C201.746,321.961 215.231,332.915 211.243,345.515C203.313,342.836 196.097,337.722 189.12,331.792C194.356,337.169 199.983,342.059 210.436,347.294Z" style="fill:rgb(145,158,94);"/>
        </g>
        <g transform="matrix(2.85316e-16,4.65957,-4.65957,2.85316e-16,3137.49,-904.61)">
            <path d="M163.86,536.817C163.86,536.817 149.803,535.833 141.255,523.642C144.928,523.884 146.966,524.207 146.966,524.207C146.966,524.207 140.083,521.592 138.814,515.69C140.872,515.104 141.594,514.95 143.927,515.654C140.926,513.25 138.843,512.667 138.528,507.003C142.067,507.251 142.117,507.733 142.117,507.733C142.117,507.733 138.645,503.443 140.918,497.091C145.236,498.296 146.766,498.963 148.282,501.7C148.532,498.135 149.614,497.578 149.614,497.578C149.614,497.578 154.889,501.413 155.723,504.701C155.837,499.652 157.022,500.679 157.022,500.679C157.022,500.679 165.821,506.705 165.351,513.043C166.022,508.333 168.035,510.363 168.035,510.363C168.035,510.363 174.827,526.354 165.406,535.622C159.652,529.544 155.667,521.648 152.276,513.143C154.387,520.345 157.072,527.3 163.86,536.817Z" style="fill:rgb(145,158,94);"/>
        </g>
        <g transform="matrix(2.85316e-16,4.65957,-4.65957,2.85316e-16,3093.23,-904.61)">
            <path d="M227.606,501.952C227.606,501.952 229.315,516.151 218.38,526.44C217.917,522.732 217.856,520.648 217.856,520.648C217.856,520.648 216.49,527.905 210.639,530.017C209.636,528.042 209.336,527.343 209.611,524.909C207.71,528.254 207.511,530.419 201.722,531.543C201.292,527.968 201.78,527.85 201.78,527.85C201.78,527.85 198.022,531.934 191.02,530.568C191.428,526.078 191.821,524.452 194.353,522.545C190.623,522.804 189.838,521.801 189.838,521.801C189.838,521.801 192.777,515.978 196.01,514.675C190.774,515.281 191.605,513.95 191.605,513.95C191.605,513.95 196.123,504.289 202.761,503.855C197.766,503.856 199.472,501.553 199.472,501.553C199.472,501.553 214.672,492.477 226.073,500.576C220.91,507.199 213.526,512.311 205.398,516.917C212.429,513.777 219.092,510.099 227.606,501.952Z" style="fill:rgb(145,158,94);"/>
        </g>
        <g transform="matrix(2.85316e-16,4.65957,-4.65957,2.85316e-16,4762.94,-904.61)">
            <path d="M132.418,712.221C132.418,712.221 118.514,709.932 111.139,696.998C114.774,697.58 116.772,698.092 116.772,698.092C116.772,698.092 110.163,694.847 109.449,688.852C111.553,688.461 112.286,688.374 114.543,689.293C111.779,686.62 109.76,685.845 109.974,680.177C113.475,680.753 113.479,681.237 113.479,681.237C113.479,681.237 110.422,676.643 113.277,670.53C117.464,672.132 118.925,672.939 120.18,675.805C120.761,672.279 121.89,671.825 121.89,671.825C121.89,671.825 126.785,676.135 127.308,679.486C127.893,674.471 128.976,675.603 128.976,675.603C128.976,675.603 137.176,682.423 136.117,688.689C137.224,684.062 139.039,686.271 139.039,686.271C139.039,686.271 144.312,702.825 134.068,711.176C128.906,704.588 125.674,696.355 123.09,687.57C124.521,694.938 126.546,702.113 132.418,712.221Z" style="fill:rgb(145,158,94);"/>
        </g>
        <g transform="matrix(2.85316e-16,4.65957,-4.65957,2.85316e-16,4381.66,-904.61)">
            <path d="M220.15,651.946C220.15,651.946 214.575,638.887 199.96,635.3C201.401,638.718 202.384,640.543 202.384,640.543C202.384,640.543 197.589,634.95 191.456,635.954C191.566,638.14 191.653,638.888 193.102,640.852C189.787,638.888 188.539,637.117 182.95,638.943C184.354,642.231 184.836,642.097 184.836,642.097C184.836,642.097 179.541,640.392 174.137,644.949C176.723,648.62 177.873,649.831 181.021,650.252C177.651,651.83 177.468,653.072 177.468,653.072C177.468,653.072 182.916,656.671 186.374,656.233C181.523,658.238 182.907,658.984 182.907,658.984C182.907,658.984 191.635,665.127 197.618,662.298C193.278,664.707 195.905,665.868 195.905,665.868C195.905,665.868 199.774,665.974 204.496,664.813C209.879,663.489 216.37,660.52 219.502,653.871C211.724,650.657 202.767,649.816 193.416,649.77C201.085,649.083 208.702,649.036 220.15,651.946Z" style="fill:rgb(145,158,94);"/>
        </g>
        <g transform="matrix(2.85316e-16,4.65957,-4.65957,2.85316e-16,4302.63,-904.61)">
            <path d="M157.235,643.465C157.235,643.465 151.66,630.407 137.045,626.819C138.486,630.238 139.469,632.063 139.469,632.063C139.469,632.063 134.674,626.469 128.541,627.474C128.651,629.659 128.738,630.407 130.187,632.371C126.872,630.407 125.623,628.637 120.035,630.462C121.438,633.75 121.921,633.616 121.921,633.616C121.921,633.616 116.626,631.911 111.221,636.468C113.808,640.14 114.958,641.35 118.106,641.771C114.736,643.349 114.553,644.592 114.553,644.592C114.553,644.592 120.001,648.19 123.459,647.753C118.608,649.758 119.991,650.503 119.991,650.503C119.991,650.503 128.72,656.646 134.703,653.817C130.362,656.227 132.99,657.387 132.99,657.387C132.99,657.387 136.859,657.493 141.581,656.332C146.964,655.008 153.455,652.039 156.586,645.391C148.809,642.177 139.852,641.335 130.5,641.29C138.169,640.602 145.787,640.555 157.235,643.465Z" style="fill:rgb(145,158,94);"/>
        </g>
        <g transform="matrix(2.85316e-16,4.65957,-4.65957,2.85316e-16,3378.69,-904.61)">
            <path d="M134.35,533.945C134.35,533.945 122.812,525.671 108.455,530.183C111.459,532.358 113.246,533.409 113.246,533.409C113.246,533.409 106.246,531.113 101.523,535.152C102.75,536.964 103.212,537.558 105.47,538.486C101.617,538.525 99.631,537.659 95.8,542.118C98.705,544.202 99.048,543.837 99.048,543.837C99.048,543.837 93.636,545.125 91.378,551.824C95.494,553.622 97.105,554.061 100.015,552.788C97.952,555.885 98.439,557.042 98.439,557.042C98.439,557.042 104.964,557.294 107.693,555.127C104.585,559.356 106.155,559.277 106.155,559.277C106.155,559.277 116.804,560.003 120.452,554.481C117.991,558.792 120.839,558.422 120.839,558.422C120.839,558.422 124.202,556.506 127.637,553.065C131.554,549.142 135.564,543.236 134.794,535.928C126.477,537.213 118.383,541.139 110.363,545.949C116.563,541.384 123.052,537.394 134.35,533.945Z" style="fill:rgb(145,158,94);"/>
        </g>
        <g transform="matrix(2.85316e-16,4.65957,-4.65957,2.85316e-16,1550.72,-904.61)">
            <path d="M331.871,357.129C331.871,357.129 333.285,343.41 322.053,334.253C321.667,337.836 321.65,339.838 321.65,339.838C321.65,339.838 320.118,332.97 314.182,331.323C313.214,333.28 312.928,333.97 313.257,336.285C311.27,333.201 311.024,331.139 305.171,330.434C304.815,333.888 305.309,333.97 305.309,333.97C305.309,333.97 301.437,330.297 294.417,332.057C294.924,336.334 295.355,337.867 297.946,339.532C294.184,339.524 293.415,340.535 293.415,340.535C293.415,340.535 296.5,345.927 299.784,346.968C294.499,346.724 295.364,347.946 295.364,347.946C295.364,347.946 300.122,356.914 306.814,356.903C301.785,357.223 303.553,359.321 303.553,359.321C303.553,359.321 306.937,361.007 311.696,361.936C317.122,362.995 324.334,363.071 330.356,358.546C325.015,352.531 317.471,348.106 309.188,344.215C316.334,346.772 323.122,349.868 331.871,357.129Z" style="fill:rgb(145,158,94);"/>
        </g>
        <g transform="matrix(2.85316e-16,4.65957,-4.65957,2.85316e-16,1461.8,-904.61)">
            <path d="M155.955,328.252C155.955,328.252 144.416,319.977 130.059,324.49C133.064,326.665 134.851,327.716 134.851,327.716C134.851,327.716 127.85,325.42 123.127,329.459C124.354,331.271 124.817,331.865 127.075,332.793C123.222,332.832 121.236,331.966 117.404,336.425C120.309,338.509 120.653,338.144 120.653,338.144C120.653,338.144 115.241,339.432 112.983,346.13C117.098,347.929 118.709,348.368 121.62,347.095C119.557,350.192 120.044,351.349 120.044,351.349C120.044,351.349 126.569,351.601 129.298,349.433C126.19,353.663 127.76,353.583 127.76,353.583C127.76,353.583 138.409,354.309 142.057,348.788C139.595,353.099 142.444,352.729 142.444,352.729C142.444,352.729 145.807,350.813 149.242,347.371C153.158,343.448 157.169,337.543 156.399,330.235C148.082,331.52 139.987,335.445 131.967,340.256C138.168,335.691 144.657,331.7 155.955,328.252Z" style="fill:rgb(145,158,94);"/>
        </g>
        <g transform="matrix(2.85316e-16,4.65957,-4.65957,2.85316e-16,1211.43,-904.61)">
            <path d="M367.475,291.121C367.475,291.121 360.6,303.544 366.752,317.278C368.563,314.041 369.398,312.144 369.398,312.144C369.398,312.144 367.933,319.364 372.494,323.585C374.151,322.155 374.687,321.627 375.346,319.276C375.833,323.099 375.204,325.172 380.079,328.458C381.81,325.331 381.408,325.032 381.408,325.032C381.408,325.032 383.317,330.257 390.233,331.72C391.54,327.424 391.789,325.772 390.186,323.03C393.502,324.719 394.595,324.1 394.595,324.1C394.595,324.1 394.085,317.59 391.615,315.132C396.178,317.726 395.916,316.177 395.916,316.177C395.916,316.177 395.398,305.515 389.489,302.535C394.057,304.478 393.358,301.692 393.358,301.692C393.358,301.692 391.064,298.575 387.246,295.563C382.894,292.13 376.562,288.834 369.393,290.449C371.637,298.56 376.478,306.143 382.189,313.549C376.934,307.921 372.215,301.941 367.475,291.121Z" style="fill:rgb(145,158,94);"/>
        </g>
        <g transform="matrix(2.85316e-16,4.65957,-4.65957,2.85316e-16,476.167,-904.61)">
            <path d="M296.728,221.908C296.728,221.908 297.068,236.102 309.315,244.849C309.243,241.14 309.006,239.08 309.006,239.08C309.006,239.08 311.388,246.052 317.456,247.391C318.164,245.32 318.36,244.594 317.741,242.232C320.093,245.285 320.597,247.392 326.464,247.766C326.379,244.192 325.881,244.138 325.881,244.138C325.881,244.138 330.168,247.683 336.875,245.453C335.833,241.084 335.214,239.533 332.445,237.976C336.16,237.759 336.791,236.673 336.791,236.673C336.791,236.673 333.063,231.312 329.689,230.438C334.938,230.372 333.929,229.167 333.929,229.167C333.929,229.167 328.097,220.228 321.492,220.64C326.416,220.009 324.405,217.958 324.405,217.958C324.405,217.958 320.85,216.426 316.034,215.755C310.544,214.991 303.415,215.344 298.043,220.359C304.077,226.226 312.085,230.325 320.754,233.832C313.376,231.63 306.283,228.852 296.728,221.908Z" style="fill:rgb(145,158,94);"/>
        </g>
        <g transform="matrix(2.85316e-16,4.65957,-4.65957,2.85316e-16,-182.91,-904.61)">
            <path d="M269.587,141.179C269.587,141.179 262.461,153.46 268.332,167.317C270.208,164.117 271.082,162.237 271.082,162.237C271.082,162.237 269.47,169.426 273.945,173.738C275.63,172.343 276.177,171.825 276.884,169.489C277.293,173.32 276.622,175.38 281.429,178.765C283.224,175.673 282.828,175.367 282.828,175.367C282.828,175.367 284.63,180.63 291.515,182.233C292.909,177.964 293.191,176.318 291.644,173.544C294.925,175.299 296.03,174.703 296.03,174.703C296.03,174.703 295.653,168.184 293.234,165.676C297.743,168.363 297.512,166.808 297.512,166.808C297.512,166.808 297.211,156.139 291.364,153.038C295.892,155.074 295.249,152.274 295.249,152.274C295.249,152.274 293.019,149.111 289.263,146.023C284.982,142.502 278.719,139.078 271.518,140.547C273.597,148.702 278.283,156.381 283.842,163.901C278.702,158.168 274.106,152.093 269.587,141.179Z" style="fill:rgb(145,158,94);"/>
        </g>
        <g transform="matrix(2.85316e-16,4.65957,-4.65957,2.85316e-16,-208.473,-904.61)">
            <path d="M191.282,136.803C191.282,136.803 182.81,148.198 187.075,162.63C189.301,159.663 190.383,157.895 190.383,157.895C190.383,157.895 187.967,164.855 191.924,169.646C193.757,168.451 194.359,167.998 195.326,165.757C195.299,169.61 194.399,171.581 198.791,175.488C200.924,172.619 200.566,172.27 200.566,172.27C200.566,172.27 201.761,177.703 208.419,180.076C210.288,175.992 210.755,174.389 209.532,171.457C212.593,173.573 213.758,173.105 213.758,173.105C213.758,173.105 214.122,166.586 212.002,163.82C216.178,167 216.125,165.429 216.125,165.429C216.125,165.429 217.034,154.794 211.575,151.052C215.844,153.587 215.522,150.732 215.522,150.732C215.522,150.732 213.664,147.337 210.283,143.843C206.428,139.86 200.592,135.749 193.272,136.393C194.414,144.731 198.199,152.892 202.871,160.993C198.414,154.715 194.535,148.159 191.282,136.803Z" style="fill:rgb(145,158,94);"/>
        </g>
        <g transform="matrix(2.85316e-16,4.65957,-4.65957,2.85316e-16,-290.439,-904.61)">
            <path d="M131.829,135.541C131.829,135.541 118.555,130.501 105.834,138.542C109.296,139.874 111.293,140.432 111.293,140.432C111.293,140.432 103.938,140.007 100.408,145.122C102.058,146.559 102.658,147.014 105.078,147.333C101.364,148.358 99.222,148.03 96.661,153.322C100.004,154.592 100.242,154.151 100.242,154.151C100.242,154.151 95.341,156.784 94.875,163.837C99.314,164.52 100.984,164.532 103.471,162.556C102.27,166.078 103.038,167.071 103.038,167.071C103.038,167.071 109.409,165.642 111.492,162.848C109.572,167.733 111.069,167.253 111.069,167.253C111.069,167.253 121.548,165.226 123.659,158.953C122.385,163.751 125.044,162.663 125.044,162.663C125.044,162.663 127.803,159.949 130.241,155.743C133.021,150.947 135.384,144.211 132.766,137.344C125.057,140.718 118.239,146.587 111.72,153.292C116.543,147.291 121.793,141.77 131.829,135.541Z" style="fill:rgb(145,158,94);"/>
        </g>
        <g transform="matrix(2.85316e-16,4.65957,-4.65957,2.85316e-16,4774.51,-904.61)">
            <path d="M299.372,715.59C299.372,715.59 312.481,710.135 316.202,695.553C312.771,696.963 310.937,697.929 310.937,697.929C310.937,697.929 316.574,693.185 315.625,687.044C313.439,687.133 312.691,687.214 310.713,688.645C312.708,685.348 314.489,684.116 312.715,678.511C309.414,679.884 309.544,680.368 309.544,680.368C309.544,680.368 311.297,675.088 306.79,669.643C303.095,672.195 301.874,673.334 301.424,676.478C299.877,673.094 298.636,672.899 298.636,672.899C298.636,672.899 294.988,678.314 295.394,681.776C293.433,676.907 292.675,678.284 292.675,678.284C292.675,678.284 286.452,686.956 289.227,692.964C286.857,688.602 285.672,691.219 285.672,691.219C285.672,691.219 285.531,695.087 286.649,699.819C287.923,705.214 290.833,711.732 297.452,714.924C300.738,707.176 301.661,698.227 301.792,688.876C302.409,696.551 302.387,704.169 299.372,715.59Z" style="fill:rgb(145,158,94);"/>
        </g>
        <g transform="matrix(2.85316e-16,4.65957,-4.65957,2.85316e-16,765.843,-904.61)">
            <path d="M358.706,284.202C358.706,284.202 372.651,281.527 379.259,268.006C375.613,268.689 373.621,269.262 373.621,269.262C373.621,269.262 380.105,265.763 380.425,259.557C378.266,259.2 377.517,259.127 375.29,260.126C377.913,257.304 379.908,256.459 379.311,250.611C375.8,251.284 375.828,251.784 375.828,251.784C375.828,251.784 378.618,246.971 375.313,240.723C371.176,242.471 369.749,243.337 368.669,246.324C367.842,242.696 366.667,242.253 366.667,242.253C366.667,242.253 361.994,246.813 361.688,250.285C360.758,245.119 359.736,246.313 359.736,246.313C359.736,246.313 351.88,253.538 353.374,259.985C351.941,255.232 350.249,257.554 350.249,257.554C350.249,257.554 349.324,261.312 349.456,266.173C349.607,271.714 351.13,278.688 356.962,283.159C361.754,276.241 364.478,267.667 366.508,258.538C365.552,266.179 363.981,273.633 358.706,284.202Z" style="fill:rgb(145,158,94);"/>
        </g>
        <g transform="matrix(2.85316e-16,4.65957,-4.65957,2.85316e-16,793.097,-904.61)">
            <path d="M214.214,244.197C214.214,244.197 205.672,255.539 209.848,269.998C212.093,267.044 213.185,265.283 213.185,265.283C213.185,265.283 210.726,272.228 214.654,277.043C216.494,275.859 217.099,275.411 218.079,273.175C218.029,277.028 217.117,278.993 221.485,282.928C223.636,280.072 223.279,279.72 223.279,279.72C223.279,279.72 224.441,285.161 231.085,287.574C232.978,283.502 233.455,281.902 232.251,278.963C235.298,281.097 236.467,280.637 236.467,280.637C236.467,280.637 236.871,274.12 234.767,271.341C238.924,274.547 238.88,272.976 238.88,272.976C238.88,272.976 239.855,262.346 234.42,258.57C238.672,261.132 238.369,258.275 238.369,258.275C238.369,258.275 236.532,254.869 233.171,251.354C229.341,247.347 223.531,243.2 216.207,243.799C217.297,252.144 221.033,260.328 225.655,268.458C221.236,262.152 217.398,255.572 214.214,244.197Z" style="fill:rgb(145,158,94);"/>
        </g>
        <g transform="matrix(2.85316e-16,4.65957,-4.65957,2.85316e-16,4697.65,-904.61)">
            <path d="M274.529,702.542C274.529,702.542 260.245,702.115 249.697,691.015C253.427,691.111 255.526,691.342 255.526,691.342C255.526,691.342 248.189,689.138 245.966,683.663C247.939,683.044 248.64,682.873 251.098,683.45C247.695,681.307 245.509,680.836 244.282,675.55C247.879,675.657 248.006,676.106 248.006,676.106C248.006,676.106 243.828,672.216 245.091,666.196C249.624,667.171 251.268,667.742 253.232,670.248C252.911,666.905 253.908,666.347 253.908,666.347C253.908,666.347 259.825,669.748 261.191,672.793C260.495,668.068 261.85,668.987 261.85,668.987C261.85,668.987 271.661,674.313 272.207,680.256C272.124,675.828 274.473,677.656 274.473,677.656C274.473,677.656 283.868,692.371 275.89,701.37C269.132,695.888 263.859,688.644 259.084,680.809C262.363,687.47 266.178,693.88 274.529,702.542Z" style="fill:rgb(145,158,94);"/>
        </g>
        <g transform="matrix(2.85316e-16,4.65957,-4.65957,2.85316e-16,4515.36,-904.61)">
            <path d="M349.781,683.177C349.781,683.177 343.171,670.732 348.985,657.026C350.726,660.269 351.531,662.169 351.531,662.169C351.531,662.169 350.103,654.946 354.438,650.743C356.024,652.179 356.538,652.709 357.176,655.061C357.626,651.242 357.017,649.167 361.655,645.9C363.319,649.033 362.937,649.33 362.937,649.33C362.937,649.33 364.737,644.114 371.329,642.678C372.593,646.978 372.837,648.63 371.319,651.365C374.476,649.69 375.521,650.312 375.521,650.312C375.521,650.312 375.061,656.818 372.714,659.266C377.057,656.69 376.813,658.238 376.813,658.238C376.813,658.238 376.362,668.894 370.737,671.851C375.088,669.926 374.432,672.708 374.432,672.708C374.432,672.708 364.465,686.938 351.613,683.856C353.722,675.756 358.309,668.195 363.728,660.813C358.737,666.419 354.259,672.379 349.781,683.177Z" style="fill:rgb(145,158,94);"/>
        </g>
        <g transform="matrix(2.85316e-16,4.65957,-4.65957,2.85316e-16,356.011,-904.61)">
            <path d="M376.26,223.523C376.26,223.523 378.97,209.694 392.122,202.716C391.43,206.331 390.858,208.313 390.858,208.313C390.858,208.313 394.301,201.805 400.315,201.274C400.642,203.388 400.707,204.123 399.72,206.352C402.476,203.67 403.311,201.675 408.97,202.061C408.288,205.543 407.804,205.532 407.804,205.532C407.804,205.532 412.489,202.617 418.513,205.655C416.784,209.791 415.933,211.227 413.031,212.395C416.537,213.083 416.957,214.225 416.957,214.225C416.957,214.225 412.5,218.987 409.135,219.409C414.13,220.145 412.965,221.193 412.965,221.193C412.965,221.193 405.9,229.183 399.669,227.934C404.26,229.181 401.997,230.928 401.997,230.928C401.997,230.928 385.291,235.696 377.255,225.204C383.996,220.244 392.324,217.263 401.183,214.947C393.775,216.154 386.542,217.96 376.26,223.523Z" style="fill:rgb(145,158,94);"/>
        </g>
        <g transform="matrix(2.85316e-16,4.65957,-4.65957,2.85316e-16,1181.6,-904.61)">
            <path d="M188.272,307.195C188.272,307.195 181.335,319.461 166.653,321.931C168.451,318.719 169.619,317.019 169.619,317.019C169.619,317.019 164.298,322.107 158.424,320.713C158.781,318.604 158.952,317.886 160.591,316.082C157.13,317.757 155.708,319.386 150.459,317.234C152.206,314.145 152.662,314.308 152.662,314.308C152.662,314.308 147.296,315.596 142.54,310.811C145.485,307.432 146.746,306.338 149.869,306.147C146.758,304.387 146.721,303.171 146.721,303.171C146.721,303.171 152.453,300.06 155.779,300.721C151.271,298.446 152.708,297.819 152.708,297.819C152.708,297.819 161.934,292.468 167.452,295.62C163.489,292.987 166.188,292.044 166.188,292.044C166.188,292.044 183.545,292.793 187.858,305.285C179.896,307.864 171.054,308.063 161.916,307.465C169.327,308.658 176.76,309.227 188.272,307.195Z" style="fill:rgb(145,158,94);"/>
        </g>
        <g transform="matrix(2.85316e-16,4.65957,-4.65957,2.85316e-16,2839.53,-904.61)">
            <path d="M156.09,495.782C156.09,495.782 143.489,502.089 129.927,495.946C133.212,494.284 135.13,493.525 135.13,493.525C135.13,493.525 127.875,494.778 123.778,490.343C125.252,488.792 125.794,488.291 128.161,487.71C124.354,487.168 122.265,487.726 119.111,483.011C122.284,481.423 122.571,481.812 122.571,481.812C122.571,481.812 117.4,479.886 116.124,473.262C120.453,472.102 122.11,471.898 124.808,473.481C123.209,470.285 123.857,469.255 123.857,469.255C123.857,469.255 130.35,469.872 132.74,472.278C130.27,467.874 131.812,468.155 131.812,468.155C131.812,468.155 142.453,468.864 145.274,474.559C143.454,470.163 146.22,470.886 146.22,470.886C146.22,470.886 160.205,481.194 156.813,493.967C148.767,491.663 141.318,486.894 134.07,481.299C139.553,486.424 145.404,491.044 156.09,495.782Z" style="fill:rgb(145,158,94);"/>
        </g>
        <g transform="matrix(2.85316e-16,4.65957,-4.65957,2.85316e-16,4730.71,-904.61)">
            <path d="M206.379,700.621C206.379,700.621 209.665,686.399 200.338,674.776C199.463,678.488 199.163,680.596 199.163,680.596C199.163,680.596 198.689,673.084 193.306,670.309C192.112,672.203 191.742,672.881 191.725,675.38C190.284,671.781 190.343,669.562 184.905,667.795C184.078,671.376 184.533,671.548 184.533,671.548C184.533,671.548 181.391,666.998 174.498,667.626C174.371,672.226 174.561,673.918 176.776,676.127C173.217,675.461 172.346,676.393 172.346,676.393C172.346,676.393 174.5,682.62 177.46,684.292C172.493,683.111 173.138,684.551 173.138,684.551C173.138,684.551 176.367,694.843 182.701,696.001C177.896,695.46 179.272,697.981 179.272,697.981C179.272,697.981 192.842,708.835 204.745,701.851C200.545,694.573 194.034,688.587 186.749,683.033C193.148,686.98 199.132,691.433 206.379,700.621Z" style="fill:rgb(145,158,94);"/>
        </g>
        <g transform="matrix(2.85316e-16,4.65957,-4.65957,2.85316e-16,4627.15,-904.61)">
            <path d="M110.838,689.508C110.838,689.508 114.124,675.286 104.797,663.663C103.922,667.375 103.622,669.483 103.622,669.483C103.622,669.483 103.148,661.971 97.765,659.195C96.571,661.09 96.201,661.768 96.184,664.267C94.743,660.668 94.802,658.449 89.364,656.682C88.537,660.263 88.992,660.435 88.992,660.435C88.992,660.435 85.85,655.885 78.957,656.513C78.83,661.113 79.02,662.805 81.235,665.014C77.676,664.348 76.805,665.28 76.805,665.28C76.805,665.28 78.959,671.507 81.919,673.179C76.952,671.997 77.597,673.438 77.597,673.438C77.597,673.438 80.826,683.73 87.16,684.888C82.355,684.347 83.731,686.868 83.731,686.868C83.731,686.868 97.301,697.722 109.204,690.738C105.004,683.46 98.493,677.473 91.208,671.92C97.607,675.867 103.591,680.32 110.838,689.508Z" style="fill:rgb(145,158,94);"/>
        </g>
        <g transform="matrix(2.85316e-16,4.65957,-4.65957,2.85316e-16,2472.32,-904.61)">
            <path d="M137.881,429.115C137.881,429.115 125.044,427.987 116.666,437.97C120.019,438.28 121.889,438.277 121.889,438.277C121.889,438.277 115.498,439.688 114.052,444.936C115.895,445.773 116.544,446.02 118.702,445.709C115.853,447.488 113.929,447.723 113.363,452.89C116.595,453.174 116.664,452.738 116.664,452.738C116.664,452.738 113.294,456.183 115.048,462.358C119.035,461.874 120.46,461.481 121.975,459.182C122.027,462.499 122.983,463.168 122.983,463.168C122.983,463.168 127.971,460.401 128.892,457.496C128.747,462.159 129.875,461.385 129.875,461.385C129.875,461.385 138.178,457.112 138.063,451.211C138.441,455.643 140.373,454.065 140.373,454.065C140.373,454.065 147.341,440.331 139.228,430.438C133.693,435.2 129.679,441.89 126.173,449.228C128.45,442.905 131.235,436.892 137.881,429.115Z" style="fill:rgb(145,158,94);"/>
        </g>
        <g transform="matrix(2.85316e-16,4.65957,-4.65957,2.85316e-16,3721.86,-904.61)">
            <path d="M120.316,582.418C120.316,582.418 115.75,568.553 101.747,563.452C102.925,567.079 103.761,569.037 103.761,569.037C103.761,569.037 99.46,562.861 93.418,563.279C93.38,565.518 93.415,566.289 94.697,568.435C91.597,566.105 90.498,564.177 84.932,565.486C86.081,568.977 86.56,568.888 86.56,568.888C86.56,568.888 81.514,566.627 75.946,570.739C78.222,574.738 79.262,576.086 82.302,576.826C78.914,578.102 78.652,579.351 78.652,579.351C78.652,579.351 83.723,583.558 87.121,583.453C82.261,585.018 83.56,585.915 83.56,585.915C83.56,585.915 91.657,593.041 97.674,590.747C93.285,592.775 95.769,594.218 95.769,594.218C95.769,594.218 113.001,596.461 119.556,584.317C112.191,580.272 103.52,578.529 94.411,577.559C101.929,577.615 109.354,578.32 120.316,582.418Z" style="fill:rgb(145,158,94);"/>
        </g>
        <g transform="matrix(2.85316e-16,4.65957,-4.65957,2.85316e-16,1909.18,-904.61)">
            <path d="M263.337,367.646C263.337,367.646 248.829,366.035 238.368,376.65C242.157,377.087 244.285,377.14 244.285,377.14C244.285,377.14 236.88,378.484 234.749,384.154C236.769,385.119 237.485,385.407 239.97,385.134C236.562,386.984 234.351,387.183 233.228,392.789C236.881,393.195 237,392.723 237,392.723C237,392.723 232.845,396.372 234.27,403.146C238.854,402.738 240.512,402.352 242.449,399.895C242.201,403.507 243.228,404.264 243.228,404.264C243.228,404.264 249.162,401.401 250.479,398.267C249.883,403.338 251.238,402.529 251.238,402.529C251.238,402.529 261.085,398.127 261.5,391.701C261.52,396.536 263.865,394.877 263.865,394.877C263.865,394.877 273.068,380.137 264.748,369.126C258.008,374.143 252.818,381.306 248.149,389.187C251.326,382.373 255.053,375.912 263.337,367.646Z" style="fill:rgb(145,158,94);"/>
        </g>
        <g transform="matrix(2.85316e-16,4.65957,-4.65957,2.85316e-16,1671.03,-904.61)">
            <path d="M121.53,362.351C121.53,362.351 116.964,348.486 102.961,343.386C104.139,347.013 104.976,348.971 104.976,348.971C104.976,348.971 100.675,342.794 94.632,343.213C94.594,345.452 94.63,346.223 95.911,348.369C92.812,346.038 91.712,344.11 86.146,345.42C87.295,348.911 87.775,348.822 87.775,348.822C87.775,348.822 82.728,346.56 77.16,350.672C79.437,354.671 80.477,356.02 83.516,356.76C80.128,358.036 79.867,359.284 79.867,359.284C79.867,359.284 84.937,363.492 88.335,363.387C83.476,364.952 84.774,365.849 84.774,365.849C84.774,365.849 92.872,372.974 98.889,370.68C94.5,372.708 96.983,374.151 96.983,374.151C96.983,374.151 114.215,376.394 120.77,364.25C113.405,360.205 104.734,358.463 95.625,357.493C103.143,357.549 110.568,358.253 121.53,362.351Z" style="fill:rgb(145,158,94);"/>
        </g>
        <g transform="matrix(2.85316e-16,4.65957,-4.65957,2.85316e-16,565.831,-904.61)">
            <path d="M111.162,223.072C111.162,223.072 96.619,221.822 86.425,232.694C90.223,233.037 92.352,233.037 92.352,233.037C92.352,233.037 84.983,234.564 82.993,240.285C85.037,241.2 85.76,241.47 88.237,241.135C84.876,243.07 82.671,243.323 81.687,248.956C85.349,249.271 85.456,248.795 85.456,248.795C85.456,248.795 81.393,252.547 82.986,259.283C87.558,258.761 89.207,258.335 91.082,255.83C90.924,259.447 91.969,260.178 91.969,260.178C91.969,260.178 97.831,257.169 99.069,254.004C98.599,259.087 99.934,258.245 99.934,258.245C99.934,258.245 109.668,253.6 109.923,247.165C110.064,251.998 112.367,250.281 112.367,250.281C112.367,250.281 121.201,235.317 112.61,224.517C105.996,229.7 100.986,236.989 96.514,244.984C99.521,238.093 103.086,231.542 111.162,223.072Z" style="fill:rgb(145,158,94);"/>
        </g>
        <g transform="matrix(2.85316e-16,4.65957,-4.65957,2.85316e-16,214.803,-904.61)">
            <path d="M171.044,191.946C171.044,191.946 168.717,206.356 178.803,217.329C179.426,213.566 179.584,211.443 179.584,211.443C179.584,211.443 180.561,218.906 186.118,221.315C187.182,219.345 187.505,218.644 187.355,216.149C189.035,219.644 189.123,221.862 194.668,223.261C195.254,219.632 194.788,219.491 194.788,219.491C194.788,219.491 198.227,223.821 205.063,222.732C204.882,218.134 204.579,216.459 202.221,214.403C205.816,214.829 206.623,213.841 206.623,213.841C206.623,213.841 204.057,207.772 200.992,206.302C206.027,207.148 205.286,205.754 205.286,205.754C205.286,205.754 201.376,195.702 194.978,194.97C199.808,195.189 198.267,192.765 198.267,192.765C198.267,192.765 184,182.844 172.592,190.609C177.27,197.59 184.167,203.127 191.808,208.18C185.159,204.67 178.89,200.628 171.044,191.946Z" style="fill:rgb(145,158,94);"/>
        </g>
        <g transform="matrix(2.85316e-16,4.65957,-4.65957,2.85316e-16,104.152,-904.61)">
            <path d="M299.801,171.537C299.801,171.537 291.48,183.531 295.838,197.782C298.025,194.658 299.085,192.811 299.085,192.811C299.085,192.811 296.743,199.964 300.715,204.537C302.526,203.219 303.12,202.726 304.062,200.411C304.067,204.289 303.19,206.328 307.586,209.983C309.682,206.964 309.322,206.635 309.322,206.635C309.322,206.635 310.555,212.026 317.191,213.995C319.013,209.77 319.463,208.128 318.224,205.255C321.283,207.192 322.437,206.649 322.437,206.649C322.437,206.649 322.744,200.068 320.614,197.418C324.789,200.355 324.724,198.778 324.724,198.778C324.724,198.778 325.537,188.023 320.083,184.6C324.345,186.883 324.002,184.031 324.002,184.031C324.002,184.031 315.417,168.923 301.774,171C302.979,179.317 306.809,187.289 311.519,195.146C307.037,189.109 303.129,182.757 299.801,171.537Z" style="fill:rgb(145,158,94);"/>
        </g>
        <g transform="matrix(2.85316e-16,4.65957,-4.65957,2.85316e-16,-146.361,-904.61)">
            <path d="M349.263,141.934C349.263,141.934 335.901,147.811 332.17,162.24C335.668,160.719 337.536,159.698 337.536,159.698C337.536,159.698 331.802,164.573 332.799,170.547C335.031,170.37 335.795,170.26 337.808,168.778C335.787,172.088 333.973,173.367 335.812,178.782C339.176,177.302 339.042,176.834 339.042,176.834C339.042,176.834 337.276,182.074 341.904,187.221C345.666,184.571 346.908,183.406 347.352,180.309C348.948,183.559 350.216,183.699 350.216,183.699C350.216,183.699 353.916,178.248 353.485,174.876C355.51,179.562 356.278,178.183 356.278,178.183C356.278,178.183 362.592,169.438 359.73,163.67C362.171,167.843 363.368,165.232 363.368,165.232C363.368,165.232 363.944,147.865 351.226,142.507C347.908,150.227 347.008,159.026 346.917,168.186C346.251,160.697 346.238,153.239 349.263,141.934Z" style="fill:rgb(145,158,94);"/>
        </g>
        <g transform="matrix(2.85316e-16,4.65957,-4.65957,2.85316e-16,-225.517,-904.61)">
            <path d="M170.027,136.523C170.027,136.523 155.434,136.899 146.514,148.837C150.326,148.755 152.442,148.518 152.442,148.518C152.442,148.518 145.288,150.857 143.947,156.763C146.08,157.445 146.829,157.633 149.253,157.024C146.128,159.321 143.965,159.818 143.614,165.525C147.289,165.431 147.342,164.946 147.342,164.946C147.342,164.946 143.722,169.127 146.054,175.644C150.54,174.616 152.13,174.009 153.715,171.312C153.961,174.924 155.081,175.534 155.081,175.534C155.081,175.534 160.571,171.892 161.45,168.608C161.548,173.712 162.781,172.727 162.781,172.727C162.781,172.727 171.938,167.027 171.476,160.604C172.153,165.392 174.251,163.429 174.251,163.429C174.251,163.429 181.365,147.575 171.626,137.798C165.63,143.684 161.462,151.486 157.907,159.928C160.128,152.746 162.943,145.838 170.027,136.523Z" style="fill:rgb(145,158,94);"/>
        </g>
        <g transform="matrix(2.85316e-16,4.65957,-4.65957,2.85316e-16,1239.01,-904.61)">
            <path d="M114.745,316.846C114.745,316.846 111.032,302.729 97.365,296.785C98.32,300.477 99.036,302.482 99.036,302.482C99.036,302.482 95.119,296.055 89.062,296.105C88.888,298.338 88.876,299.109 90.025,301.33C87.073,298.815 86.093,296.823 80.457,297.791C81.392,301.346 81.876,301.286 81.876,301.286C81.876,301.286 76.976,298.722 71.168,302.487C73.197,306.617 74.153,308.026 77.142,308.95C73.682,310.018 73.346,311.248 73.346,311.248C73.346,311.248 78.15,315.756 81.548,315.858C76.602,317.125 77.844,318.099 77.844,318.099C77.844,318.099 85.493,325.704 91.638,323.781C87.134,325.538 89.525,327.13 89.525,327.13C89.525,327.13 106.588,330.418 113.871,318.695C106.766,314.209 98.217,311.942 89.183,310.419C96.684,310.933 104.053,312.088 114.745,316.846Z" style="fill:rgb(145,158,94);"/>
        </g>
        <g transform="matrix(2.85316e-16,4.65957,-4.65957,2.85316e-16,4390.5,-904.61)">
            <path d="M326.209,671.463C326.209,671.463 334.626,659.536 330.381,645.25C328.169,648.357 327.095,650.195 327.095,650.195C327.095,650.195 329.494,643.061 325.558,638.457C323.737,639.761 323.139,640.248 322.179,642.556C322.204,638.679 323.098,636.647 318.73,632.956C316.611,635.959 316.968,636.291 316.968,636.291C316.968,636.291 315.778,630.89 309.158,628.868C307.302,633.078 306.839,634.717 308.055,637.599C305.012,635.638 303.854,636.172 303.854,636.172C303.854,636.172 303.495,642.751 305.603,645.417C301.451,642.447 301.505,644.024 301.505,644.024C301.505,644.024 300.605,654.773 306.032,658.239C301.788,655.922 302.109,658.776 302.109,658.776C302.109,658.776 310.573,673.953 324.232,671.984C323.093,663.659 319.327,655.656 314.68,647.761C319.113,653.834 322.971,660.217 326.209,671.463Z" style="fill:rgb(145,158,94);"/>
        </g>
        <g transform="matrix(2.85316e-16,4.65957,-4.65957,2.85316e-16,-26.1902,-904.61)">
            <path d="M380.971,166.675C380.971,166.675 379.066,181.147 389.466,191.821C389.98,188.042 390.076,185.915 390.076,185.915C390.076,185.915 391.27,193.347 396.895,195.593C397.901,193.592 398.204,192.882 397.981,190.393C399.761,193.837 399.915,196.052 405.498,197.289C405.978,193.645 405.507,193.517 405.507,193.517C405.507,193.517 409.072,197.745 415.873,196.457C415.558,191.866 415.206,190.2 412.789,188.214C416.396,188.535 417.173,187.524 417.173,187.524C417.173,187.524 414.432,181.533 411.325,180.152C416.382,180.852 415.602,179.48 415.602,179.48C415.602,179.48 411.4,169.546 404.984,169C409.818,169.079 408.207,166.701 408.207,166.701C408.207,166.701 393.657,157.2 382.48,165.294C387.359,172.135 394.415,177.469 402.199,182.297C395.451,178.983 389.067,175.125 380.971,166.675Z" style="fill:rgb(145,158,94);"/>
        </g>
        <g transform="matrix(2.85316e-16,4.65957,-4.65957,2.85316e-16,2738.32,-904.61)">
            <path d="M248.398,473.418C248.398,473.418 241.172,460.735 226.435,458.514C228.309,461.835 229.518,463.588 229.518,463.588C229.518,463.588 224.076,458.388 218.237,459.997C218.644,462.199 218.832,462.948 220.514,464.797C217.014,463.128 215.553,461.456 210.358,463.844C212.177,467.038 212.629,466.856 212.629,466.856C212.629,466.856 207.234,465.641 202.593,470.776C205.618,474.244 206.904,475.358 210.031,475.481C206.963,477.404 206.955,478.679 206.955,478.679C206.955,478.679 212.759,481.797 216.068,481.02C211.616,483.518 213.067,484.139 213.067,484.139C213.067,484.139 222.417,489.516 227.86,486.074C223.96,488.933 226.681,489.854 226.681,489.854C226.681,489.854 244.015,488.633 248.03,475.43C240.009,472.927 231.164,472.94 222.044,473.796C229.424,472.36 236.841,471.577 248.398,473.418Z" style="fill:rgb(145,158,94);"/>
        </g>
        <g transform="matrix(2.85316e-16,4.65957,-4.65957,2.85316e-16,2442.61,-904.61)">
            <path d="M296.402,453.382C296.402,453.382 298.446,438.929 288.149,428.155C287.599,431.929 287.482,434.055 287.482,434.055C287.482,434.055 286.36,426.613 280.757,424.313C279.731,426.304 279.422,427.011 279.621,429.503C277.873,426.041 277.741,423.825 272.17,422.535C271.655,426.174 272.124,426.307 272.124,426.307C272.124,426.307 268.6,422.045 261.788,423.267C262.058,427.86 262.394,429.529 264.792,431.539C261.189,431.183 260.402,432.187 260.402,432.187C260.402,432.187 263.086,438.204 266.179,439.614C261.129,438.866 261.896,440.246 261.896,440.246C261.896,440.246 266.002,450.22 272.413,450.827C267.58,450.702 269.168,453.095 269.168,453.095C269.168,453.095 283.626,462.735 294.88,454.749C290.067,447.861 283.063,442.46 275.325,437.557C282.041,440.936 288.387,444.855 296.402,453.382Z" style="fill:rgb(145,158,94);"/>
        </g>
        <g transform="matrix(2.85316e-16,4.65957,-4.65957,2.85316e-16,3456.47,-904.61)">
            <path d="M252.965,562.175C252.965,562.175 255.009,547.721 244.712,536.948C244.162,540.722 244.045,542.848 244.045,542.848C244.045,542.848 242.923,535.406 237.32,533.106C236.294,535.097 235.985,535.804 236.184,538.295C234.436,534.834 234.304,532.618 228.733,531.328C228.219,534.967 228.687,535.099 228.687,535.099C228.687,535.099 225.164,530.837 218.351,532.059C218.621,536.653 218.957,538.322 221.355,540.332C217.752,539.976 216.965,540.98 216.965,540.98C216.965,540.98 219.649,546.997 222.742,548.407C217.692,547.659 218.459,549.038 218.459,549.038C218.459,549.038 222.565,559.012 228.976,559.619C224.143,559.495 225.731,561.888 225.731,561.888C225.731,561.888 240.189,571.528 251.443,563.541C246.63,556.654 239.626,551.252 231.888,546.35C238.604,549.729 244.95,553.647 252.965,562.175Z" style="fill:rgb(145,158,94);"/>
        </g>
        <g transform="matrix(2.85316e-16,4.65957,-4.65957,2.85316e-16,3578.05,-904.61)">
            <path d="M173.199,574.035C173.199,574.035 160.936,580.977 147.078,575.534C150.274,573.706 152.151,572.851 152.151,572.851C152.151,572.851 144.969,574.472 140.652,570.252C142.044,568.628 142.56,568.1 144.894,567.398C141.064,567.052 139.007,567.716 135.616,563.168C138.704,561.42 139.011,561.794 139.011,561.794C139.011,561.794 133.748,560.135 132.135,553.584C136.4,552.204 138.044,551.916 140.819,553.36C139.059,550.25 139.654,549.188 139.654,549.188C139.654,549.188 146.169,549.473 148.68,551.753C145.988,547.481 147.542,547.683 147.542,547.683C147.542,547.683 158.206,547.847 161.313,553.391C159.272,549.094 162.071,549.675 162.071,549.675C162.071,549.675 176.564,559.255 173.828,572.185C165.675,570.295 157.992,565.913 150.468,560.694C156.206,565.533 162.284,569.849 173.199,574.035Z" style="fill:rgb(145,158,94);"/>
        </g>
        <g transform="matrix(2.85316e-16,4.65957,-4.65957,2.85316e-16,3958.91,-904.61)">
            <path d="M209.901,628.035C209.901,628.035 198.189,620.199 196.825,605.373C199.893,607.407 201.501,608.7 201.501,608.7C201.501,608.7 196.826,603.012 198.656,597.259C200.733,597.773 201.436,597.997 203.112,599.767C201.701,596.19 200.183,594.65 202.722,589.577C205.671,591.55 205.475,591.993 205.475,591.993C205.475,591.993 204.593,586.545 209.721,582.161C212.869,585.351 213.866,586.691 213.823,589.819C215.811,586.849 217.026,586.903 217.026,586.903C217.026,586.903 219.699,592.852 218.79,596.119C221.397,591.795 221.915,593.274 221.915,593.274C221.915,593.274 226.559,602.875 223.003,608.142C225.925,604.387 226.664,607.149 226.664,607.149C226.664,607.149 224.616,624.401 211.836,627.766C209.861,619.633 210.324,610.801 211.605,601.734C209.861,609.034 208.736,616.404 209.901,628.035Z" style="fill:rgb(145,158,94);"/>
        </g>
        <g transform="matrix(2.85316e-16,4.65957,-4.65957,2.85316e-16,4030.1,-904.61)">
            <path d="M185.211,631.214C185.211,631.214 171.129,631.744 161.323,620.54C165.001,620.386 167.061,620.489 167.061,620.489C167.061,620.489 159.938,618.628 158.043,612.896C160.026,612.093 160.727,611.861 163.123,612.311C159.881,610.243 157.748,609.887 156.827,604.29C160.372,604.156 160.473,604.63 160.473,604.63C160.473,604.63 156.562,600.737 158.14,594.178C162.561,594.913 164.154,595.412 165.955,597.97C165.822,594.399 166.838,593.729 166.838,593.729C166.838,593.729 172.494,596.977 173.675,600.156C173.248,595.124 174.535,596.018 174.535,596.018C174.535,596.018 183.93,601.065 184.142,607.417C184.304,602.662 186.524,604.465 186.524,604.465C186.524,604.465 194.992,619.634 186.62,629.86C180.247,624.435 175.438,617.011 171.154,608.919C174.026,615.853 177.441,622.48 185.211,631.214Z" style="fill:rgb(145,158,94);"/>
        </g>
        <g transform="matrix(2.85316e-16,4.65957,-4.65957,2.85316e-16,2892.42,-904.61)">
            <path d="M330.636,493.421C330.76,507.952 317.379,510.121 317.379,510.121C320.623,503.763 317.653,495.454 307.502,491.542C298.508,488.076 301.081,477.024 307.683,475.464L309.481,471.192L310.888,475.266C318.535,475.748 329.502,481.426 330.543,491.555L340.106,491.645L339.8,493.86L330.636,493.421ZM308.35,480.093C309.175,480.09 309.846,480.788 309.848,481.651C309.85,482.513 309.183,483.215 308.359,483.217C307.535,483.219 306.864,482.521 306.861,481.659C306.859,480.797 307.526,480.095 308.35,480.093Z" style="fill:rgb(30,53,47);"/>
        </g>
        <g transform="matrix(2.85316e-16,4.65957,-4.65957,2.85316e-16,755.075,-904.61)">
            <path d="M300.757,258.449C300.801,243.917 287.408,241.821 287.408,241.821C290.687,248.161 287.763,256.487 277.634,260.454C268.659,263.97 271.292,275.007 277.902,276.531L279.724,280.793L281.108,276.711C288.753,276.188 299.688,270.449 300.674,260.315L310.237,260.173L309.919,257.959L300.757,258.449ZM278.545,271.899C279.369,271.897 280.036,271.195 280.034,270.333C280.031,269.471 279.36,268.772 278.536,268.775C277.712,268.777 277.045,269.479 277.047,270.341C277.049,271.203 277.72,271.901 278.545,271.899Z" style="fill:rgb(30,53,47);"/>
        </g>
        <g transform="matrix(2.85316e-16,4.65957,-4.65957,2.85316e-16,2549.28,-904.61)">
            <path d="M181.139,450.978C181.183,436.446 167.79,434.351 167.79,434.351C171.069,440.69 168.144,449.016 158.015,452.984C149.041,456.499 151.674,467.537 158.284,469.061L160.106,473.322L161.49,469.241C169.135,468.717 180.07,462.978 181.055,452.845L190.619,452.702L190.3,450.488L181.139,450.978ZM158.926,464.428C159.751,464.426 160.418,463.724 160.415,462.862C160.413,462 159.742,461.302 158.918,461.304C158.094,461.306 157.426,462.008 157.429,462.87C157.431,463.732 158.102,464.431 158.926,464.428Z" style="fill:rgb(30,53,47);"/>
        </g>
        <g transform="matrix(2.85316e-16,4.65957,-4.65957,2.85316e-16,3399.36,-904.61)">
            <path d="M204.358,542.196C204.402,527.664 191.009,525.569 191.009,525.569C194.288,531.908 191.363,540.234 181.235,544.202C172.26,547.717 174.893,558.755 181.503,560.279L183.325,564.54L184.709,560.459C192.354,559.935 203.289,554.197 204.275,544.063L213.838,543.92L213.519,541.706L204.358,542.196ZM182.146,555.646C182.97,555.644 183.637,554.942 183.635,554.08C183.632,553.218 182.961,552.52 182.137,552.522C181.313,552.524 180.645,553.226 180.648,554.088C180.65,554.951 181.321,555.649 182.146,555.646Z" style="fill:rgb(30,53,47);"/>
        </g>
    </g>
    <g id="Layer2" transform="matrix(1,0,0,1,1456.22,819.197)">
        <g transform="matrix(2.85316e-16,4.65957,-4.65957,2.85316e-16,2336.23,-904.61)">
            <path d="M377.256,425.113C374.879,422.055 373.12,419.069 373.12,419.069C373.12,419.069 369.46,410.824 364.032,404.964C358.605,399.104 360.934,394.369 354.926,388.621C348.917,382.872 345.995,364.778 345.995,364.778C345.995,364.778 374.996,382.376 376.262,385.391C377.528,388.406 390.994,390.416 397.211,392.714C403.429,395.013 407.908,391.905 417.124,391.789C426.34,391.673 432.478,388.696 441.708,392.293C450.937,395.89 452.821,388.256 463.94,384.736C475.058,381.216 476.952,381.039 481.357,380.366C485.761,379.693 491.43,374.196 495.106,364.575C498.782,354.954 510.476,350.364 510.476,350.364C510.476,350.364 515.69,360.698 513.439,364.379C511.189,368.06 511.518,373.465 506.025,388.659C500.533,403.852 501.651,396.969 497.12,401.037C492.589,405.106 497.219,409.73 496.811,414.533C496.403,419.335 492.075,419.05 491.05,422.13C490.483,423.835 489.191,429.074 488.152,433.41C488.347,434.318 488.517,435.053 488.647,435.53C489.541,438.802 493.878,438.685 494.084,443.737C494.29,448.789 489.469,453.443 493.826,457.898C498.183,462.354 497.354,455.09 502.204,471.25C507.054,487.41 506.498,493.063 508.592,497.017C510.686,500.97 505.043,511.586 505.043,511.586C505.043,511.586 493.551,506.283 490.282,496.042C487.014,485.8 481.581,479.799 477.208,478.908C472.835,478.017 470.951,477.753 459.99,473.595C449.028,469.438 447.467,461.355 438.094,464.739C428.722,468.122 422.714,464.743 413.51,464.235C404.307,463.726 399.962,460.28 393.654,462.428C387.345,464.577 373.807,466.119 372.415,469.226C371.023,472.334 362.758,488.468 361.009,493.916C359.26,499.364 344.326,482.73 344.326,482.73C344.326,482.73 344.988,470.719 351.232,464.944C357.477,459.17 355.349,454.107 361.018,448.192C366.687,442.276 370.69,433.786 370.69,433.786C370.69,433.786 373.751,428.817 377.256,425.113Z" style="fill:rgb(131,109,71);"/>
        </g>
        <g transform="matrix(2.85316e-16,4.65957,-4.65957,2.85316e-16,3207.15,-904.61)">
            <path d="M371.579,601.994L348.502,596.946C348.502,596.946 341.366,569.306 339.788,560.033C338.211,550.76 332.901,523.392 331.002,519.354C329.103,515.315 331.205,502.805 322.821,496.134C314.436,489.463 315.163,476.794 306.397,471.361C304.31,470.067 298.131,464.213 287.034,457.965C280.755,454.431 271.169,451.956 263.892,449.548C265.123,446.865 269.43,446.982 275.702,448.294C275.702,448.294 281.474,450.02 287.543,451.293C296.572,453.186 297.747,456.576 307.854,462.331C317.961,468.086 320.57,466.258 322.342,472.077C324.115,477.896 329.088,480.436 332.042,485.346C334.997,490.257 336.634,484.706 338.662,494.933C340.69,505.16 344.444,507.663 349.521,512.264C354.598,516.865 353.609,517.549 353.381,523.495C353.153,529.441 357.343,558.309 363.078,572.143C368.812,585.977 371.579,601.994 371.579,601.994Z" style="fill:rgb(131,109,71);"/>
        </g>
        <g transform="matrix(2.85316e-16,4.65957,-4.65957,2.85316e-16,1573.99,-904.61)">
            <path d="M382.145,280.587C382.145,280.587 359.812,288.659 354.099,287.684C348.386,286.709 333.545,281.71 329.611,287.771C325.677,293.832 316.528,296.638 310.177,306.341C303.826,316.045 288.876,312.509 286.134,315.394C283.392,318.278 266.804,351.842 267.771,356.669C268.737,361.497 262.159,397.737 263.287,403.358C264.415,408.978 254.975,436.159 255.969,445.082C256.963,454.004 248.735,451.657 248.735,451.657C248.735,451.657 244.177,437.618 247.467,434.092C250.758,430.566 249.904,426.614 250.996,419.951C252.088,413.287 257.212,403.779 255.092,398.901C252.972,394.023 256.78,386.192 256.78,386.192C256.78,386.192 250.501,379.017 247.899,384.455C245.298,389.893 241.14,395.43 236.393,393.856C231.646,392.283 228.95,388.053 223.168,395.091C217.386,402.128 213.324,396.635 205.98,403.802C198.635,410.97 198.557,398.626 198.557,398.626L204.286,393.907C204.286,393.907 206.675,397.497 212.531,392.87C218.387,388.243 217.542,383.693 223.289,384.383C229.035,385.073 224.844,387.766 232.721,383.115C240.599,378.464 239.221,374.396 243.771,374.957C248.321,375.517 254.151,374.769 255.77,370.924C257.39,367.078 257.526,358.019 260.228,352.57C262.93,347.121 263.326,344.118 264.907,338.074C266.488,332.031 264.257,325.227 268.373,321.664C272.488,318.101 269.523,308.897 276.372,306.69C283.222,304.483 281.369,306.469 289.341,297.529C297.314,288.588 291.205,286.395 297.293,282.881C303.38,279.368 302.11,283.453 307.903,277.649C313.696,271.844 303.643,266.428 313.682,265.386C323.72,264.343 323.914,269.29 331.146,266.425C338.377,263.561 335.049,254.903 344.461,256.619C353.873,258.336 352.706,260.882 362.113,257.588C371.519,254.294 374.728,244.763 380.839,244.561C386.95,244.36 382.145,280.587 382.145,280.587Z" style="fill:rgb(131,109,71);"/>
        </g>
        <g transform="matrix(2.85316e-16,4.65957,-4.65957,2.85316e-16,2064.92,-904.61)">
            <path d="M298.729,395.002C298.729,395.002 288.179,400.911 284.871,400.833C281.562,400.755 269.357,396.306 265.209,393.419C261.061,390.533 253.726,389.16 249.824,390.929C245.921,392.699 240.919,392.246 236.747,395.676C232.576,399.107 226.769,404.008 225.102,413.02C223.436,422.033 218.264,424.176 212.434,426.61C206.605,429.044 185.356,432.65 185.356,432.65L186.428,427.378C186.428,427.378 195.05,425.097 200.258,424.517C205.465,423.937 204.577,420.557 211.795,415.462C219.013,410.366 214.317,407.894 217.746,402.083C221.174,396.272 222.014,392.811 225.657,388.001C229.3,383.19 232.448,374.547 236.707,376.234C240.966,377.921 241.486,376.778 248.446,377.472C255.407,378.166 250.956,372.153 260.187,376.309C269.417,380.464 267.106,380.554 276.182,382.093C285.259,383.633 286.093,383.96 293.57,381.173C301.047,378.386 305.548,371.073 312.413,372.686C319.279,374.3 323.149,384.39 323.149,384.39L298.729,395.002Z" style="fill:rgb(131,109,71);"/>
        </g>
        <g transform="matrix(2.85316e-16,4.65957,-4.65957,2.85316e-16,2515.17,-904.61)">
            <path d="M196.537,457.786C196.537,457.786 205.054,470.914 209.393,470.634C213.732,470.354 215.242,468.93 219.322,471.294C223.403,473.657 226.5,476.277 226.5,476.277L237.605,481.495L251.832,479.65L241.166,470.3L231.379,463.915C231.379,463.915 226.553,460.227 222.826,461.886C219.098,463.545 216.881,461.245 213.631,461.212C210.382,461.179 205.269,456.371 204.382,454.154C203.495,451.938 198.422,449.586 198.545,444.21C198.668,438.835 197.414,434.942 191.385,430.661C185.355,426.38 182.274,421.689 177.935,420.273C173.596,418.857 172.724,425.754 172.724,425.754C172.724,425.754 177.047,427.684 180.471,430.961C183.894,434.237 186.718,434.842 188.865,440.667C191.011,446.492 196.537,457.786 196.537,457.786Z" style="fill:rgb(131,109,71);"/>
        </g>
        <g transform="matrix(2.85316e-16,4.65957,-4.65957,2.85316e-16,2437.42,-904.61)">
            <path d="M303.633,463.359C303.633,463.359 298.446,457.608 307.142,449.825C315.838,442.042 314.798,436.095 321.731,436.549C328.664,437.004 331.298,434.712 337.073,431.812C342.849,428.913 346.676,424.761 352.991,425.802C359.306,426.843 369.585,420.307 375.231,423.116C380.877,425.926 385.628,439.126 385.628,439.126C385.628,439.126 378.145,454.195 373.455,454.417C368.764,454.639 345.118,455.77 345.118,455.77L324.855,462.721L303.633,463.359Z" style="fill:rgb(131,109,71);"/>
        </g>
        <g transform="matrix(2.85316e-16,4.65957,-4.65957,2.85316e-16,3138.75,-904.61)">
            <path d="M339.802,543.15L332.869,526.862C332.869,526.862 324.485,519.89 320.131,520.92C315.776,521.951 310.25,520.429 306.206,517.977C302.161,515.525 294.77,509.32 290.389,508.373C286.007,507.425 279.877,502.849 279.877,502.849C279.877,502.849 272.102,491.029 280.751,495.549C289.4,500.069 289.603,498.134 294.562,501.648C299.521,505.162 300.643,504.731 307.267,507.862C313.892,510.994 310.893,506.606 318.146,509.375C325.399,512.144 322.276,511.529 328.916,512.33C335.555,513.132 338.244,509.273 340.375,511.733C342.506,514.193 339.802,543.15 339.802,543.15Z" style="fill:rgb(131,109,71);"/>
        </g>
        <g transform="matrix(2.85316e-16,4.65957,-4.65957,2.85316e-16,3916.34,-904.61)">
            <path d="M326.052,636.045L321.894,623.459C321.894,623.459 321.188,616.129 324.731,612.7C328.274,609.272 328.314,606.43 327.797,601.512C327.28,596.595 326.255,592.529 329.666,589.429C333.076,586.329 334.349,578.682 334.349,578.682L335.512,571.474L333.318,565.014L328.799,573.668C328.799,573.668 327.699,578.918 326.12,581.085C324.54,583.252 323.439,584.581 323.325,588.517C323.21,592.454 323.117,591.684 320.773,594.865C318.43,598.046 318.96,595.644 318.8,600.739C318.639,605.835 310.808,620.399 310.808,620.399L326.052,636.045Z" style="fill:rgb(131,109,71);"/>
        </g>
        <g transform="matrix(2.85316e-16,4.65957,-4.65957,2.85316e-16,1348.97,-904.61)">
            <path d="M348.768,259.872C348.768,259.872 355.852,256.666 357.771,260.574C359.691,264.483 360.593,268.73 367.88,271.865C375.167,275.001 381.469,278.306 390.423,280.216C399.378,282.125 403.797,284.906 408.074,287.756L408.219,297.554C408.219,297.554 406.404,293.649 396.836,288.928C387.267,284.206 390.584,286.606 381.654,286.27C372.725,285.934 370.375,282.658 364.185,279.332C357.995,276.006 358.548,276.718 358.145,278.384C357.743,280.05 360.325,281.6 356.256,284.015C353.045,285.92 359.058,287.108 357.794,296.315C356.529,305.522 355.468,303.744 354.717,306.144C353.966,308.543 355.08,313.549 356.392,319.08C357.704,324.612 359.178,343.123 360.601,348.993C362.024,354.863 358.432,358.415 355.93,362.36C353.429,366.305 345.569,361.587 346.468,370.321C347.367,379.054 342.186,381.344 342.353,385.282C342.519,389.22 329.374,393.405 329.374,393.405L308.075,389.327L309.266,385.045C309.266,385.045 315.952,385.135 322.431,384.621C328.91,384.107 330.942,382.49 332.174,379.556C333.405,376.623 333.063,380.456 334.46,373.576C335.857,366.697 338.452,364.388 339.937,361.946C341.422,359.503 342.673,357.249 345.088,356.085C347.504,354.92 349.035,354.108 348.819,350.07C348.603,346.031 352.14,344.927 349.603,341.396C347.066,337.864 349.407,336.292 347.434,333.67C345.461,331.049 344.945,327.318 343.762,325.534C342.579,323.75 342.287,320.688 342.707,316.808C343.127,312.928 343.878,309.845 343.354,305.757C342.829,301.67 341.861,300.185 341.318,297.665C340.776,295.145 336.479,284.225 336.888,281.24C337.296,278.254 337.697,268.584 337.697,268.584L348.768,259.872Z" style="fill:rgb(131,109,71);"/>
        </g>
        <g transform="matrix(-3.84271,2.63536,2.63536,3.84271,655.883,-1952.05)">
            <path d="M346.762,453.835L362.705,453.835L380.152,474.235L360.816,458.124L346.762,453.835Z" style="fill:rgb(60,60,60);"/>
        </g>
        <g transform="matrix(2.85316e-16,4.65957,-4.65957,2.85316e-16,2701.52,-904.61)">
            <path d="M317.423,497.803C317.423,497.803 306.519,486.381 303.319,482.41C300.119,478.44 296.628,468.929 290.454,466.971C284.28,465.013 281.702,463.593 273.02,465.367C264.339,467.141 257.227,465.257 251.841,464.539C246.456,463.822 239.464,449.919 239.464,449.919L240.537,442.541C240.537,442.541 248.256,447.113 249.675,450.928C251.094,454.743 245.483,457.489 256.321,456.871C267.159,456.253 267.355,457.081 271.785,454.841C276.215,452.601 274.779,448.183 282.359,449.596C289.94,451.009 291.014,446.782 295.022,453.028C299.03,459.274 298.747,456.443 303.439,464.322C308.132,472.201 306.802,471.566 313.439,476.789C320.075,482.012 316.949,481.778 324.088,484.34C331.227,486.903 321.68,488.849 337.336,488.624C352.991,488.398 360.143,486.823 360.846,489.283C361.549,491.742 350.987,495.686 347.601,497.623" style="fill:rgb(131,109,71);"/>
        </g>
        <g transform="matrix(2.85316e-16,4.65957,-4.65957,2.85316e-16,3147.73,-904.61)">
            <path d="M213.932,487.414C213.932,487.414 218.358,503.098 222.085,503.282C225.812,503.465 236.131,507.183 239.833,504.955C243.535,502.727 250.044,502.378 255.282,503.149C260.519,503.92 270.798,507.757 270.745,511.36C270.692,514.963 276.989,524.195 277.003,527.825C277.018,531.455 282.437,545.942 284.222,548.693L277.007,547.495C277.007,547.495 271.371,529.42 267.882,523C264.392,516.58 262.563,515.761 258.832,514.201C255.1,512.641 254.075,511.711 249.435,511.948C244.794,512.185 243.342,511.796 238.428,511.993C233.513,512.189 234.776,512.571 227.405,510.445C220.034,508.32 214.585,503.366 214.585,503.366L213.932,487.414Z" style="fill:rgb(131,109,71);"/>
        </g>
        <g transform="matrix(2.85316e-16,4.65957,-4.65957,2.85316e-16,3552.7,-904.61)">
            <path d="M353.219,596.362C353.219,596.362 351.95,577.366 356.289,574.432C360.628,571.498 357.64,558.914 358.668,554.496C359.696,550.079 361.299,542.614 363.068,540.366C364.837,538.119 369.026,534.066 372.467,535.539C375.907,537.011 391.812,541.831 391.812,541.831C391.812,541.831 391.819,534.922 388.622,534.315C385.425,533.709 381.715,530.421 377.518,530.361C373.322,530.302 370.843,526.656 365.771,527.936C360.698,529.215 356.976,526.954 356.314,532.236C355.652,537.518 358.521,538.317 352.992,544.975C347.464,551.634 346.845,552.215 346.367,555.666C345.889,559.117 348.665,557.944 346.81,563.209C344.955,568.474 344.304,568.635 344.059,572.834C343.813,577.033 340.79,584.649 340.79,584.649L353.219,596.362Z" style="fill:rgb(131,109,71);"/>
        </g>
    </g>
    <g transform="matrix(2.36504,4.01475,4.01475,-2.36504,-852.492,1152.45)">
        <path d="M357.855,425.183L372.192,425.183L401.944,413.122L375.358,430.334L357.855,425.183Z" style="fill:rgb(60,60,60);"/>
    </g>
    <g transform="matrix(2.85316e-16,4.65957,-4.65957,2.85316e-16,3719.41,-85.413)">
        <path d="M398.199,417.346L428.132,421.695L459.471,428.928L421.05,423.814L405.425,426.193L411.676,419.304L398.199,417.346Z" style="fill:rgb(60,60,60);"/>
    </g>
    <g transform="matrix(2.85316e-16,4.65957,-4.65957,2.85316e-16,3674.66,-85.413)">
        <path d="M319.282,425.246L336.088,416.574L350.898,415.781L361.82,411.731L335.267,411.424L319.282,425.246Z" style="fill:rgb(60,60,60);"/>
    </g>
    <g transform="matrix(2.85316e-16,4.65957,-4.65957,2.85316e-16,3560.02,-85.413)">
        <path d="M398.322,407.792L411.348,409.283L425.526,407.21L440.121,410.185L426.49,401.882L417.31,405.294L398.322,407.792Z" style="fill:rgb(60,60,60);"/>
    </g>
</svg>
