<?xml version="1.0" encoding="UTF-8" standalone="no"?>
<!-- Created with Inkscape (http://www.inkscape.org/) -->

<svg
   width="270.93332mm"
   height="270.93332mm"
   viewBox="0 0 270.93332 270.93332"
   version="1.1"
   id="svg5"
   xmlns="http://www.w3.org/2000/svg"
   xmlns:svg="http://www.w3.org/2000/svg">
  <defs
     id="defs2" />
  <g
     id="layer1"
     transform="translate(17.327578,-15.718319)">
    <path
       style="fill:#93e5ab;stroke-width:0.264583;fill-opacity:1"
       d="m 41.499864,266.15375 c -1.050568,-0.42999 -1.53827,-1.2522 -1.36738,-2.30525 0.248211,-1.52955 0.65795,-1.78884 2.277814,-1.44144 0.853159,0.18297 4.91705,0.29265 10.843473,0.29265 h 9.478904 l 0.165365,0.82682 c 0.299855,1.49927 0.191219,2.31573 -0.346409,2.60346 -0.615889,0.32961 -20.25035,0.35177 -21.051767,0.0238 z m 22.833069,-0.87435 c -0.05993,-0.61847 -0.05856,-1.39237 0.003,-1.71979 l 0.112022,-0.59532 h 47.594205 47.59415 v 1.7198 1.71979 h -47.5972 -47.597219 l -0.108968,-1.12448 z m 100.127197,0.90339 c -0.39753,-0.25233 -0.85506,-1.7258 -0.85506,-2.75373 v -0.72935 l 16.99948,-0.0419 c 9.34971,-0.0231 17.2376,-0.022 17.52865,0.002 1.28807,0.10749 1.96391,2.4077 0.97135,3.30596 -0.43971,0.39793 -2.02686,0.43751 -17.39635,0.43383 -9.30188,-0.002 -17.06351,-0.0999 -17.24807,-0.21704 z m 32.16962,-7.39364 c -0.90521,-1.00195 -0.93042,-1.09093 -1.10934,-3.91516 -0.48398,-7.63976 -1.97748,-13.97193 -4.18392,-17.73911 -1.22846,-2.09741 -3.65036,-5.07088 -5.26656,-6.46596 -0.9169,-0.79145 -1.95807,-1.70635 -2.31372,-2.03311 -1.20488,-1.10699 -7.30149,-3.93269 -10.91136,-5.05728 -1.95318,-0.60847 -3.96795,-1.24271 -4.47728,-1.40941 -0.50932,-0.16671 -1.58088,-0.45553 -2.38125,-0.64183 -0.80036,-0.1863 -2.52677,-0.64184 -3.83646,-1.01231 -1.30968,-0.37048 -2.97656,-0.79569 -3.70416,-0.94493 -2.13554,-0.43802 -3.39278,-0.96008 -3.58411,-1.48829 -0.10097,-0.27877 0.0375,-0.9987 0.31828,-1.65452 l 0.49704,-1.16101 1.42414,0.14698 c 0.78328,0.0808 2.0611,0.33582 2.8396,0.56662 0.77851,0.23079 2.84421,0.77684 4.59046,1.21345 3.97701,0.99434 6.39973,1.67652 7.35942,2.07223 0.40965,0.16892 0.87177,0.30712 1.02693,0.30712 0.67159,0 5.34708,1.76806 8.0715,3.05227 4.27041,2.01295 9.2217,5.94231 10.99001,8.72169 0.37034,0.58208 0.91389,1.31009 1.20789,1.61781 0.66222,0.69309 2.68721,4.49635 3.43527,6.45198 1.33583,3.49219 2.57688,10.15455 2.8586,15.34583 l 0.16512,3.04271 -1.04492,1.00474 -1.04493,1.00475 z m -155.308477,-0.0683 c -1.056999,-0.61672 -1.147019,-2.17894 -0.464421,-8.0597 0.556879,-4.79771 2.232017,-11.91608 3.019774,-12.83229 0.187677,-0.21828 0.626957,-1.11225 0.976175,-1.98659 1.801622,-4.51073 6.847284,-9.60582 12.522062,-12.64474 2.673646,-1.43178 5.783572,-2.53795 13.890624,-4.94076 4.005958,-1.18731 8.712277,-2.38833 9.3589,-2.38833 0.838223,0 1.310222,0.72333 1.336106,2.04755 l 0.02601,1.33055 -4.897487,1.37924 c -2.693617,0.75857 -5.373735,1.53268 -5.955818,1.72022 -0.582084,0.18754 -1.951302,0.6049 -3.042709,0.92747 -3.45454,1.02101 -5.118996,1.59588 -6.555671,2.26419 -0.767961,0.35724 -1.503597,0.64953 -1.634746,0.64953 -0.131149,0 -0.40119,0.16274 -0.600091,0.36164 -0.198903,0.19891 -1.428136,1.02135 -2.73163,1.82766 -3.362615,2.08003 -6.435055,5.4252 -8.193478,8.9208 -0.948389,1.88532 -2.14535,5.35532 -2.77681,8.04999 -0.574924,2.45341 -1.319279,8.55375 -1.319752,10.816 -2.65e-4,1.27501 -0.109749,1.64281 -0.649753,2.18281 -0.6759,0.6759 -1.548305,0.8176 -2.307283,0.37476 z m 17.727513,-3.86754 c -0.825627,-0.22771 -1.19572,-1.25002 -1.382715,-3.8195 -0.272028,-3.73788 -0.728829,-5.21312 -1.95875,-6.32579 -0.562999,-0.50932 -1.162259,-1.25906 -1.33169,-1.66609 -0.334539,-0.80366 -0.405868,-2.26907 -0.143706,-2.95226 0.192437,-0.50148 1.446879,-1.20248 2.151854,-1.20248 1.446244,0 3.943622,4.48492 4.834887,8.68274 0.652113,3.07142 0.644916,6.12981 -0.01595,6.77713 -0.44521,0.43608 -1.505104,0.68519 -2.153934,0.50625 z m 119.524144,-0.50689 c -0.32527,-0.32527 -0.41323,-1.00199 -0.4041,-3.10886 0.0115,-2.65628 0.29486,-4.18589 1.11149,-6.00037 2.00668,-4.45868 2.30726,-4.99316 3.18398,-5.66187 1.10757,-0.84479 1.90302,-0.74905 3.10491,0.37368 0.97334,0.90923 1.01029,1.77853 0.11903,2.79964 -2.56932,2.94366 -3.56233,5.33932 -3.56233,8.5942 0,3.09391 -0.17537,3.41935 -1.8425,3.41935 -0.82423,0 -1.44579,-0.15108 -1.71048,-0.41577 z M 9.4224244,251.7119 c -0.71546,-0.50113 -0.99593,-1.85775 -0.5996,-2.90018 0.3904,-1.02683 0.67886,-1.18435 2.1777096,-1.18921 1.04664,-0.003 1.32184,0.10457 1.6869,0.66171 0.52051,0.7944 0.39239,3.22324 -0.18946,3.59173 -0.5907,0.37408 -2.44875,0.27497 -3.0755496,-0.16405 z m 13.2258796,0.10956 c -0.42654,-0.4386 -0.43683,-3.4619 -0.0132,-3.8855 0.46706,-0.46707 2.72128,-0.40357 3.12937,0.0882 0.51147,0.61628 0.63423,2.80787 0.19041,3.39922 -0.46956,0.62565 -2.81111,0.90758 -3.30655,0.39812 z m -5.42378,-0.15201 c -0.56822,-0.14851 -0.8456,-1.14681 -0.62505,-2.24957 0.22588,-1.12939 0.6231,-1.53684 1.49826,-1.53684 0.90165,0 1.47338,0.52706 1.70229,1.56926 0.21268,0.96833 -0.21689,1.81652 -1.08764,2.14758 -0.69257,0.26331 -0.73836,0.26545 -1.48786,0.0696 z m -1.77242,-6.94193 c -0.24844,-0.16068 -0.4221,-0.85897 -0.49385,-1.98574 -0.10274,-1.61355 -0.0717,-1.7379 0.43372,-1.7379 0.8502,0 0.9705,-0.52511 0.12819,-0.5596 -0.60047,-0.0246 -0.53995,-0.0699 0.31512,-0.23608 1.20869,-0.23488 1.49464,-0.14411 1.28305,0.40728 -0.082,0.21362 -0.0173,0.3884 0.14385,0.3884 0.16109,0 0.29289,-0.1786 0.29289,-0.39688 0,-0.80023 0.93366,-0.39728 1.37936,0.59532 l 0.44552,0.99218 0.0136,-0.99218 c 0.0111,-0.81127 0.11009,-0.99219 0.54277,-0.99219 0.59973,0 0.67812,0.27437 0.21166,0.74083 -0.24694,0.24695 -0.24425,0.3175 0.0121,0.3175 0.23824,0 0.30791,0.49501 0.25136,1.78594 l -0.0782,1.78594 -2.24896,0.0675 c -1.23693,0.0371 -2.42139,-0.044 -2.63214,-0.18033 z m 1.75454,-3.24408 c -0.0845,-0.21107 -0.14715,-0.14838 -0.15985,0.15985 -0.0115,0.27891 0.051,0.43518 0.13897,0.34726 0.0879,-0.0879 0.0973,-0.31612 0.0209,-0.50711 z m -7.7857896,2.89388 c -0.14383,-0.18191 -0.32525,-1.2237 -0.40316,-2.31511 l -0.14165,-1.98437 1.8921196,-0.0154 1.89212,-0.0154 -0.0734,1.73521 c -0.12234,2.89168 -0.14125,2.92584 -1.61902,2.92584 -0.71252,0 -1.4020396,-0.14741 -1.5469896,-0.33072 z m 14.1534896,-0.21964 c -0.37009,-0.21555 -0.46302,-0.63563 -0.46302,-2.093 0,-1.00283 0.11941,-1.89712 0.26536,-1.98732 0.14595,-0.0902 0.80079,-0.0837 1.45521,0.0144 l 1.18984,0.17843 v 1.81274 c 0,1.5214 -0.0823,1.85675 -0.51177,2.08662 -0.63946,0.34223 -1.33498,0.33796 -1.93562,-0.0119 z m 1.12448,-1.30172 c 0,-0.14552 -0.11906,-0.26458 -0.26458,-0.26458 -0.14552,0 -0.26459,0.11906 -0.26459,0.26458 0,0.14552 0.11907,0.26458 0.26459,0.26458 0.14552,0 0.26458,-0.11906 0.26458,-0.26458 z m 191.939166,1.05906 c -1.61306,-0.63789 -2.1201,-1.08607 -3.28832,-2.90656 -0.79233,-1.23475 -0.90841,-1.64873 -1.01115,-3.60621 -0.1039,-1.97953 -0.0438,-2.35909 0.57351,-3.62078 1.41776,-2.89779 3.4748,-4.24612 6.52012,-4.27376 3.7525,-0.0341 6.61459,3.39275 6.61459,7.91971 0,4.74264 -5.03757,8.21619 -9.40875,6.4876 z m 4.27657,-1.60139 c 0.61616,-0.29828 1.59707,-1.05956 2.17978,-1.69173 1.28221,-1.39104 1.60547,-2.88805 1.10577,-5.12093 -0.26969,-1.20512 -0.57417,-1.7149 -1.69176,-2.83249 -2.37574,-2.37574 -4.55922,-2.2407 -7.29963,0.45144 -0.97071,0.9536 -1.44987,2.74541 -1.23136,4.60459 0.26563,2.26008 0.97273,3.31228 3.07354,4.57352 1.17038,0.70265 2.43387,0.70775 3.86366,0.0156 z m -198.414816,-5.6232 c 0.0708,-0.69284 0.0415,-0.75016 -0.16157,-0.31676 -0.20594,0.43943 -0.25115,0.3609 -0.26659,-0.46302 -0.0102,-0.5457 -0.0484,-1.08149 -0.0847,-1.19063 -0.0364,-0.10914 0.91612,-0.22888 2.11667,-0.26609 l 2.18281,-0.0677 v 1.47495 1.47495 l -1.67623,-0.0608 c -0.92193,-0.0334 -1.79336,0.0116 -1.9365,0.10009 -0.15586,0.0963 -0.2256,-0.17852 -0.17385,-0.68507 z m 0.347,-1.35948 c 0,-0.0642 -0.11907,-0.19026 -0.26459,-0.2802 -0.14552,-0.0899 -0.26458,-0.0374 -0.26458,0.11668 0,0.15411 0.11906,0.2802 0.26458,0.2802 0.14552,0 0.26459,-0.0525 0.26459,-0.11668 z m -14.4541796,0.51403 c 0.0312,-1.32189 0.0888,-1.45478 0.6297,-1.45521 0.32742,-2.6e-4 0.68128,-0.0302 0.78635,-0.0666 0.10507,-0.0364 0.2187396,0.61846 0.2526096,1.45521 l 0.0616,1.52135 h -0.8823096 -0.88231 z m 3.6975596,1.04645 c -0.0862,-0.22456 -0.074,-0.49093 0.027,-0.59194 0.18425,-0.18425 0.3013,-0.20781 1.40308,-0.2824 1.02589,-0.0694 0.70097,-0.79336 -0.39688,-0.88422 -0.66906,-0.0554 -0.99219,-0.21137 -0.99219,-0.47899 0,-0.48834 1.85244,-0.70346 2.36862,-0.27507 0.43702,0.3627 0.48538,2.444 0.063,2.71253 -0.58645,0.37287 -2.30619,0.23383 -2.47263,-0.19991 z m 5.72953,0.0114 c 0,-0.21828 -0.1744,-0.39688 -0.38756,-0.39688 -0.45638,0 -1.03087,-0.95431 -0.79968,-1.32838 0.0881,-0.14252 0.38532,-0.25912 0.66054,-0.25912 0.27523,0 0.61065,-0.19699 0.74539,-0.43775 0.32279,-0.5768 1.10423,-0.27289 1.10423,0.42945 0,0.29561 -0.11906,0.53747 -0.26458,0.53747 -0.14553,0 -0.26459,0.17859 -0.26459,0.39687 0,0.21828 0.11906,0.39688 0.26459,0.39688 0.14552,0 0.26458,0.23812 0.26458,0.52917 0,0.38805 -0.17639,0.52916 -0.66146,0.52916 -0.41157,0 -0.66146,-0.14993 -0.66146,-0.39687 z m 98.557296,-0.64285 c -2.69311,-0.28658 -7.32323,-1.06917 -7.9375,-1.34161 -0.29104,-0.12908 -1.3626,-0.53095 -2.38125,-0.89303 -3.88886,-1.38233 -6.482295,-2.52396 -6.482295,-2.85353 0,-0.12216 -0.14883,-0.22218 -0.33073,-0.22227 -0.1819,-9e-5 -1.01312,-0.53588 -1.84716,-1.19063 -0.83403,-0.65475 -1.61042,-1.19046 -1.7253,-1.19046 -0.43022,0 -4.806292,-4.6997 -6.016255,-6.46119 -1.623407,-2.36338 -1.943399,-3.16567 -2.150229,-5.3911 l -0.170207,-1.83135 0.762127,-0.18724 c 2.499958,-0.61421 4.964564,-2.50934 6.047244,-4.64995 0.99517,-1.9676 1.16081,-3.50152 1.2172,-11.27168 0.0538,-7.41666 0.0524,-7.43716 -0.56415,-8.27113 l -0.61811,-0.83604 -0.94024,0.87831 c -4.274074,3.99257 -8.460237,5.32571 -13.510111,4.30247 -1.222288,-0.24767 -2.634316,-0.62244 -3.137839,-0.83282 -1.561203,-0.65232 -5.261729,-3.28091 -6.021887,-4.27753 -1.089158,-1.42796 -1.937176,-3.71521 -1.944323,-5.24419 l -0.0063,-1.34324 -2.711979,-0.57795 c -1.491588,-0.31787 -3.437607,-0.93215 -4.324482,-1.36507 -3.803446,-1.85658 -7.188094,-5.12411 -8.569904,-8.27335 -0.586817,-1.3374 -1.327132,-4.79864 -1.326557,-6.20214 7.93e-4,-2.0847 1.751721,-4.01586 3.290728,-3.62959 1.09541,0.27493 1.303914,0.96606 0.807064,2.67516 -0.456859,1.57155 -0.398915,2.71388 0.226975,4.47473 0.963504,2.71067 2.165091,4.22688 4.935239,6.22749 2.299872,1.66097 8.672739,3.37246 11.112499,2.98436 1.480645,-0.23553 5.059429,-1.1742 6.041951,-1.58473 1.198938,-0.50094 1.540602,-0.47719 2.450018,0.17037 0.870196,0.61964 1.017312,1.62561 0.372387,2.54636 -0.429111,0.61265 -4.34346,1.95882 -7.121495,2.44914 -0.860438,0.15186 -1.623655,0.33534 -1.696038,0.40772 -0.247401,0.2474 0.532924,2.38265 1.187691,3.24994 1.118793,1.48195 2.000025,2.16651 4.189444,3.25447 3.190849,1.58559 5.81088,1.85314 8.466667,0.86458 1.186259,-0.44156 3.865244,-2.39004 4.937772,-3.59134 l 0.704438,-0.78902 -1.049044,-2.02212 c -0.576972,-1.11216 -1.220451,-2.31977 -1.429954,-2.68358 -1.444582,-2.50853 -3.676396,-8.30016 -5.197295,-13.48713 -0.324297,-1.10601 -0.42305,-1.1989 -1.499073,-1.41005 -1.625322,-0.31895 -5.208132,-2.51222 -7.076051,-4.33171 -2.365407,-2.30408 -4.224276,-5.21512 -4.897784,-7.67007 -0.462076,-1.6843 -0.542107,-2.55636 -0.444328,-4.84173 0.177925,-4.15858 0.868984,-5.28905 4.276384,-6.99547 1.835827,-0.91938 2.116042,-1.16338 2.729822,-2.377 1.28841,-2.54757 2.663738,-4.2708 5.938179,-7.44033 6.660144,-6.44675 8.785793,-9.07076 10.928986,-13.49129 1.10802,-2.28542 3.85191,-8.95232 3.85191,-9.35912 0,-0.49612 1.11979,-0.32213 2.381255,0.36998 3.12005,1.71186 8.29344,4.08551 10.31875,4.73444 1.23692,0.39633 2.48708,0.81759 2.77812,0.93613 3.12497,1.27286 11.32824,2.56582 19.44687,3.06515 3.45175,0.21229 3.96875,0.48486 3.96875,2.09239 0,1.50602 -0.94356,2.37217 -2.37843,2.18332 -0.51087,-0.0672 -2.71479,-0.32111 -4.89761,-0.56417 -11.83041,-1.31731 -19.72397,-3.33947 -26.72291,-6.84583 -2.06746,-1.03576 -2.42252,-1.14043 -2.694455,-0.79426 -0.17226,0.21929 -0.8105,1.66666 -1.4183,3.21638 -0.6078,1.54972 -1.31069,3.11533 -1.56197,3.47913 -0.25129,0.3638 -0.53284,0.87188 -0.62568,1.12906 -0.25127,0.69604 -3.051,4.66992 -4.133534,5.86705 -0.518734,0.57364 -2.713156,2.83583 -4.876493,5.02708 -2.163336,2.19126 -4.385606,4.57941 -4.938376,5.30701 -1.044022,1.37424 -2.189501,3.72126 -2.494973,5.11207 -0.240176,1.09351 -0.547762,1.28802 -2.391643,1.51245 -2.306849,0.28078 -2.741324,0.5134 -3.313538,1.77404 -1.081162,2.38191 -0.481857,5.81702 1.554557,8.9104 1.776563,2.69866 5.388165,6.10667 6.471475,6.10667 0.140589,0 0.166354,-0.61561 0.06105,-1.45846 -0.327012,-2.61731 0.568039,-3.96633 2.272628,-3.42532 0.98843,0.31372 1.302218,0.81946 1.580483,2.54732 0.420767,2.61273 2.395791,9.78475 3.41212,12.39062 0.312152,0.80037 0.780518,2.05106 1.040809,2.77932 0.956472,2.67605 4.094735,8.39885 5.891415,10.74333 1.87619,2.44823 3.19443,4.02679 4.063485,4.8659 2.12165,2.04854 3.51583,3.24675 4.54833,3.90898 0.61847,0.39667 1.60179,1.03581 2.18517,1.4203 1.8939,1.24822 5.96432,2.71048 8.81421,3.16641 5.55708,0.88903 12.01847,-0.48054 16.58343,-3.51508 0.80037,-0.53204 1.87193,-1.24194 2.38125,-1.57756 1.97622,-1.30223 6.73529,-6.53443 8.7508,-9.62076 2.43236,-3.72463 5.28694,-10.05511 6.56195,-14.55209 1.37312,-4.84305 1.63994,-5.86757 2.30158,-8.83764 0.5555,-2.49359 0.84106,-3.27842 1.37182,-3.77032 0.85843,-0.79556 1.08211,-0.78179 2.17936,0.13424 0.89097,0.74381 0.89967,0.7713 0.5651,1.78593 -0.18688,0.56678 -0.36046,1.44722 -0.38572,1.95655 -0.0582,1.17424 0.38718,1.13642 2.292,-0.19463 2.94694,-2.05924 4.85591,-4.39671 6.10873,-7.47993 1.52535,-3.7539 0.36288,-7.28922 -2.9591,-8.99928 -1.43214,-0.73723 -2.02252,-0.58775 -3.72524,0.94314 -1.43266,1.28808 -1.72617,1.30535 -3.01909,0.17756 -0.74783,-0.65231 -0.60904,-2.22228 0.26458,-2.99278 2.31018,-2.03749 4.49026,-2.87371 6.59961,-2.53141 0.94209,0.15288 4.037,2.04817 4.89783,2.99938 0.76616,0.8466 1.83645,3.47393 2.14213,5.25847 0.63401,3.70132 -0.95841,8.87464 -3.62025,11.76114 -0.60387,0.65485 -1.3342,1.49344 -1.62296,1.86354 -1.19334,1.52956 -5.05629,3.6732 -7.06477,3.9204 l -1.37457,0.16919 -0.44658,1.71979 c -1.30112,5.01063 -3.14983,9.88814 -5.58518,14.7355 l -1.35497,2.69696 1.11158,1.44082 c 2.61344,3.3875 6.60303,4.70707 11.11781,3.67724 2.57633,-0.58766 3.2391,-0.94689 5.1039,-2.76635 2.04482,-1.99511 2.73169,-3.48292 2.5381,-5.49771 -0.0705,-0.73344 -0.20791,-1.41328 -0.30541,-1.51078 -0.0975,-0.0975 -1.29274,0.0421 -2.6561,0.31012 -2.56508,0.50435 -5.17467,0.43274 -5.89087,-0.16165 -0.44193,-0.36678 -0.45375,-2.36372 -0.0174,-2.9444 0.25619,-0.34095 0.80775,-0.44711 2.44739,-0.47107 2.96052,-0.0433 5.12514,-0.74924 8.49516,-2.7706 4.576,-2.74473 8.28641,-6.7402 10.21668,-11.0016 1.12126,-2.47537 1.56437,-4.76624 1.5987,-8.26532 0.0382,-3.89314 -0.3425,-4.96358 -2.57031,-7.22725 -1.63989,-1.66628 -1.83694,-2.47177 -1.02247,-4.17972 0.40393,-0.84706 0.54852,-0.93502 1.53693,-0.93502 1.40646,0 1.72763,0.27716 2.91259,2.51354 0.53974,1.01864 1.07601,1.97114 1.19172,2.11666 0.11571,0.14553 0.54587,1.33615 0.95591,2.64584 0.6496,2.07482 0.74149,2.7728 0.71408,5.42396 -0.0327,3.15858 -0.58318,6.15807 -1.65698,9.02806 -0.62558,1.672 -3.58159,6.24816 -4.99666,7.73525 -1.40437,1.47586 -5.58896,4.77624 -6.76103,5.33243 -0.88173,0.4184 -0.98171,0.55897 -0.82684,1.1625 0.37297,1.45347 0.45109,4.66645 0.14654,6.02732 -0.85133,3.80411 -4.38721,7.37868 -8.74911,8.84482 -2.47442,0.83172 -7.92196,0.8573 -10.08591,0.0474 -1.69871,-0.6358 -3.72693,-1.94821 -5.64065,-3.64992 l -1.3125,-1.16709 -0.81621,0.84827 -0.81623,0.84828 0.15125,8.06979 0.15125,8.06979 0.94632,1.98437 c 1.14279,2.39636 2.37152,3.70441 4.09784,4.36239 4.63277,1.76576 4.89616,2.66306 2.04428,6.96421 -1.43779,2.16847 -6.49777,7.7234 -7.03522,7.7234 -0.23016,0 -0.58501,0.24724 -2.52642,1.76023 -0.98278,0.76591 -3.39426,1.97136 -6.20886,3.10369 -5.7286,2.30464 -13.38414,3.43722 -19.113,2.82761 z m 11.04403,-4.40806 c 8.77522,-1.85404 15.62688,-6.04934 19.63413,-12.02205 0.66227,-0.9871 1.20089,-1.9548 1.19694,-2.15046 -0.004,-0.19566 -0.66594,-0.65341 -1.47108,-1.01721 -2.42544,-1.09593 -3.88304,-2.66212 -5.17105,-5.55625 l -1.11862,-2.51354 -0.10847,-6.54844 c -0.0597,-3.60164 -0.20275,-6.54843 -0.31797,-6.54843 -0.11522,0 -0.55105,0.33234 -0.96849,0.73854 -1.58231,1.53965 -3.23737,2.66839 -6.18296,4.21676 -6.08889,3.20065 -10.43426,4.00292 -16.93333,3.12632 -5.98504,-0.80727 -11.37109,-3.32674 -15.43837,-7.22173 -0.797785,-0.76398 -1.490285,-1.38915 -1.538885,-1.38927 -0.0486,-1.1e-4 -0.0488,2.7442 -5.3e-4,6.09847 0.0816,5.65674 0.0461,6.23652 -0.48976,8.00066 -0.77265,2.54378 -1.41252,3.73902 -2.94484,5.50077 -0.84063,0.96648 -1.76467,1.69477 -2.6732,2.10688 -0.763668,0.3464 -1.432717,0.65891 -1.486777,0.69446 -0.184626,0.12143 1.233227,2.33504 2.518837,3.93251 1.61796,2.01045 2.25504,2.64365 3.98551,3.96125 3.158765,2.40512 3.749875,2.79336 5.251545,3.44924 0.86436,0.37753 2.05565,0.91675 2.64729,1.19828 0.59165,0.28152 1.26924,0.51186 1.50574,0.51186 0.23651,0 0.49309,0.10205 0.57018,0.22678 0.0771,0.12473 0.88779,0.37477 1.80155,0.55564 0.91377,0.18088 2.02421,0.43728 2.46764,0.56978 1.59901,0.47781 4.02886,0.70051 7.98882,0.7322 3.41033,0.0273 4.53305,-0.0735 7.27605,-0.65302 z m -9.99325,-22.42454 c -0.21412,-0.30571 -0.3875,-0.9163 -0.38527,-1.35686 0.008,-1.53871 0.14274,-1.58925 4.41807,-1.65434 2.15174,-0.0328 4.20991,-0.0923 4.57371,-0.1323 0.62751,-0.069 0.66547,0.003 0.73955,1.40633 0.0515,0.97581 -0.0385,1.57202 -0.26459,1.75232 -0.18847,0.15029 -2.2213,0.33344 -4.51741,0.40698 -4.01872,0.12871 -4.18928,0.11294 -4.56406,-0.42213 z m -95.796616,8.7203 c -0.0774,-0.20163 -0.1034,-0.88624 -0.0578,-1.52135 l 0.0828,-1.15475 1.5875,-0.16115 c 0.87313,-0.0886 5.3771,-0.14817 10.00882,-0.13229 8.012656,0.0275 8.439571,0.0538 8.797399,0.54245 0.443019,0.605 0.485997,1.56476 0.102185,2.28192 -0.263414,0.49219 -0.658577,0.51178 -10.327054,0.51178 -8.32315,0 -10.07737,-0.0631 -10.19384,-0.36661 z m 0.44193,-6.29267 c -0.55838,-0.20617 -0.76663,-1.03671 -0.60567,-2.41546 l 0.11434,-0.97943 h 2.71324 2.71323 l 0.41655,1.12448 c 0.22911,0.61846 0.45364,1.42213 0.49897,1.78594 l 0.0824,0.66145 h -2.72687 c -1.49978,0 -2.94257,-0.0796 -3.2062,-0.17698 z m 8.88758,0.13289 c -0.22052,-0.22053 -0.23233,-2.54497 -0.0158,-3.10926 0.19744,-0.51452 2.99616,-0.59551 3.49066,-0.10102 0.17462,0.17462 0.3175,0.86519 0.3175,1.53458 0,0.6694 -0.14288,1.35996 -0.3175,1.53459 -0.332,0.332 -3.16878,0.44719 -3.47486,0.14111 z m 7.39255,-0.24213 c -0.0883,-0.23018 -0.1606,-0.87529 -0.1606,-1.43357 0,-1.96395 -0.42275,-1.85208 6.998756,-1.85208 7.486092,0 7.553325,0.0169 7.553325,1.89805 0,1.76932 -0.154818,1.80612 -7.599296,1.80612 -5.803065,0 -6.651655,-0.0523 -6.792185,-0.41852 z m 166.130026,-0.2936 c -5.08059,-0.076 -5.8629,-0.14361 -6.15157,-0.53179 -0.94345,-1.26867 0.0665,-2.72484 1.88993,-2.72484 0.8158,0 1.21019,-0.12477 1.32291,-0.41852 0.0883,-0.23018 0.1606,-2.79544 0.1606,-5.70057 0,-7.04039 -0.42253,-6.58091 6.05175,-6.58091 2.61409,0 4.94122,0.0723 5.1714,0.1606 0.27685,0.10623 0.41715,0.48687 0.41447,1.12448 -0.007,1.70503 -0.12164,1.75656 -3.92587,1.76714 -2.4775,0.007 -3.53911,0.10835 -3.85217,0.36818 -0.37451,0.3108 -0.42253,0.96265 -0.35994,4.88527 l 0.0722,4.52662 3.83645,0.13229 3.83646,0.13229 0.0831,1.16043 c 0.0457,0.63823 -0.0186,1.26217 -0.14299,1.38652 -0.34437,0.34438 -2.05063,0.40786 -8.40679,0.31281 z M 2.0157148,201.59686 c -0.61576,-0.10035 -1.16032999,-0.23428 -1.21015999,-0.29761 -0.86952,-1.10525 -1.24208,-1.9459 -1.24174,-2.80184 9.6e-4,-2.34308 1.70194999,-3.93434 3.95924959,-3.70382 0.93521,0.0955 1.36271,0.31835 2.05053,1.06888 0.74686,0.81497 0.86898,1.13959 0.86898,2.30994 0,1.67137 -0.73339,2.97893 -1.89868,3.38515 -0.89086,0.31055 -0.86608,0.31017 -2.5281796,0.0393 z m 2.4644996,-2.60292 c 0.66115,-1.33402 -0.47712,-2.94661 -1.83868,-2.60488 -1.2068196,0.30289 -1.4970496,2.69976 -0.3832496,3.16504 0.7809096,0.32622 1.9256796,0.0376 2.2219296,-0.56016 z m 210.0624956,-7.1939 c -0.18507,-0.29945 0.1027,-2.78277 0.42259,-3.64668 0.2672,-0.72164 1.31186,-0.80209 1.96279,-0.15116 0.55844,0.55844 0.43769,3.42781 -0.16017,3.80615 -0.50448,0.31925 -2.02628,0.31356 -2.22521,-0.008 z m -99.46505,-14.57825 c -2.6929,-0.66749 -4.12934,-2.75819 -2.97741,-4.33355 0.34021,-0.46527 0.42229,-0.45994 2.18281,0.14172 2.53779,0.86729 6.35113,0.89016 7.94554,0.0477 1.66968,-0.88228 2.66281,-1.83196 2.83946,-2.71522 0.21609,-1.08046 1.2133,-1.55053 2.22295,-1.04788 0.40018,0.19923 0.9062,0.36717 1.12448,0.3732 0.51763,0.0143 0.66202,1.30231 0.28651,2.55566 -0.37297,1.24486 -2.69543,3.09069 -5.57817,4.43339 -1.22836,0.57213 -1.8883,0.68744 -4.23334,0.73964 -1.52797,0.034 -3.24374,-0.0536 -3.81283,-0.19461 z m 3.49289,-12.82818 c -1.6574,-0.89961 -3.1244,-4.34688 -2.69657,-6.3366 0.73643,-3.42494 3.83355,-5.92984 5.39776,-4.36563 0.78118,0.78118 0.65168,1.46641 -0.51666,2.73391 -1.52005,1.64906 -1.72004,2.34237 -1.08792,3.7714 0.28407,0.64218 0.61658,1.16761 0.73891,1.16761 0.33379,0 1.13026,1.4604 1.13026,2.07244 0,1.24753 -1.52426,1.73931 -2.96578,0.95687 z m 108.10718,-2.92444 c -1.4059,-0.73901 -2.00692,-1.22926 -2.37375,-1.93628 -0.27016,-0.52069 -0.74255,-1.36343 -1.04975,-1.87276 -0.3072,-0.50932 -0.69225,-1.31564 -0.85568,-1.79182 -0.59909,-1.74559 0.99417,-4.644 3.30231,-6.00745 0.55928,-0.33038 0.77507,-0.62354 0.6686,-0.90834 -0.14088,-0.37681 -0.10555,-0.37927 0.33999,-0.0237 0.28925,0.23089 0.4141,0.25855 0.2985,0.0662 -0.13254,-0.22063 -0.0223,-0.33073 0.33109,-0.33073 0.29137,0 0.70692,-0.25292 0.92343,-0.56203 0.32258,-0.46054 0.55957,-0.53091 1.31238,-0.38968 0.50529,0.0948 0.986,0.3477 1.06824,0.56203 0.0822,0.21432 0.45876,0.38968 0.8367,0.38968 0.88906,0 1.7107,0.44525 1.7107,0.92704 0,0.22465 0.15825,0.31854 0.38818,0.2303 0.26741,-0.10261 0.57191,0.22923 0.97876,1.06664 0.32482,0.66858 0.69866,1.2156 0.83075,1.2156 0.13209,0 0.1679,-0.17859 0.0796,-0.39688 -0.0883,-0.21828 -0.2408,-0.59613 -0.33882,-0.83968 -0.13553,-0.33672 -0.0478,-0.31236 0.36625,0.10167 1.73646,1.73646 1.58982,6.5185 -0.26029,8.48785 -0.90347,0.96171 -4.24106,2.68694 -5.51767,2.85215 -0.98771,0.12783 -1.43231,0.005 -3.03949,-0.83983 z m 4.72293,-3.07863 c 0.77756,-0.2224 1.10195,-0.51746 1.52135,-1.38382 0.68419,-1.41335 0.67168,-2.13457 -0.0623,-3.59 -0.71484,-1.41756 -1.91825,-2.10559 -3.68387,-2.10618 -1.47594,-5.3e-4 -2.65649,0.8418 -3.16991,2.26165 -0.18157,0.50212 -0.48837,0.91294 -0.68178,0.91294 -0.25628,0 -0.21582,0.1973 0.14925,0.72761 0.27548,0.40018 0.88211,1.34541 1.34806,2.10052 1.06757,1.73009 1.74198,1.88875 4.57915,1.07728 z m -221.253916,2.41857 c -1.3003096,-0.25406 -2.9829596,-1.31472 -3.7363796,-2.35523 -0.7034,-0.97143 -1.0608,-3.68396 -0.72485,-5.5013 0.40202,-2.17474 0.85748,-2.86998 2.41679,-3.68914 1.18912,-0.62469 1.68273,-0.72423 3.5214096,-0.71013 1.91109,0.0147 2.26105,0.0988 3.29177,0.7913 1.5013,1.00868 2.39086,2.72684 2.5705,4.96482 0.24122,3.00505 -1.30428,5.38436 -4.14953,6.38822 -1.25503,0.4428 -1.45762,0.44988 -3.18971,0.11146 z m 3.95795,-2.25445 c 2.86872,-2.41387 1.99565,-7.2486 -1.51982,-8.41626 -1.56928,-0.52123 -2.7020296,-0.24443 -3.9649096,0.96888 -1.24231,1.19355 -1.64822,2.07618 -1.64822,3.58394 0,1.00173 0.18433,1.56898 0.82336,2.53374 1.05433,1.59175 1.8341,1.99899 3.8526896,2.01208 1.38484,0.009 1.75865,-0.0948 2.4569,-0.68238 z m 46.395575,0.4851 c -0.990113,-0.62957 -1.10962,-3.03639 -0.331253,-6.67129 0.296032,-1.38245 0.7697,-3.7637 1.052589,-5.29167 0.825193,-4.45707 2.396247,-10.36169 3.066598,-11.52546 1.08771,-1.88831 1.793174,-2.36717 3.46279,-2.35049 1.264832,0.0126 1.555834,0.11575 2.094814,0.74235 0.865823,1.00658 0.840849,2.21707 -0.05275,2.55682 -0.373275,0.14191 -0.963409,0.25803 -1.311405,0.25803 -0.560255,0 -0.711896,0.25001 -1.323975,2.18281 -0.750633,2.37033 -2.418815,10.04016 -3.467187,15.94115 -0.447096,2.51656 -0.79657,3.8102 -1.090028,4.03489 -0.478361,0.36627 -1.612992,0.43264 -2.100191,0.12286 z m 86.171471,-2.59999 c -2.4411,-0.28749 -4.22744,-0.68207 -5.55625,-1.2273 -1.25018,-0.51296 -3.99173,-1.91815 -4.92136,-2.52245 -1.83394,-1.19214 -2.48368,-1.7225 -3.0997,-2.53014 -0.48618,-0.63742 -1.09128,-1.05454 -1.84162,-1.26951 -0.61464,-0.17609 -1.3723,-0.62412 -1.68369,-0.99562 l -0.56616,-0.67545 -1.23165,1.3699 c -1.3671,1.52054 -1.98488,1.8318 -2.78541,1.40337 -0.62016,-0.33191 -0.70186,-1.23873 -0.17993,-1.997 0.19757,-0.28704 0.49869,-0.95087 0.66914,-1.47518 0.37311,-1.14769 1.14931,-1.92082 2.49147,-2.48161 0.9713,-0.40583 0.99327,-0.4448 0.79014,-1.40169 -0.11491,-0.54134 -0.19367,-2.35645 -0.17501,-4.03358 0.0296,-2.66296 0.12623,-3.28008 0.76244,-4.87033 1.42183,-3.55403 3.38404,-5.41976 5.31837,-5.05688 1.28131,0.24038 1.95277,1.39754 1.95406,3.36757 0.001,1.68816 -0.39061,2.04416 -1.70108,1.54592 -0.39249,-0.14923 -0.79926,-0.27132 -0.90394,-0.27132 -0.63711,0 -1.8919,3.9778 -1.8919,5.99749 0,2.57382 1.59553,6.12843 3.62031,8.06556 1.3782,1.31854 4.15381,3.06038 5.62051,3.52718 0.66562,0.21184 1.86506,0.62307 2.66543,0.91383 0.80036,0.29076 1.83917,0.53255 2.30846,0.5373 l 0.85324,0.009 -2.10087,-2.14653 c -3.08459,-3.15163 -3.94959,-5.34088 -3.36344,-8.51264 0.20463,-1.10725 0.38227,-1.49294 0.64178,-1.39335 0.42252,0.16213 1.39624,-0.3875 1.39624,-0.78814 0,-0.15288 0.64335,-0.60371 1.42965,-1.00186 0.78631,-0.39814 1.48999,-0.88112 1.56373,-1.07329 0.17157,-0.44711 2.07373,-1.34095 4.35212,-2.04511 1.85894,-0.57453 4.27784,-1.54467 8.5295,-3.42091 3.85771,-1.70239 4.28447,-1.83414 4.8931,-1.5106 0.29197,0.15522 1.17622,0.75794 1.96499,1.33938 4.40815,3.24946 9.65848,4.94674 15.90609,5.14196 3.63778,0.11368 4.02388,0.0756 7.11625,-0.70272 3.62456,-0.91221 5.89263,-1.95771 9.2779,-4.27677 2.15621,-1.4771 5.24027,-4.54821 6.59456,-6.56686 0.35279,-0.52585 0.96259,-1.43235 1.35512,-2.01443 0.39252,-0.58208 1.1389,-1.92089 1.65862,-2.97513 2.32579,-4.71785 3.50954,-13.78161 2.4206,-18.53403 -1.04272,-4.550646 -1.78126,-6.815986 -2.77801,-8.521046 -0.12761,-0.21828 -0.80274,-1.40371 -1.5003,-2.63428 -0.94517,-1.66739 -1.99488,-2.96426 -4.12024,-5.09041 -1.56857,-1.56914 -3.23545,-3.0505 -3.70417,-3.29191 -0.46872,-0.2414 -1.2094,-0.70329 -1.64597,-1.02642 -1.20045,-0.88854 -3.38456,-1.90646 -5.92133,-2.75967 -6.4599,-2.17269 -14.79723,-1.64888 -20.83405,1.30896 -0.89098,0.43655 -1.73573,0.79373 -1.87722,0.79373 -0.14149,0 -0.47276,0.23813 -0.73615,0.52917 -0.26339,0.29104 -0.59601,0.52917 -0.73915,0.52917 -0.38183,0 -3.80149,2.84437 -5.15572,4.28838 -2.85239,3.04147 -3.79736,4.42323 -5.46328,7.98855 -2.68174,5.73934 -3.35926,12.441306 -1.9667,19.454526 0.39729,2.00088 2.2222,6.64336 3.53233,8.98613 0.4248,0.75961 0.2819,1.25108 -0.41689,1.43382 -0.57727,0.15096 -1.17649,-0.33517 -1.4412,-1.1692 -0.27957,-0.88085 -0.63726,-0.22613 -0.77763,1.42338 -0.14325,1.68341 -1.13162,4.24644 -2.28271,5.9195 -1.10605,1.60759 -4.63189,4.53834 -5.9104,4.91284 -2.08519,0.6108 -3.85522,0.12412 -3.84855,-1.05818 0.006,-0.98319 0.17653,-1.16671 1.84803,-1.9835 3.67331,-1.795 5.6649,-4.02062 6.51362,-7.27905 0.46807,-1.79704 0.45569,-1.90702 -0.12907,-1.1466 l -0.48286,0.6279 -0.17141,-1.2506 c -0.0943,-0.68782 -0.11318,-1.34482 -0.042,-1.45999 0.0712,-0.11517 -0.0474,-2.87105 -0.26345,-6.12418 -0.21607,-3.25313 -0.39396,-6.14386 -0.39531,-6.42385 -0.003,-0.67658 -4.03224,-4.54318 -5.89891,-5.66117 -3.02946,-1.8144 -8.55664,-3.13826 -11.96291,-2.86533 -1.01865,0.0816 -2.89568,0.45137 -4.17119,0.82167 -1.2755,0.37032 -2.48739,0.67329 -2.69308,0.67329 -1.2321,0 -1.66567,-2.393096 -0.61021,-3.368096 2.38505,-2.20322 10.77396,-2.55929 16.46109,-0.69871 2.44547,0.80005 5.95087,2.826576 7.85155,4.539106 0.38422,0.34618 0.75747,0.53037 0.82945,0.40929 0.072,-0.12107 0.21404,-1.46797 0.3157,-2.993106 0.10165,-1.52514 0.23273,-2.8505 0.29128,-2.94525 0.13903,-0.22494 -3.11938,-3.86377 -4.64855,-5.19127 -5.36374,-4.65635 -13.70326,-6.5841 -20.53299,-4.74638 -3.0822,0.82935 -4.3531,1.40003 -6.75592,3.03365 -3.76341,2.55864 -6.07956,5.64084 -7.09923,9.44723 -0.19491,0.727596 -0.46955,1.471736 -0.61031,1.653646 -0.41186,0.53224 -2.15695,0.40679 -2.7008,-0.19416 -0.9602,-1.061006 -0.16463,-4.265686 1.96819,-7.928236 1.32506,-2.27542 5.44822,-6.15292 7.81752,-7.35174 1.62657,-0.82301 4.9067,-2.12513 6.08542,-2.41575 5.8386,-1.4395 12.70302,-0.7925 18.06423,1.70264 2.98887,1.39104 6.87317,4.18427 8.65868,6.22651 0.72761,0.83223 1.39682,1.52373 1.48714,1.53668 0.21687,0.0311 2.34932,-3.65972 2.34932,-4.06616 0,-0.32483 -6.11224,-5.74972 -6.68898,-5.93677 -0.17736,-0.0575 -0.7392,-0.42347 -1.24852,-0.81323 -2.81384,-2.15327 -8.79999,-4.60145 -13.43559,-5.49479 -3.58642,-0.69115 -12.07627,-0.62268 -15.40399,0.12425 -6.63881,1.4901 -12.56078,4.6137 -16.29331,8.59405 -1.958215,2.08822 -4.131715,5.44561 -4.973385,7.68233 -0.3946,1.04867 -0.58977,1.26196 -1.17863,1.28812 -1.03493,0.046 -1.43356,-0.0194 -2.07461,-0.34039 -1.099737,-0.5506 -0.993629,-1.35795 0.59494,-4.52671 0.81876,-1.6332 1.66302,-3.166 1.87614,-3.40621 0.4816,-0.54283 0.3364,-0.63266 -1.60151,-0.9907 -2.095127,-0.38709 -2.320497,-0.61532 -2.225011,-2.25321 l 0.07849,-1.34642 4.155401,-0.13229 4.155425,-0.13229 1.00397,-0.9447 c 1.75328,-1.64978 6.39315,-4.37547 9.07376,-5.33038 5.52163,-1.96695 9.88278,-2.71912 15.61041,-2.69233 6.8887,0.0322 12.86258,1.35753 18.2154,4.04111 4.65088,2.33167 7.32776,4.18312 10.4562,7.23195 l 2.36586,2.30565 2.00992,-2.07789 c 3.38327,-3.49768 6.92699,-5.8746 12.06408,-8.09184 3.53897,-1.52747 8.94534,-2.14617 14.59676,-1.67043 2.50702,0.21105 3.81781,0.48958 6.58298,1.39887 3.79379,1.24753 5.48701,2.10815 8.81699,4.48145 2.31326,1.64867 6.10495,5.35243 7.33959,7.16937 4.60843,6.78194 6.56757,12.94429 6.51901,20.505206 -0.0186,2.902 -0.16035,4.41647 -0.58182,6.21771 -0.30645,1.30968 -0.73048,3.27421 -0.94228,4.36562 -0.4436,2.28582 -2.89815,7.4605 -4.64357,9.78958 -4.89317,6.52941 -12.00969,11.16059 -19.49347,12.68569 -5.41467,1.10344 -14.24085,0.32502 -18.96242,-1.67238 -0.56805,-0.24031 -1.07806,-0.39167 -1.13337,-0.33637 -0.0553,0.0553 0.34993,0.47906 0.90052,0.94168 4.2374,3.56036 5.41709,5.57013 4.31914,7.3583 -0.54044,0.88019 -1.98742,1.66058 -3.079,1.66058 -0.78761,0 -1.42969,-1.16824 -1.42969,-2.6013 0,-0.78662 -0.18249,-1.22504 -0.74886,-1.79907 -0.41187,-0.41745 -1.14225,-1.41189 -1.62307,-2.20986 -0.48082,-0.79797 -1.43991,-2.10765 -2.13132,-2.91041 -0.69141,-0.80276 -1.5163,-1.97546 -1.83308,-2.60599 -0.44035,-0.87647 -0.68111,-1.10371 -1.02243,-0.96502 -0.24554,0.0998 -1.04176,0.39307 -1.76936,0.65176 -0.72761,0.25869 -2.03729,0.79101 -2.91042,1.18293 -1.98086,0.88915 -7.33322,2.70245 -8.68215,2.9414 -0.68328,0.12103 -1.45118,0.58514 -2.37761,1.43699 -1.21676,1.11882 -1.36513,1.37171 -1.33913,2.28246 0.0161,0.56333 0.29887,1.53891 0.62841,2.16795 0.6676,1.27433 3.83305,4.14145 5.20548,4.71489 1.51475,0.6329 2.99313,2.15571 2.99313,3.08309 0,1.10273 -0.53898,2.51143 -1.04202,2.7235 -0.49856,0.21017 -5.33252,0.36423 -6.6309,0.21132 z m -49.410945,-4.63091 c -1.13158,-0.72469 -1.11324,-1.48257 0.0794,-3.27932 1.23517,-1.86085 2.756895,-3.20703 4.585245,-4.05625 1.23336,-0.57288 1.84846,-0.68692 3.60661,-0.66871 2.57466,0.0267 4.59604,0.86079 6.14114,2.53412 0.54979,0.59542 1.21964,1.31439 1.48854,1.5977 0.70392,0.74162 1.0108,2.00045 0.65332,2.67992 -0.40092,0.76207 -0.73414,0.94958 -1.69591,0.95435 -0.65044,0.003 -1.02583,-0.24432 -1.83034,-1.20698 -1.45748,-1.74398 -2.6364,-2.55419 -4.04939,-2.78293 -2.1567,-0.34912 -5.2559,1.50325 -6.22761,3.7222 -0.540565,1.23442 -1.374065,1.38769 -2.750965,0.5059 z M 109.2332,138.96929 c -0.43656,-0.23724 -1.14605,-0.61482 -1.57663,-0.83908 -1.59179,-0.82903 -6.53979,-0.66469 -8.433405,0.2801 -1.23703,0.6172 -2.06665,-1.8787 -0.98425,-2.96111 1.1301,-1.1301 2.160525,-1.42987 5.305745,-1.54356 2.94278,-0.10638 3.133,-0.0788 5.79209,0.84069 1.51217,0.52288 2.92355,1.09522 3.13642,1.27189 0.98675,0.81893 0.90678,2.21647 -0.17433,3.04652 -0.59707,0.45841 -2.1345,0.41054 -3.06564,-0.0954 z m 100.32109,-7.54396 c -0.46418,-0.26273 -0.46092,-0.30039 0.0753,-0.87113 0.31599,-0.33635 0.60079,-1.04646 0.65298,-1.62811 l 0.0926,-1.03158 1.48582,0.009 c 16.16143,0.10279 15.24415,-0.016 15.24415,1.97493 0,1.89572 0.14499,1.86589 -8.9542,1.84219 -5.07686,-0.0132 -8.29293,-0.12387 -8.59658,-0.29574 z M 23.886804,125.83158 c -1.60518,-0.41636 -1.56923,0.10241 -1.56923,-22.64681 V 82.559074 l 0.6862,-0.8155 0.68619,-0.8155 23.060159,0.0676 23.060156,0.0676 0.06861,1.45521 c 0.0783,1.66089 -0.155561,2.17292 -1.036484,2.26934 -0.340791,0.0373 -10.114856,0.0777 -21.720142,0.0899 l -21.100519,0.022 v 18.141336 c 0,11.99932 0.0927,18.31462 0.27389,18.65312 0.2673,0.49946 0.78564,0.51178 21.541904,0.51178 11.697403,0 21.456339,0.0723 21.686521,0.1606 0.591307,0.2269 0.561052,2.25515 -0.04451,2.98359 l -0.463021,0.55698 -22.158435,0.0676 c -12.187139,0.0372 -22.524219,-0.0272 -22.971289,-0.1432 z m 50.342016,-0.23895 c -0.424055,-0.42405 -0.40505,-2.37204 0.02893,-2.96555 0.314512,-0.43012 0.834583,-0.47057 5.645057,-0.43906 2.914245,0.0191 5.49679,-0.0413 5.738984,-0.13427 0.399735,-0.15339 0.440359,-1.06863 0.440359,-9.92095 0,-9.37069 0.02,-9.76267 0.511773,-10.02586 0.657085,-0.35166 2.023536,-0.35166 2.680621,0 0.49312,0.26391 0.511773,0.66681 0.511773,11.05363 0,11.81127 0.03855,11.51183 -1.590421,12.3542 -1.005105,0.51976 -13.455774,0.58917 -13.967079,0.0779 z m 138.9727,-3.01932 c -0.14471,-1.35126 -0.10435,-1.80673 0.17738,-2.00164 0.21975,-0.15203 2.57313,-0.19459 5.92096,-0.10706 3.05594,0.0799 6.00274,0.14719 6.54844,0.14956 l 0.99219,0.004 v 1.34031 c 0,2.48537 0.35981,2.36385 -6.99971,2.36385 h -6.45192 z m -44.51315,-0.10008 c -1.92224,-0.87243 -2.83163,-3.47786 -2.95665,-8.4709 -0.005,-0.21914 -0.39693,-0.55585 -0.86988,-0.74825 -0.47294,-0.1924 -1.30895,-0.53837 -1.8578,-0.76881 -1.10576,-0.46428 -2.97596,-2.34578 -3.37504,-3.39543 -0.45221,-1.18942 -0.30719,-3.81394 0.27575,-4.99044 0.77176,-1.55755 1.68402,-2.12654 3.47023,-2.16441 0.81933,-0.0174 1.616,-0.10964 1.77037,-0.20504 0.15437,-0.0954 0.54093,-0.69459 0.85903,-1.33152 0.54172,-1.084696 0.55109,-1.196966 0.14786,-1.772666 -0.56932,-0.81281 -0.54305,-1.49913 0.12579,-3.28676 1.08186,-2.89153 2.75013,-4.03759 5.42047,-3.72375 3.56325,0.41879 6.42723,4.02955 6.53787,8.24261 0.0483,1.838056 -0.004,2.067066 -0.57155,2.527356 -0.34354,0.27839 -0.94586,0.50616 -1.33849,0.50616 -1.26497,0 -1.60047,-0.49071 -1.84867,-2.70388 -0.37861,-3.376096 -2.00585,-5.409816 -3.78678,-4.732716 -0.37642,0.14312 -0.77815,0.41189 -0.89272,0.59727 -0.11457,0.18539 -0.18026,1.61694 -0.14598,3.18123 0.068,3.103596 -0.0897,3.642646 -1.51538,5.179456 -0.75248,0.81112 -0.90203,0.85989 -2.63642,0.85989 -1.39032,0 -1.87583,-0.0968 -1.99099,-0.39687 -0.45566,-1.18745 -1.25468,0.50932 -0.99426,2.11142 0.17168,1.05622 0.38735,1.24055 3.07432,2.62758 0.43656,0.22536 0.97234,0.5241 1.19062,0.66388 0.21828,0.13978 0.69887,0.31665 1.06796,0.39305 0.3691,0.0764 0.96441,0.52997 1.32292,1.00795 0.6162,0.82154 0.64738,1.03077 0.57034,3.82808 -0.0752,2.72961 -0.0406,2.98091 0.44563,3.24114 0.90804,0.48597 1.9041,0.3113 2.95043,-0.51741 l 1.00946,-0.79951 0.1865,-2.63057 0.1865,-2.63058 0.86994,-0.28711 c 1.37318,-0.45319 2.68186,0.20454 2.91868,1.46689 0.38328,2.04304 -0.0534,3.94215 -1.40354,6.10373 -1.06266,1.70134 -1.49043,2.13947 -2.71648,2.78231 -1.77813,0.9323 -3.7777,1.01832 -5.50004,0.23662 z m 22.04193,-0.2073 c -1.51788,-0.83116 -2.95143,-2.91203 -3.71436,-5.3916 -0.83455,-2.71233 0.0452,-5.26095 1.8099,-5.24328 1.73856,0.0174 2.5342,1.42654 2.02294,3.58276 -0.39762,1.67697 0.0385,2.68565 1.61123,3.72643 0.9357,0.61922 1.13295,0.66116 1.69497,0.36038 0.8919,-0.47733 1.15253,-1.34979 1.26615,-4.2384 0.12286,-3.12365 0.55373,-4.0807 2.03726,-4.52518 1.49079,-0.44665 2.85511,-1.66656 3.21784,-2.87725 0.41892,-1.39823 0.223,-1.73159 -1.31857,-2.24362 -2.90304,-0.96424 -3.73794,-2.26943 -4.0047,-6.260486 -0.20522,-3.07047 -0.57094,-3.93721 -1.6613,-3.93721 -0.70512,0 -2.16796,1.59749 -2.82688,3.0871 -0.59945,1.35515 -0.63483,1.50264 -0.31272,1.30356 0.12324,-0.0762 0.24504,0.503446 0.27068,1.288026 0.0395,1.20829 -0.0443,1.49017 -0.54752,1.84266 -0.91238,0.63905 -1.87183,0.51329 -2.70305,-0.35432 -0.71371,-0.74495 -0.73483,-0.84792 -0.63781,-3.108846 0.0937,-2.1827 0.17035,-2.45141 1.15168,-4.03588 0.85707,-1.38384 1.34465,-1.85925 2.63882,-2.57296 2.93217,-1.61703 4.99056,-1.37724 6.80439,0.79268 1.27568,1.52613 1.79457,3.17918 1.79457,5.71708 0,2.650816 0.22891,2.920056 2.48255,2.920056 1.94744,0 2.66882,0.49451 2.98973,2.04948 0.25026,1.21262 0.24536,3.29848 -0.0109,4.62207 -0.26116,1.34912 -2.30013,3.53487 -4.11388,4.41004 l -1.43492,0.69237 -0.0951,1.98438 c -0.14633,3.05475 -0.71737,4.69455 -2.0961,6.01927 -1.15865,1.11325 -1.18944,1.12442 -3.08392,1.1183 -1.5778,-0.005 -2.14476,-0.13277 -3.23106,-0.72761 z M 7.6067444,120.24805 c -2.43837,-2.43836 0.28706,-6.09988 3.3582496,-4.5117 0.86179,0.44565 1.29841,1.29684 1.29841,2.53123 0,2.65608 -2.7931396,3.844 -4.6566596,1.98047 z M 52.30261,116.70916 c -0.673338,-0.42832 -0.618701,-1.68531 0.267676,-6.15829 0.50318,-2.53923 1.234578,-6.28365 1.625331,-8.32094 1.91176,-9.967496 1.859041,-9.785106 2.948074,-10.199156 0.886495,-0.33705 1.633993,0.0873 2.094249,1.18883 0.333753,0.79878 0.224022,1.57158 -1.358837,9.569846 -0.947049,4.78549 -1.928071,9.77246 -2.18005,11.08214 -0.251979,1.30969 -0.550577,2.53008 -0.663551,2.71198 -0.221554,0.35672 -2.224818,0.44878 -2.732892,0.12559 z m -11.514584,-4.66069 c -0.763382,-0.88905 -2.662762,-2.92615 -4.220842,-4.52688 -3.68169,-3.78245 -4.05719,-4.27041 -3.76517,-4.89278 0.12715,-0.27099 1.73923,-2.07894 3.58241,-4.017666 1.84317,-1.93873 3.84024,-4.15004 4.437921,-4.91403 0.860396,-1.09979 1.244611,-1.38906 1.844985,-1.38906 1.182134,0 1.906727,0.76099 2.065453,2.16921 l 0.137769,1.22228 -3.632142,3.62165 -3.632146,3.621656 1.02076,1.06651 c 0.56142,0.58658 1.982535,2.03352 3.158042,3.21542 1.175509,1.18189 2.349717,2.47579 2.609352,2.87533 0.883185,1.35909 0.01717,3.31941 -1.542036,3.49056 -0.542208,0.0595 -0.951746,-0.24643 -2.064356,-1.5422 z m 26.099811,0.77681 c -1.288899,-1.28889 -0.86261,-2.06036 3.639389,-6.5863 1.570209,-1.57857 2.854928,-2.96804 2.854928,-3.08772 0,-0.11968 -0.544624,-0.73313 -1.210273,-1.36322 -0.665649,-0.63009 -2.272993,-2.374116 -3.571875,-3.875626 -2.629654,-3.03989 -2.885837,-3.78126 -1.712169,-4.95493 1.104823,-1.10482 2.3559,-0.78269 3.430542,0.8833 0.347967,0.53945 2.31076,2.67922 4.361762,4.75505 2.356707,2.385236 3.729096,3.973936 3.729096,4.316876 0,0.96497 -0.541518,1.6271 -5.013518,6.13024 -4.800208,4.83363 -5.215326,5.07489 -6.507882,3.78233 z M 0.99753481,112.1821 c -1.68352,-1.0266 -1.87809,-3.50916 -0.38081,-4.85894 0.64864999,-0.58475 1.06141999,-0.72761 2.10233959,-0.72761 1.1138,0 1.3886,0.11098 1.96192,0.79232 1.33012,1.58077 1.24461,3.17547 -0.24019,4.47914 -1.08916,0.95629 -2.2217996,1.05994 -3.44325959,0.31509 z M 14.359724,111.64299 c -0.6535,-0.6535 -0.7734,-0.98352 -0.7734,-2.1287 0,-1.07596 0.13023,-1.48553 0.6319,-1.98719 2.01094,-2.01094 5.60437,-0.18628 5.08503,2.58207 -0.41601,2.21753 -3.34962,3.12774 -4.94353,1.53382 z m 156.467166,-1.26385 c -0.32087,-0.0622 -1.21384,-0.7416 -1.98438,-1.50977 -0.77054,-0.76817 -1.56607,-1.45062 -1.76784,-1.51656 -0.24862,-0.0812 -0.12071,-0.27627 0.39688,-0.60512 0.42005,-0.26687 1.07773,-0.77688 1.46151,-1.13335 1.60645,-1.49216 3.83667,-1.56859 5.28488,-0.18111 1.47171,1.40998 0.81529,3.90078 -1.25608,4.76626 -0.88138,0.36826 -1.07711,0.38473 -2.13497,0.17965 z m 20.88137,-0.49236 c -0.69941,-0.48989 -1.38027,-1.72056 -1.38027,-2.49488 0,-0.7718 0.94806,-2.5495 1.46558,-2.74809 0.23638,-0.0907 1.00622,-0.16493 1.71076,-0.16493 2.29189,0 3.52093,1.69648 2.8999,4.00281 -0.19002,0.70569 -0.51279,1.14378 -1.04574,1.41939 -1.00139,0.51784 -2.90112,0.5104 -3.65023,-0.0143 z M 7.6566444,103.13558 c -0.37678,-0.44778 -0.75588,-1.0963 -0.84243,-1.44116 -0.24322,-0.96908 0.37458,-2.444016 1.32846,-3.171576 1.20626,-0.92006 2.1291096,-0.851 3.2211496,0.24104 0.78227,0.78227 0.89958,1.07147 0.89958,2.217566 0,1.13301 -0.11844,1.43378 -0.84398,2.14312 -0.67526,0.6602 -1.06724,0.82515 -1.9608496,0.82515 -0.92238,0 -1.23618,-0.14178 -1.80193,-0.81414 z M 87.275125,94.748674 c -1.050496,-2.29633 -1.056471,-2.32793 -1.149286,-6.07864 -0.06472,-2.61516 -0.187032,-3.77342 -0.399222,-3.78046 -0.168257,-0.006 -2.657033,-10e-4 -5.530612,0.01 -3.25007,0.0124 -5.424998,-0.0873 -5.754687,-0.26375 -0.430374,-0.23033 -0.529998,-0.55369 -0.529998,-1.72024 0,-1.18441 0.09665,-1.48831 0.550564,-1.73124 0.373928,-0.20012 2.559719,-0.26677 6.81302,-0.20775 5.730846,0.0795 6.340237,0.1326 7.178723,0.62519 0.503946,0.29606 0.998095,0.83184 1.098105,1.19063 0.100013,0.35878 0.19371,2.4535 0.208214,4.65492 0.01791,2.71964 0.142388,4.28856 0.388321,4.89479 0.19907,0.49072 0.437213,1.38954 0.529209,1.99739 0.157147,1.03836 0.107622,1.15434 -0.819108,1.91823 -0.542501,0.44718 -1.108067,0.81 -1.25681,0.80627 -0.148746,-0.004 -0.745641,-1.04553 -1.326433,-2.31511 z M 7.8243644,82.635764 c -0.44139,-0.30916 -0.58804,-0.67642 -0.58804,-1.47261 0,-1.40048 0.34341,-1.97956 1.5302,-2.58027 1.18525,-0.59994 2.0583396,-0.37172 2.4423996,0.63842 0.75125,1.97593 -0.12709,3.82634 -1.8162596,3.82634 -0.53915,0 -1.24488,-0.18535 -1.5683,-0.41188 z M 223.46148,79.695554 c -0.52147,-0.20981 -1.13461,-1.58681 -0.94453,-2.12126 0.53518,-1.50477 2.03567,-1.86565 3.14494,-0.75639 0.82148,0.82148 0.82165,1.46872 5.3e-4,2.35464 -0.60634,0.65425 -1.40384,0.84376 -2.20102,0.52301 z M 14.049344,75.618114 c -0.59093,-0.34419 -0.62909,-2.32977 -0.0657,-3.41921 0.43879,-0.84854 1.62816,-1.31445 2.91821,-1.14315 0.67178,0.0892 0.89501,-0.0526 1.54156,-0.97903 0.41582,-0.59584 0.81472,-1.02465 0.88646,-0.95292 0.0717,0.0717 -0.25812,0.61392 -0.73301,1.20486 -0.76697,0.95439 -0.82906,1.14988 -0.55573,1.74978 0.44255,0.97128 0.37874,2.39371 -0.13022,2.90266 -0.88336,0.88336 -2.87462,1.21184 -3.86155,0.63701 z m 184.480726,-6.77958 c -0.21828,-0.0794 -0.7243,-0.44949 -1.12448,-0.82236 -1.26231,-1.17617 -0.8377,-3.73855 0.70949,-4.28148 0.88205,-0.30952 2.16859,-0.13407 2.8848,0.39342 0.54081,0.3983 0.86417,2.1105 0.59849,3.16904 -0.278,1.10767 -1.9508,1.94801 -3.0683,1.54138 z m 9.63618,-0.10402 c -1.38422,-0.70341 -1.86819,-3.05532 -0.88573,-4.30432 0.4536,-0.57665 0.76353,-0.69714 1.79322,-0.69714 1.51543,0 2.28092,0.4939 2.6909,1.73618 0.34753,1.05301 0.055,2.12103 -0.79051,2.88621 -0.59887,0.54197 -2.09092,0.7434 -2.80788,0.37907 z M 21.443534,68.411364 c -0.69708,-0.27488 -0.73214,-0.36334 -0.5822,-1.46896 0.31673,-2.33548 1.02063,-3.01805 2.87003,-2.7831 0.75038,0.0953 1.51316,0.29113 1.69506,0.4351 0.1819,0.14398 0.33073,0.82628 0.33073,1.51622 0,2.25792 -1.87969,3.26048 -4.31362,2.30074 z M 202.7071,63.218224 c -2.20073,-1.73673 -0.35473,-5.25783 2.43525,-4.64505 1.75263,0.38495 2.47146,2.82548 1.25034,4.24512 -0.85251,0.99111 -2.68456,1.18991 -3.68559,0.39993 z m -5.05755,-5.31746 c -1.17781,-0.92647 -1.26706,-3.13262 -0.17108,-4.2286 0.37882,-0.37883 0.88081,-0.52244 1.82615,-0.52244 1.68974,0 2.40045,0.78336 2.40045,2.64583 0,1.78775 -0.72403,2.64584 -2.23248,2.64584 -0.74314,0 -1.37333,-0.18689 -1.82304,-0.54063 z m 9.856,-0.23277 c -1.68019,-1.6802 -0.53925,-4.51827 1.8164,-4.51827 1.93093,0 3.03123,1.50762 2.42996,3.32948 -0.63984,1.93875 -2.87161,2.56354 -4.24636,1.18879 z m -57.88617,-5.44859 c -0.63437,-0.36265 -1.3849,-0.95366 -1.66784,-1.31336 -1.05681,-1.34351 -3.87271,-1.52241 -5.05645,-0.32125 -0.31468,0.31931 -0.97925,0.90798 -1.47683,1.30816 -1.65985,1.33494 -4.28876,0.76375 -4.26214,-0.92604 0.0366,-2.32324 5.20144,-5.21797 8.7331,-4.89463 3.12801,0.2864 7.07583,2.66253 7.54777,4.54289 0.1651,0.65782 0.0694,0.88384 -0.64401,1.52129 -1.02744,0.91801 -1.68286,0.93514 -3.1736,0.0829 z m 29.90758,-0.0441 c -1.4304,-0.70486 -2.16355,-2.04089 -2.16355,-3.94264 0,-2.66242 1.28018,-4.02521 4.02936,-4.28937 1.64866,-0.15841 2.73359,0.31936 3.6744,1.61811 0.63687,0.87917 0.7629,1.31263 0.7629,2.62385 0,1.34186 -0.12217,1.74081 -0.83855,2.73836 -1.20075,1.67201 -3.52924,2.20537 -5.46456,1.25169 z m 3.46882,-1.58458 c 0.94689,-0.48181 1.64293,-1.9079 1.40122,-2.87092 -0.29334,-1.16879 -1.5516,-2.24298 -2.62732,-2.24298 -1.19525,0 -2.45057,1.03771 -2.80407,2.318 -0.31155,1.12833 0.19174,2.15409 1.46829,2.99251 0.7892,0.51833 1.22215,0.48511 2.56188,-0.19661 z m -97.883171,-0.51908 c -2.264185,-0.80242 -4.586706,-4.33482 -4.586706,-6.97607 0,-3.54146 3.359965,-7.0822 6.764999,-7.12896 2.622174,-0.036 5.581373,1.72892 6.787933,4.04846 0.86249,1.6581 0.78955,4.3263 -0.17252,6.31104 -0.80506,1.66082 -2.503703,3.24631 -4.082157,3.81022 -1.26369,0.45146 -3.335398,0.42302 -4.711549,-0.0647 z m 4.585641,-1.73482 c 2.686661,-1.34179 4.144575,-5.15037 2.895895,-7.56507 -0.6665,-1.28886 -2.060174,-2.54645 -3.261305,-2.94286 -2.858543,-0.94341 -6.523289,1.19309 -7.108198,4.14397 -0.48509,2.4473 0.935321,5.26966 3.177511,6.31373 1.673892,0.77944 2.809401,0.79272 4.296097,0.0502 z m 54.06307,-5.12908 c -2.13576,-0.56092 -5.14986,-2.11621 -5.95464,-3.07264 -0.58208,-0.69176 -0.67242,-0.99574 -0.52931,-1.78109 0.24205,-1.32839 0.70368,-1.70396 2.03046,-1.65197 1.66962,0.0654 1.99763,0.2356 2.63299,1.36608 0.66692,1.18662 1.72636,1.72538 3.32858,1.69271 1.20945,-0.0247 1.36896,-0.11553 3.72757,-2.12339 1.31361,-1.11826 1.72655,-1.33335 2.34644,-1.22222 1.44268,0.25864 2.36135,1.47874 1.94263,2.58006 -0.3296,0.86691 -1.94591,2.41471 -3.17472,3.04016 -0.88371,0.4498 -4.36599,1.60846 -4.72422,1.57189 -0.0938,-0.01 -0.82541,-0.1894 -1.62578,-0.39959 z"
       id="path1331" />
  </g>
</svg>
